<svg xmlns="http://www.w3.org/2000/svg" width="127" height="37" viewBox="0 0 127 37" fill="none"><path d="M33.4377 0.69873H39.2337V36.4827H33.4377V0.69873Z" fill="white"></path><path d="M59.3937 25.1428C59.3937 30.6868 54.8577 31.1908 53.3457 31.1908C49.8177 31.1908 49.3137 27.9148 49.3137 26.1508V12.2908H43.5177V25.8988C43.5177 29.1748 44.5257 32.1988 46.5417 33.9628C48.3057 35.7268 50.5737 36.4828 53.3457 36.4828C55.3617 36.4828 57.8817 35.9788 59.3937 34.4668V36.4828H65.1897V12.2908H59.3937V25.1428Z" fill="white"></path><path d="M76.5297 3.47109H70.7337V12.2911H66.4497V17.8351H70.7337V36.4831H76.5297V17.8351H80.8137V12.2911H76.5297V3.47109Z" fill="white"></path><path d="M124.158 14.3067C122.394 12.5427 120.63 11.7867 117.858 11.7867C115.842 11.7867 113.826 12.2907 112.314 13.8027V0.69873H106.518V36.4827H112.314V23.1267C112.314 17.5827 116.094 17.0787 117.606 17.0787C121.134 17.0787 120.882 20.3547 120.882 22.1187V36.2307H126.678V22.3707C126.678 19.0947 125.922 16.0707 124.158 14.3067Z" fill="white"></path><path d="M98.9577 29.175C97.6977 30.183 95.9337 30.939 94.1697 30.939C90.1377 30.939 87.3657 27.915 87.3657 23.883C87.3657 19.851 90.1377 17.079 94.1697 17.079C95.9337 17.079 97.6977 17.583 98.9577 18.843L99.7137 19.599L103.746 15.819L102.738 15.063C100.47 13.047 97.4457 11.787 94.1697 11.787C87.1137 11.787 81.8217 17.079 81.8217 24.135C81.8217 31.191 87.1137 36.483 94.1697 36.483C97.4457 36.483 100.47 35.223 102.738 33.207L103.746 32.451L99.7137 28.419L98.9577 29.175Z" fill="white"></path><path d="M93.9177 28.1668C96.1445 28.1668 97.9497 26.3616 97.9497 24.1348C97.9497 21.908 96.1445 20.1028 93.9177 20.1028C91.6909 20.1028 89.8857 21.908 89.8857 24.1348C89.8857 26.3616 91.6909 28.1668 93.9177 28.1668Z" fill="white"></path><path d="M25.3737 27.6627C23.3577 29.6787 20.3337 30.9387 17.0577 30.9387C10.7577 30.9387 6.22173 25.8987 6.22173 19.0947C6.22173 12.2907 10.7577 7.25067 17.3097 7.25067C20.3337 7.25067 23.3577 8.51067 25.6257 10.7787L26.3817 11.5347L30.1617 7.75467L29.4057 6.99867C26.1297 3.72267 21.8457 1.95867 17.3097 1.95867C7.73373 1.70667 0.677734 9.26667 0.677734 19.0947C0.677734 28.9227 7.73373 36.4827 17.0577 36.4827C21.5937 36.4827 26.1297 34.7187 29.1537 31.4427L29.9097 30.6867L26.1297 26.9067L25.3737 27.6627Z" fill="white"></path></svg>