<svg xmlns="http://www.w3.org/2000/svg" width="173" height="39" viewBox="0 0 173 39" fill="none"><g clip-path="url(#clip0_119_947)"><path d="M30.7773 16.3255H36.56C41.2144 16.3255 44.4584 19.4234 44.4584 23.4161V23.485C44.4584 27.4777 41.2849 30.5755 36.56 30.5755H30.7773V16.3255ZM36.56 27.6842C39.2398 27.6842 41.0028 25.9632 41.0028 23.485V23.4161C41.0028 20.9379 39.2398 19.148 36.56 19.148H34.0918V27.6842H36.56Z" fill="white"></path><path d="M47.2793 16.3255H58.4921V19.0792H50.5938V21.9705H57.5753V24.7241H50.5938V27.6842H58.6331V30.4379H47.3498L47.2793 16.3255Z" fill="white"></path><path d="M60.4668 28.4415L62.4414 26.2386C63.7813 27.2712 65.1917 27.9596 66.8842 27.9596C68.2241 27.9596 68.9998 27.4089 68.9998 26.6516V26.5828C68.9998 25.7567 68.4356 25.3436 66.0379 24.7929C63.0761 24.0357 61.1015 23.2784 61.1015 20.456V20.3871C61.1015 17.84 63.2171 16.119 66.32 16.119C68.4356 16.119 70.3397 16.7386 71.8206 17.9089L70.1281 20.3183C68.8588 19.4234 67.5189 18.9415 66.2495 18.9415C64.9801 18.9415 64.3454 19.4922 64.3454 20.1806V20.1118C64.3454 21.0067 64.9801 21.3509 67.5189 21.9705C70.5513 22.7277 72.1732 23.7603 72.1732 26.1697V26.2386C72.1732 29.061 69.9166 30.6444 66.7431 30.6444C64.4865 30.6444 62.2298 29.8871 60.4668 28.4415Z" fill="white"></path><path d="M75.1348 16.3255H78.3787V30.5067H75.1348V16.3255Z" fill="white"></path><path d="M81.4814 23.4161C81.4814 19.3545 84.7254 16.0502 89.2387 16.0502C91.9185 16.0502 93.47 16.7386 95.0214 18.0465L92.9763 20.456C91.848 19.561 90.8607 19.0103 89.0977 19.0103C86.7 19.0103 84.8664 21.0067 84.8664 23.4161V23.485C84.8664 26.1009 86.7 28.0284 89.3798 28.0284C90.5786 28.0284 91.6364 27.7531 92.4827 27.1335V25.1371H89.1682V22.4523H95.5856V28.5792C94.0341 29.8183 91.989 30.8509 89.2387 30.8509C84.5844 30.6444 81.4814 27.6154 81.4814 23.4161Z" fill="white"></path><path d="M98.6885 16.3256H101.721L108.632 24.9995V16.3256H111.805V30.5067H109.055L101.862 21.4886V30.5067H98.6885V16.3256Z" fill="white"></path><path d="M115.403 16.3255H122.173C124.077 16.3255 125.487 16.8763 126.475 17.7712C127.321 18.5973 127.744 19.6987 127.744 21.0067V21.0755C127.744 23.3473 126.475 24.7929 124.57 25.4813L128.167 30.5067H124.359L121.185 25.9632H121.115H118.576V30.5067H115.262V16.3255H115.403ZM121.961 23.1408C123.583 23.1408 124.429 22.3147 124.429 21.1444V21.0755C124.429 19.7676 123.513 19.0792 121.891 19.0792H118.647V23.1408H121.961Z" fill="white"></path><path d="M130.494 24.3799V16.2567H133.738V24.2422C133.738 26.5828 134.937 27.6842 136.912 27.6842C138.886 27.6842 140.085 26.5139 140.085 24.2422V16.1879H143.329V24.1734C143.329 28.4415 140.79 30.5755 136.841 30.5755C132.892 30.5755 130.494 28.5103 130.494 24.3799Z" fill="white"></path><path d="M145.656 28.4415L147.631 26.2386C148.971 27.2712 150.381 27.9596 152.074 27.9596C153.414 27.9596 154.189 27.4089 154.189 26.6516V26.5828C154.189 25.7567 153.625 25.3437 151.227 24.7929C148.266 24.0357 146.291 23.2784 146.291 20.456V20.3871C146.291 17.84 148.407 16.119 151.509 16.119C153.625 16.119 155.529 16.7386 157.01 17.9089L155.318 20.3183C154.048 19.4234 152.708 18.9415 151.439 18.9415C150.17 18.9415 149.535 19.4922 149.535 20.1806V20.1118C149.535 21.0067 150.17 21.3509 152.708 21.9705C155.741 22.7277 157.363 23.7603 157.363 26.1697V26.2386C157.363 29.061 155.106 30.6444 151.933 30.6444C149.746 30.6444 147.419 29.8871 145.656 28.4415Z" fill="white"></path><path d="M160.184 16.3255H163.428V21.9705H169.422V16.3255H172.666V30.5067H169.422V24.8618H163.428V30.5067H160.184V16.3255Z" fill="white"></path><path d="M12.1601 24.311C12.0896 24.2422 12.0896 24.311 12.1601 24.311L11.8075 24.1045L11.737 24.0357L3.41556 18.2531C3.41556 18.2531 3.34503 18.2531 3.34503 18.1842L3.20399 18.0466L3.13347 17.9777H2.99243L0.594727 16.3255L5.31961 17.0139C5.53118 17.0139 5.6017 17.0828 5.81326 17.1516C5.88378 17.1516 6.02482 17.2205 6.02482 17.2205C6.23638 17.2893 6.3069 17.3582 6.44795 17.427C6.58899 17.4958 6.65951 17.5647 6.80055 17.6335C6.87107 17.7024 7.01211 17.7712 7.01211 17.84C7.08263 17.9089 7.15315 17.9089 7.22367 17.9777C7.36471 18.0466 7.43524 18.1154 7.43524 18.1842C7.6468 18.3908 7.78784 18.5973 7.9994 18.735L11.737 23.898L11.8075 23.9668L12.1601 24.311Z" fill="white"></path><path d="M12.1599 32.2966L11.8073 31.7458L11.7368 31.677L0.665039 16.3255L3.06274 17.9777L3.48587 18.2531L11.8073 24.0357H11.8778L12.1599 24.2422C12.1599 24.2422 12.2304 24.2422 12.2304 24.311L12.583 24.0357L23.7958 16.3255L12.5125 31.7458L12.442 31.8147L12.1599 32.2966Z" fill="white"></path><path d="M12.1598 21.6951L11.8072 21.1444L11.7366 21.0756L8.98633 17.3582L11.7366 17.9089H11.8072L12.1598 17.9777L12.5124 17.9089L15.1922 17.2893L12.5124 21.1444V21.2132L12.1598 21.6951Z" fill="white"></path><path d="M23.8666 16.2567L20.3406 16.7386L19.0007 16.9451C17.9429 17.0828 16.9556 17.6335 16.3209 18.5285L12.5833 23.7603L12.5128 23.8292L12.1602 24.3111L12.5833 23.898L12.6538 23.8292L12.1602 24.3111L21.6805 17.7024L23.8666 16.2567Z" fill="white"></path><path d="M13.9227 5.3799C13.9227 8.40888 8.56317 9.99222 8.56317 13.2277C8.49265 13.985 8.70422 14.7422 9.05682 15.4306C9.05682 15.4306 7.01172 13.5031 7.01172 11.4379C7.01172 9.37265 8.9863 6.27482 8.9863 6.27482C8.9863 7.65164 9.55046 8.06468 10.1146 8.13352H10.1852C10.8198 8.13352 11.1724 7.65164 11.1724 6.96323C11.1724 6.27482 10.3967 5.58642 10.3967 4.20961C10.3967 2.90164 12.0892 0.767578 12.0892 0.767578C13.2881 2.14439 13.9227 3.72772 13.9227 5.3799Z" fill="white"></path><path d="M12.4414 16.3944C10.7489 16.3944 9.47949 15.0864 9.47949 13.5031V13.4342C9.47949 9.92337 14.4865 9.57916 14.4865 4.82916C14.6275 5.03568 15.9674 6.82554 15.9674 8.75308C15.9674 11.1625 13.6402 11.7821 13.6402 12.9524C13.6402 13.4342 13.8518 13.7784 14.557 13.7784C14.6275 13.7784 14.698 13.7784 14.7685 13.7096C16.1084 13.1589 17.0252 11.9197 17.0957 10.4741C17.0957 10.5429 17.8009 16.3944 12.4414 16.3944Z" fill="white"></path><path d="M14.6283 13.7784C14.6988 13.7784 14.7693 13.7784 14.8399 13.7096C14.1347 13.9161 11.5254 14.5357 11.5254 12.7458C11.5254 10.5429 15.404 10.061 15.404 8.20234C15.404 7.03205 15.1219 5.86176 14.4873 4.82915C14.6283 5.03568 15.9682 6.82553 15.9682 8.75307C15.9682 11.1625 13.641 11.7821 13.641 12.9523C13.7115 13.4342 13.9936 13.7784 14.6283 13.7784Z" fill="white"></path><path d="M12.5129 6.61902C12.5129 8.34003 10.2563 8.20235 10.1152 8.13351H10.3268C10.9615 8.13351 11.3141 7.65163 11.3141 6.96322C11.3141 6.27482 10.5384 5.58641 10.5384 4.2096C10.5384 2.90163 12.2309 0.76757 12.2309 0.76757C11.6667 1.6625 11.3846 2.62627 11.3141 3.59003C11.3141 5.17337 12.5129 5.31105 12.5129 6.61902Z" fill="white"></path><path d="M11.1022 36.7023L9.55078 35.6697H11.4548L12.0895 33.811L12.6537 35.6697H14.5578L13.0063 36.7023L13.5705 38.4922L12.019 37.3907L10.397 38.4922L11.1022 36.7023Z" fill="white"></path><path d="M19.2126 36.7024L17.6611 35.6697H19.5652L20.1999 33.811L20.764 35.6697H22.6681L21.1166 36.7024L21.6808 38.4922L20.1294 37.3908L18.5074 38.4922L19.2126 36.7024Z" fill="white"></path><path d="M3.06317 36.7024L1.51172 35.6697H3.41578L4.05046 33.811L4.61463 35.6697H6.51869L4.96723 36.7024L5.5314 38.4922L3.97994 37.3908L2.42849 38.4922L3.06317 36.7024Z" fill="white"></path></g><defs><clipPath id="clip0_119_947"><rect width="172" height="38" fill="white" transform="translate(0.594727 0.69873)"></rect></clipPath></defs></svg>