<svg xmlns="http://www.w3.org/2000/svg" id="Layer_1" viewBox="0 0 104.7 22.9"><defs><style> .st0 { fill: #fff; } </style></defs><path class="st0" d="M9.7,5c-1.2,0-1.5.5-1.5,1.7v1.9h3.2l-.3,3.1h-2.9v9.5h-3.8v-9.5H1.8v-3.1h2.6v-1.9c0-3.2,1.3-4.8,4.8-4.8s1.7,0,2.2.1v3M11.6,15.4c0,3.5,1.7,6.2,5.2,6.2s3.1-1,3.6-2.2v1.9h3.7v-12.6h-3.7v1.9c-.6-1.2-1.7-2.2-3.6-2.2-3.5,0-5.2,2.7-5.2,6.2M15.5,14.5c0-1.9.7-3.1,2.5-3.1s2.4,1.1,2.4,3v1.3c0,1.8-.8,3-2.4,3s-2.5-1.2-2.5-3.1v-.9ZM32.1,8.4c-4.5,0-6.5,2.4-6.5,6.3v.6c0,3.9,2,6.3,6.5,6.3s2.9-.3,3.7-.8l-.8-2.7c-.8.4-1.7.6-2.6.6-2.1,0-3-1.2-3-3.2v-.7c0-2,.9-3.2,3-3.2s2,.3,2.6.6l.8-2.7c-.8-.5-2.2-.9-3.7-.9M36.3,15.5c0,3.7,1.8,6.1,6.6,6.1s3.9-.4,4.9-.9l-.7-2.6c-1.1.5-2.6.8-4.1.8-2.1,0-2.9-.8-3-2.5h8.1v-2c0-3.5-1.7-5.9-5.7-5.9s-6.2,2.4-6.2,6v1.1M40.1,13.8c0-1.7.7-2.8,2.4-2.8s2.2,1.1,2.2,2.5v.3h-4.6M62.3,14.6c0-3.5-1.7-6.2-5.2-6.2s-3,.9-3.6,2V2l-3.8.3v19h3.6v-1.9c.5,1.2,1.9,2.2,3.8,2.2,3.5,0,5.2-2.7,5.2-6.2M58.5,15.4c0,1.8-.7,3.1-2.5,3.1s-2.4-1.1-2.4-2.9v-1.3c0-1.8.8-2.9,2.4-2.9s2.5,1.3,2.5,3.1v.9ZM63.6,15.3c0,3.6,2.1,6.3,6.3,6.3s6.3-2.6,6.3-6.3v-.6c0-3.6-2.1-6.3-6.3-6.3s-6.3,2.6-6.3,6.3v.6M72.4,15.6c0,1.7-.7,3-2.5,3s-2.5-1.3-2.5-3v-1.2c0-1.7.7-3,2.5-3s2.5,1.3,2.5,3v1.2ZM77.5,15.3c0,3.6,2.1,6.3,6.3,6.3s6.3-2.6,6.3-6.3v-.6c0-3.6-2.1-6.3-6.3-6.3s-6.3,2.6-6.3,6.3v.6M86.3,15.6c0,1.7-.7,3-2.5,3s-2.5-1.3-2.5-3v-1.2c0-1.7.7-3,2.5-3s2.5,1.3,2.5,3v1.2ZM95.3,2l-3.8.3v19h3.8v-6.2l3.9,6.2h4.1l-4.1-6.4,4-6.2h-4.1l-3.8,6"></path></svg>