<svg xmlns="http://www.w3.org/2000/svg" id="a" data-name="Layer 1" viewBox="0 0 222 109"><g><g><path d="M145.87,41.2c0-3.01-1.85-5.2-5.4-5.2h-11.46v15.6h3.76v-5.32h4.46l4.37,5.32h4.24v-.34l-4.24-5.08c2.67-.54,4.27-2.48,4.27-4.98ZM140.05,43.12h-7.27v-3.89h7.27c1.34,0,2.21.71,2.21,1.94s-.83,1.94-2.21,1.94Z" fill="#617792"></path><polygon points="202.79 36 199.26 36 199.26 41.92 189.77 41.92 189.77 36 185.96 36 185.96 51.61 189.77 51.61 189.77 45.45 199.26 45.45 199.26 51.61 202.79 51.61 202.79 36" fill="#617792"></polygon><polygon points="118.93 36 114.73 49.13 114.5 49.13 110.29 36 103.58 36 103.58 51.61 107.17 51.61 107.17 38.79 107.39 38.79 111.58 51.61 117.37 51.61 121.58 38.79 121.8 38.79 121.8 51.61 125.5 51.61 125.5 36 118.93 36" fill="#617792"></polygon><path d="M77.92,42.38c-1.33-.14-3.81-.37-5.14-.51-1.31-.14-2.07-.52-2.07-1.39s.8-1.53,4.04-1.53c2.87,0,5.51.62,7.81,1.73v-3.49c-2.3-1.1-4.84-1.64-8.01-1.64-4.44,0-7.51,1.85-7.51,5,0,2.65,1.81,4.1,5.42,4.51,1.31.14,3.53.34,5.09.46,1.7.14,2.19.66,2.19,1.43,0,1.06-1.19,1.71-4.2,1.71s-6.16-1-8.36-2.41v3.6c1.77,1.19,4.83,2.19,8.24,2.19,4.84,0,7.96-1.87,7.96-5.22.03-2.53-1.64-4.06-5.46-4.46Z" fill="#617792"></path><polygon points="85.88 36 85.88 51.61 100.43 51.61 100.43 48.42 89.47 48.42 89.47 45.25 100.24 45.25 100.24 42.09 89.47 42.09 89.47 39.19 100.43 39.19 100.43 36 85.88 36" fill="#617792"></polygon><path d="M178.16,42.38c-1.33-.14-3.81-.37-5.14-.51-1.31-.14-2.07-.52-2.07-1.39s.8-1.53,4.04-1.53c2.87,0,5.51.62,7.81,1.73v-3.49c-2.3-1.1-4.84-1.64-8.01-1.64-4.44,0-7.51,1.85-7.51,5,0,2.65,1.81,4.1,5.42,4.51,1.31.14,3.53.34,5.09.46,1.7.14,2.19.66,2.19,1.43,0,1.06-1.19,1.71-4.2,1.71s-6.16-1-8.36-2.41v3.6c1.77,1.19,4.83,2.19,8.24,2.19,4.84,0,7.96-1.87,7.96-5.22.03-2.53-1.64-4.06-5.46-4.46Z" fill="#617792"></path><path d="M160.96,36v7.99c0,3.02-1.84,4.69-4.6,4.69s-4.6-1.64-4.6-4.74v-7.95h-3.75v7.59c0,5.66,3.53,8.47,8.41,8.47s8.3-2.68,8.3-8.29v-7.78h-3.76Z" fill="#617792"></path></g><path d="M54.14,43.71c0,.76-.39.88-1.34.88-1.02,0-1.2-.17-1.31-.94-.2-1.96-1.53-3.63-3.75-3.81-.71-.06-.88-.32-.88-1.2,0-.82.12-1.2.76-1.2,3.86.02,6.53,3.12,6.53,6.28ZM59.76,43.71c0-5.88-3.98-12.1-13.18-12.1h-18.27c-.37,0-.6.19-.6.52,0,.19.14.35.26.45.66.52,1.65,1.11,2.95,1.76,1.27.63,2.25,1.05,3.24,1.45.42.17.57.35.57.59,0,.32-.23.52-.68.52h-14.5c-.43,0-.63.28-.63.56,0,.23.08.43.28.63,1.17,1.23,3.06,2.72,5.79,4.43,2.39,1.5,5.35,3.12,7.71,4.24.4.19.52.4.52.63-.02.26-.22.48-.68.48h-6.65c-.37,0-.59.2-.59.51,0,.17.14.39.32.56,1.51,1.37,3.93,2.87,7.16,4.24,4.3,1.84,8.67,2.93,13.58,2.93,9.3,0,13.39-6.96,13.39-12.41ZM47.61,52.06c-4.57,0-8.38-3.72-8.38-8.35s3.81-8.22,8.38-8.22,8.35,3.66,8.35,8.22c-.02,4.63-3.67,8.35-8.35,8.35Z" fill="#617792"></path></g><g><path d="M23.72,75.89h-2.64l7.37-16.99h2.16l7.3,16.99h-2.69l-1.73-4.18h-8.06l-1.7,4.18ZM26.27,69.62h6.36l-3.17-7.97-3.19,7.97Z" fill="#617792"></path><path d="M41.1,77.83c.5.56,1.12,1.01,1.86,1.34s1.51.5,2.29.5,1.38-.11,1.9-.32c.51-.22.92-.51,1.24-.89.31-.38.54-.82.67-1.33.14-.51.2-1.06.2-1.66v-1.46h-.05c-.42.64-.98,1.13-1.7,1.46s-1.49.5-2.3.5c-.86,0-1.65-.15-2.36-.46-.71-.3-1.32-.72-1.81-1.25-.5-.53-.88-1.15-1.15-1.86-.27-.71-.41-1.48-.41-2.29s.14-1.58.41-2.3c.27-.72.66-1.35,1.15-1.88.5-.54,1.1-.96,1.8-1.27.7-.31,1.49-.47,2.35-.47.82,0,1.6.18,2.34.53.74.35,1.33.89,1.76,1.61h.05v-1.82h2.18v10.8c0,.83-.1,1.63-.31,2.39-.21.76-.56,1.43-1.06,2.02s-1.14,1.05-1.94,1.4c-.8.35-1.79.53-2.98.53-.99,0-1.99-.18-2.99-.54-1-.36-1.86-.87-2.58-1.52l1.44-1.75ZM41.77,70.08c0,.53.08,1.03.25,1.51.17.48.42.9.75,1.27.33.37.73.66,1.19.89.46.22,1,.34,1.59.34s1.11-.1,1.59-.31c.48-.21.89-.49,1.23-.85s.6-.78.78-1.27c.18-.49.28-1.01.28-1.57s-.09-1.06-.28-1.54c-.18-.48-.45-.9-.79-1.27-.34-.37-.75-.66-1.23-.88-.47-.22-1-.32-1.58-.32s-1.12.11-1.59.32c-.47.22-.86.5-1.19.86s-.58.78-.75,1.27c-.17.49-.25,1-.25,1.55Z" fill="#617792"></path><path d="M66.25,70.1v.38c0,.13,0,.26-.02.38h-9.05c.02.48.12.93.32,1.35.2.42.47.79.8,1.1.34.31.72.55,1.16.73.44.17.91.26,1.4.26.77,0,1.43-.17,1.99-.5.56-.34,1-.74,1.32-1.22l1.58,1.27c-.61.81-1.32,1.4-2.15,1.78-.83.38-1.74.57-2.75.57-.86,0-1.67-.14-2.4-.43-.74-.29-1.37-.69-1.9-1.21-.53-.52-.94-1.15-1.25-1.88-.3-.74-.46-1.55-.46-2.45s.15-1.69.44-2.44c.3-.74.71-1.38,1.24-1.91.53-.53,1.16-.94,1.88-1.24.72-.3,1.5-.44,2.33-.44s1.59.14,2.27.41c.68.27,1.26.66,1.73,1.18.47.51.84,1.13,1.09,1.86.26.73.38,1.55.38,2.46ZM63.95,69.19c-.02-.45-.09-.87-.23-1.26-.14-.39-.34-.73-.6-1.02-.26-.29-.59-.52-.98-.68-.39-.17-.85-.25-1.38-.25-.48,0-.93.08-1.36.25s-.79.4-1.1.68c-.31.29-.57.63-.77,1.02-.2.39-.32.81-.35,1.26h6.77Z" fill="#617792"></path><path d="M71.65,64.51c.03.29.06.61.07.97.02.36.02.66.02.9h.07c.14-.3.34-.59.59-.85.25-.26.53-.5.85-.7s.67-.36,1.06-.47c.38-.11.78-.17,1.2-.17.74,0,1.37.12,1.9.37.53.25.97.58,1.32,1,.35.42.61.9.78,1.46.17.56.25,1.16.25,1.8v7.06h-2.26v-6.31c0-.46-.04-.9-.11-1.32-.07-.42-.2-.78-.4-1.1-.19-.32-.46-.58-.79-.77s-.77-.29-1.3-.29c-.9,0-1.63.34-2.2,1.02-.57.68-.85,1.59-.85,2.72v6.05h-2.26v-8.93c0-.3,0-.7-.02-1.18-.02-.48-.04-.9-.07-1.27h2.14Z" fill="#617792"></path><path d="M91.79,67.39c-.24-.37-.6-.68-1.08-.92-.48-.25-.99-.37-1.54-.37-.59,0-1.12.11-1.57.34-.46.22-.84.52-1.16.9-.32.38-.56.81-.73,1.31s-.25,1.02-.25,1.56.08,1.06.25,1.56.41.93.73,1.31c.32.38.71.68,1.18.9.46.22.99.34,1.58.34s1.1-.11,1.57-.34c.47-.22.86-.53,1.16-.91l1.51,1.37c-.48.56-1.08,1-1.8,1.31-.72.31-1.54.47-2.45.47s-1.69-.14-2.44-.43c-.74-.29-1.39-.69-1.93-1.21-.54-.52-.97-1.15-1.28-1.88-.31-.74-.47-1.56-.47-2.47s.15-1.71.46-2.45.73-1.37,1.27-1.9c.54-.53,1.19-.94,1.93-1.22s1.55-.43,2.41-.43c.8,0,1.6.16,2.39.48s1.42.78,1.88,1.39l-1.63,1.32Z" fill="#617792"></path><path d="M100.24,73.44h.05l3.14-8.93h2.4l-5.52,14.06c-.19.48-.4.91-.62,1.28-.22.38-.49.7-.79.96-.3.26-.66.47-1.07.61-.41.14-.89.22-1.45.22-.24,0-.48-.01-.73-.04-.25-.02-.5-.07-.76-.13l.22-1.99c.38.13.76.19,1.13.19.59,0,1.03-.16,1.32-.49s.55-.8.79-1.4l.72-1.9-4.87-11.38h2.52l3.53,8.93Z" fill="#617792"></path><path d="M114.61,58.9h5.18c.91,0,1.74.09,2.5.28.75.18,1.39.47,1.92.85.53.38.94.87,1.22,1.46.29.59.43,1.3.43,2.14s-.16,1.58-.47,2.18c-.31.61-.74,1.1-1.3,1.49s-1.21.67-1.97.85c-.76.18-1.58.28-2.46.28h-2.69v7.46h-2.38v-16.99ZM116.99,66.41h2.52c.58,0,1.11-.05,1.6-.16.49-.1.91-.26,1.26-.48.35-.22.62-.5.82-.85s.29-.78.29-1.3-.1-.94-.3-1.28c-.2-.34-.47-.62-.82-.84s-.76-.37-1.24-.46c-.48-.09-1-.13-1.56-.13h-2.57v5.5Z" fill="#617792"></path><path d="M134.75,68.52c0-.85-.26-1.48-.77-1.88-.51-.41-1.19-.61-2.04-.61-.64,0-1.24.12-1.81.37-.57.25-1.04.56-1.43.95l-1.2-1.44c.56-.53,1.24-.94,2.05-1.25.81-.3,1.68-.46,2.6-.46.82,0,1.52.12,2.12.35.6.23,1.09.55,1.48.95.38.4.67.87.86,1.42.19.54.29,1.13.29,1.75v4.97c0,.38.01.79.04,1.21.02.42.07.77.13,1.04h-2.04c-.13-.54-.19-1.09-.19-1.63h-.07c-.42.61-.94,1.08-1.57,1.42-.63.34-1.38.5-2.24.5-.45,0-.92-.06-1.4-.18-.49-.12-.93-.32-1.33-.59-.4-.27-.73-.63-1-1.08-.26-.45-.4-1-.4-1.66,0-.86.23-1.55.7-2.05.46-.5,1.07-.89,1.82-1.15s1.6-.44,2.54-.52,1.9-.12,2.86-.12v-.31ZM134.19,70.46c-.56,0-1.14.02-1.74.07-.6.05-1.14.14-1.63.29-.49.14-.89.36-1.21.65-.32.29-.48.67-.48,1.15,0,.34.07.62.2.84s.32.41.54.55c.22.14.47.24.74.3.27.06.55.08.84.08,1.06,0,1.87-.32,2.44-.95.57-.63.85-1.43.85-2.39v-.6h-.55Z" fill="#617792"></path><path d="M140.89,65.78c-.02-.48-.04-.9-.07-1.27h2.14c.03.29.06.62.07,1,.02.38.02.68.02.92h.07c.32-.67.79-1.21,1.4-1.62.62-.41,1.31-.61,2.08-.61.35,0,.65.03.89.1l-.1,2.09c-.32-.08-.66-.12-1.03-.12-.54,0-1.02.1-1.42.3-.4.2-.73.47-1,.8-.26.34-.46.72-.59,1.16-.13.44-.19.9-.19,1.38v5.98h-2.26v-8.93c0-.3,0-.7-.02-1.18Z" fill="#617792"></path><path d="M155.12,66.36h-3.02v5.91c0,.69.13,1.18.38,1.47.26.29.66.44,1.22.44.21,0,.43-.02.67-.07s.46-.11.65-.2l.07,1.85c-.27.1-.57.17-.9.23-.33.06-.67.08-1.02.08-1.07,0-1.89-.3-2.46-.89-.57-.59-.85-1.48-.85-2.66v-6.17h-2.18v-1.85h2.18v-3.26h2.23v3.26h3.02v1.85Z" fill="#617792"></path><path d="M159.73,64.51c.03.29.06.61.07.97.02.36.02.66.02.9h.07c.14-.3.34-.59.59-.85.25-.26.53-.5.85-.7.32-.2.67-.36,1.06-.47.38-.11.78-.17,1.2-.17.74,0,1.37.12,1.9.37.53.25.97.58,1.32,1,.35.42.61.9.78,1.46.17.56.25,1.16.25,1.8v7.06h-2.26v-6.31c0-.46-.04-.9-.11-1.32s-.2-.78-.4-1.1c-.19-.32-.46-.58-.79-.77s-.77-.29-1.3-.29c-.9,0-1.63.34-2.2,1.02-.57.68-.85,1.59-.85,2.72v6.05h-2.26v-8.93c0-.3,0-.7-.02-1.18-.02-.48-.04-.9-.07-1.27h2.14Z" fill="#617792"></path><path d="M182.53,70.1v.38c0,.13,0,.26-.02.38h-9.05c.02.48.12.93.32,1.35s.47.79.8,1.1c.34.31.72.55,1.16.73s.91.26,1.4.26c.77,0,1.43-.17,1.99-.5.56-.34,1-.74,1.32-1.22l1.58,1.27c-.61.81-1.32,1.4-2.15,1.78-.82.38-1.74.57-2.75.57-.86,0-1.66-.14-2.4-.43s-1.37-.69-1.9-1.21c-.53-.52-.94-1.15-1.25-1.88-.3-.74-.46-1.55-.46-2.45s.15-1.69.44-2.44c.3-.74.71-1.38,1.24-1.91.53-.53,1.15-.94,1.88-1.24.72-.3,1.5-.44,2.33-.44s1.59.14,2.27.41c.68.27,1.26.66,1.73,1.18.47.51.84,1.13,1.09,1.86.26.73.38,1.55.38,2.46ZM180.23,69.19c-.02-.45-.09-.87-.23-1.26-.14-.39-.34-.73-.6-1.02-.26-.29-.59-.52-.98-.68-.39-.17-.85-.25-1.38-.25-.48,0-.93.08-1.36.25s-.79.4-1.1.68c-.31.29-.57.63-.77,1.02-.2.39-.32.81-.35,1.26h6.77Z" fill="#617792"></path><path d="M185.87,65.78c-.02-.48-.04-.9-.07-1.27h2.14c.03.29.06.62.07,1s.02.68.02.92h.07c.32-.67.79-1.21,1.4-1.62s1.31-.61,2.08-.61c.35,0,.65.03.89.1l-.1,2.09c-.32-.08-.66-.12-1.03-.12-.54,0-1.02.1-1.42.3-.4.2-.73.47-1,.8-.26.34-.46.72-.59,1.16-.13.44-.19.9-.19,1.38v5.98h-2.26v-8.93c0-.3,0-.7-.02-1.18Z" fill="#617792"></path><path d="M200.96,67.39c-.26-.42-.62-.76-1.08-1.02-.46-.26-.98-.4-1.56-.4-.26,0-.51.03-.77.08-.26.06-.48.14-.68.26-.2.12-.36.27-.48.46-.12.18-.18.41-.18.68,0,.48.22.84.65,1.07.43.23,1.08.44,1.94.64.54.13,1.05.28,1.51.46.46.18.87.4,1.21.66.34.26.61.58.8.95.19.37.29.8.29,1.3,0,.67-.13,1.24-.38,1.7-.26.46-.6.84-1.02,1.14s-.91.51-1.45.64-1.1.19-1.68.19c-.86,0-1.71-.17-2.53-.5s-1.51-.85-2.05-1.54l1.61-1.37c.3.45.72.82,1.26,1.13s1.12.46,1.76.46c.29,0,.56-.03.83-.08.26-.06.5-.15.72-.28s.39-.3.52-.5c.13-.21.19-.47.19-.79,0-.53-.25-.92-.76-1.18s-1.24-.5-2.22-.72c-.38-.1-.77-.21-1.16-.35-.39-.14-.75-.32-1.07-.56-.32-.24-.58-.54-.78-.9-.2-.36-.3-.8-.3-1.33,0-.61.12-1.13.37-1.57.25-.44.57-.8.97-1.08.4-.28.86-.49,1.37-.62.51-.14,1.04-.2,1.58-.2.82,0,1.6.16,2.36.48s1.35.78,1.76,1.39l-1.56,1.32Z" fill="#617792"></path></g></svg>