<svg xmlns="http://www.w3.org/2000/svg" id="a" data-name="Layer 1" viewBox="0 0 222 109"><g><path d="M55.92,51.83h1.07c.23-.49.23-1.2,0-2.01-.23-1.2-.58-2.01-1.3-1.92-.71.13-.71,1.07-.49,2.27.1.71.36,1.3.71,1.66h0Z" fill="#617792"></path><g><path d="M49.63,52.91c.49.23.84.36.94.23.13-.13,0-.23-.13-.49-.23-.49-.84-.84-1.3-1.07-1.2-.49-2.5-.36-3.57.49-.36.23-.71.58-.58.84,0,.13.13.13.23.13.23,0,1.3-.49,2.5-.58.71-.03,1.43.23,1.92.45h0Z" fill="#617792"></path><path d="M48.55,53.49c-.71.13-1.07.36-1.3.58s-.36.36-.36.49v.13h.13c.13,0,.49-.13.49-.13.94-.36,1.56-.36,2.14-.23.36,0,.49.13.58,0v-.23c-.03-.36-.75-.71-1.69-.62h0Z" fill="#617792"></path></g><path d="M48.91,54.33c.23-.49.23-1.56,0-2.37-.23-1.2-.58-1.92-1.43-1.92-.71.13-.71,1.07-.49,2.37.13.84.49,1.3.58,1.66.62.97.97.71,1.33.26h0Z" fill="#617792"></path><path d="M53.78,55.63c.49.23.94.13,1.2-.23.13-.36-.13-.84-.58-1.07-.49-.23-.94-.13-1.2.23-.26.36.1.84.58,1.07Z" fill="#617792"></path><path d="M56.73,53.04c-.36,0-.71.36-.71.94,0,.49.23.94.71.94.36,0,.71-.36.71-.94-.1-.49-.36-.94-.71-.94Z" fill="#617792"></path><path d="M31.58,62.29c-.13-.13-.23-.13-.36,0h-.36c-.23,0-.49-.13-.58-.36s-.13-.58,0-1.07l.13-.23c.36-.71.84-1.79.23-2.86-.49-.84-1.07-1.3-1.92-1.43-.84-.13-1.66.23-2.14.84-.84.94-.94,2.14-.84,2.6,0,.13.13.23.23.23.13,0,.36-.13.49-.49v-.13c0-.23.13-.49.36-.84.23-.36.58-.58.94-.58.36-.13.84,0,1.2.23.58.36.84,1.07.58,1.79-.36.36-.49.94-.49,1.56.13,1.07.84,1.56,1.43,1.66.58,0,1.07-.36,1.07-.58.13-.19.03-.19.03-.32h0Z" fill="#617792"></path><path d="M66.12,60.27c0-.13-.13-.58-.36-1.3l-.49-1.07c.84-1.2.84-2.37.71-2.95-.13-.71-.49-1.43-1.07-2.14s-2.01-1.43-3.8-1.92l-.94-.23s0-2.27-.13-3.21c0-.71-.13-1.79-.49-2.86-.36-1.43-1.07-2.73-2.01-3.57,2.37-2.5,3.93-5.36,3.93-7.73,0-4.51-5.58-5.94-12.6-3.08l-1.43.58s-2.6-2.6-2.73-2.6c-7.69-6.88-32.27,20.55-24.44,27.2l1.66,1.43c-.49,1.2-.58,2.5-.49,3.93.23,1.79,1.2,3.57,2.6,5,1.43,1.3,3.31,2.14,5.23,2.14,3.08,7.14,10.1,11.39,18.28,11.65,8.8.23,16.26-3.93,19.35-11.3.23-.49,1.07-2.86,1.07-5,.19-2.17-1.01-2.99-1.85-2.99h0ZM30.02,65.86c-.23,0-.58.13-.84,0-2.6-.13-5.58-2.5-5.81-5.36-.23-3.08,1.3-5.45,4.16-6.07.36-.13.71-.13,1.2-.13,1.56.13,3.93,1.3,4.51,4.74.45,3.25-.23,6.33-3.21,6.82ZM27.06,52.55c-1.79.36-3.31,1.3-4.28,2.73-.58-.49-1.66-1.43-1.79-1.79-1.56-2.86,1.66-8.54,3.93-11.65,5.45-7.82,14.12-13.76,18.05-12.73.71.23,2.86,2.73,2.86,2.73,0,0-4.03,2.27-7.73,5.36-5,3.7-8.8,9.28-11.04,15.35ZM55.08,64.66l.13-.13c0-.13-.13-.13-.13-.13,0,0-4.16.58-8.08-.84.49-1.43,1.56-.94,3.31-.71,3.08.23,5.94-.23,7.95-.84,1.79-.49,4.16-1.56,5.94-2.95.58,1.3.84,2.86.84,2.86,0,0,.49-.13.84.13.36.23.58.71.49,1.92-.36,2.37-1.43,4.16-2.95,5.94-.94,1.07-2.27,2.01-3.67,2.73-.71.36-1.56.71-2.37.94-6.43,2.01-12.82-.13-14.84-5-.13-.36-.36-.71-.36-1.2-.84-3.21-.13-7.01,2.27-9.38h0c.13-.13.23-.36.23-.58s-.13-.36-.23-.49c-.84-1.2-3.67-3.21-3.08-7.14.36-2.86,2.86-4.74,5.1-4.64h.58c.94,0,1.92.23,2.6.23,1.3,0,2.6-.13,4.03-1.3.49-.36.84-.71,1.56-.84.13,0,.23-.13.58,0,.36,0,.71.13.94.36,1.2.84,1.3,2.6,1.43,4.03,0,.84.13,2.73.13,3.21.13,1.2.36,1.43,1.07,1.66.36.13.71.23,1.2.36,1.56.49,2.5.84,3.08,1.43.36.36.49.71.58,1.07.23,1.3-1.07,2.95-4.28,4.51-3.57,1.66-7.73,2.01-10.68,1.66l-1.07-.13c-2.37-.36-3.67,2.73-2.27,4.74.94,1.3,3.44,2.27,5.81,2.27,5.71,0,10.1-2.37,11.65-4.51l.13-.23c.13-.13,0-.23-.13-.13-1.3.94-7.24,4.51-13.54,3.44,0,0-.71-.13-1.43-.36-.58-.23-1.66-.71-1.92-1.92,5.32,1.56,8.54,0,8.54,0h0ZM47,63.71h0ZM37.26,41.87c1.92-2.27,4.38-4.28,6.52-5.36q.13,0,.13.13c-.13.36-.49.94-.58,1.43,0,.13.13.13.13.13,1.3-.94,3.67-1.92,5.71-2.01.13,0,.13.13.13.13-.36.23-.58.58-.94.94,0,0,0,.13.13.13,1.43,0,3.44.49,4.74,1.3.13,0,0,.23-.13.23-2.01-.49-5.23-.84-8.67,0-3.08.71-5.36,1.92-7.01,3.08-.16-.03-.26-.03-.16-.13h0Z" fill="#617792"></path></g><g><path d="M196.29,43.83c-2.78,0-4.04,2.02-4.59,3.24-.34.8-.34,1.01-.55,1.01-.34,0-.12-.67.12-1.35.34-1.47.12-2.57.12-2.57h-3.91v18.81h5.38v-5.93c.67,1.13,1.8,2.23,3.58,2.23,3.91,0,5.81-3.24,5.81-7.71-.03-5.05-2.39-7.74-5.96-7.74h0ZM194.85,55.69c-1.22,0-2.14-1.56-2.14-3.7s.89-3.7,2.14-3.7c1.47,0,2.14,1.35,2.14,3.7-.03,2.48-.58,3.7-2.14,3.7h0Z" fill="#617792"></path><path d="M89.91,43.83c-2.35,0-3.46,1.9-4.04,3.03-.34.67-.34,1.22-.67,1.22s-.12-.46-.34-1.47c-.34-1.35-1.47-2.78-3.79-2.78-2.45,0-3.58,2.14-4.04,3.24-.34.8-.34,1.01-.55,1.01-.34,0-.12-.67.12-1.35.34-1.47.12-2.57.12-2.57h-3.91v14.77h5.26v-7.37c0-1.47.55-3.24,1.68-3.24,1.22,0,1.47.89,1.47,2.57v8.04h5.38v-7.37c0-1.35.55-3.24,1.68-3.24,1.22,0,1.47,1.35,1.47,2.57v7.95h5.14v-8.71c-.06-3.82-1.41-6.3-4.98-6.3h0ZM180.76,43.83c-2.35,0-3.46,1.9-4.04,3.03-.34.67-.34,1.22-.67,1.22s-.12-.55-.34-1.47c-.46-1.35-1.35-2.78-3.79-2.78s-3.58,2.14-4.04,3.24c-.34.8-.34,1.01-.55,1.01-.34,0-.12-.67.12-1.35.34-1.47.12-2.57.12-2.57h-3.91v14.77h5.38v-7.37c0-1.47.55-3.24,1.68-3.24,1.22,0,1.47.89,1.47,2.57v8.04h5.38v-7.37c0-1.35.55-3.24,1.68-3.24,1.22,0,1.47,1.35,1.47,2.57v7.95h5.26v-8.71c-.31-3.82-1.65-6.3-5.23-6.3h0ZM104.01,43.83c-4.13,0-7.06,1.47-7.06,1.47v4.46s3.24-1.9,5.93-1.9c2.14,0,2.35,1.13,2.23,2.14,0,0-.55-.12-2.45-.12-4.37,0-6.6,2.02-6.6,5.14s2.45,4.25,4.59,4.25c3.03,0,4.37-2.02,4.8-3.03.34-.67.34-1.13.55-1.13.34,0,.21.34.21,1.01,0,1.13,0,2.02.21,2.78h4.07v-7.28c-.12-4.56-1.68-7.8-6.48-7.8h0ZM102.66,55.48c-1.22.34-1.9-.12-1.9-.89,0-1.13,1.22-1.68,2.9-1.68.8,0,1.47.12,1.47.12-.03.43-1.13,2.11-2.48,2.45ZM119.2,39.7h5.38v19.23h-5.38v-19.23ZM130.52,51.57c0-1.35,1.22-2.57,3.46-2.57,2.45,0,4.46,1.22,4.92,1.47v-5.17s-1.56-1.47-5.38-1.47c-4.04,0-7.37,2.35-7.37,7.49s3.03,7.95,7.37,7.95c3.36,0,5.47-1.9,5.47-1.9v-4.92c-.67.34-2.45,1.56-4.92,1.56-2.66.12-3.55-1.1-3.55-2.45h0ZM149.75,43.83c-3.12,0-4.25,2.9-4.46,3.46s-.34.8-.55.8c-.34,0-.12-.67,0-1.01.21-.8.8-2.69.8-5.14,0-1.68-.21-2.23-.21-2.23h-4.59v19.23h5.38v-7.37c0-1.22.46-3.24,1.8-3.24,1.13,0,1.47.8,1.47,2.45v8.16h5.38v-7.83c-.21-3.79-.76-7.28-5.01-7.28h0ZM156.36,44.17v14.77h5.38v-14.77s-.89.55-2.69.55c-1.8-.09-2.69-.55-2.69-.55h0Z" fill="#617792"></path><ellipse cx="159.05" cy="41.6" rx="3.24" ry="2.14" fill="#617792"></ellipse><path d="M112.17,44.17v14.77h5.35v-14.77s-.89.55-2.69.55c0-.09-2.66-.55-2.66-.55Z" fill="#617792"></path><ellipse cx="114.83" cy="41.6" rx="3.24" ry="2.14" fill="#617792"></ellipse></g><g><path d="M96.77,64.56h3.67c.65,0,1.24.07,1.77.2.53.13.99.33,1.36.6s.66.62.87,1.04c.2.42.31.92.31,1.51s-.11,1.12-.33,1.55c-.22.43-.53.78-.92,1.05s-.86.47-1.39.6c-.54.13-1.12.2-1.74.2h-1.9v5.29h-1.68v-12.04ZM98.45,69.88h1.79c.41,0,.79-.04,1.13-.11.35-.07.64-.19.89-.34.25-.15.44-.35.58-.6.14-.25.2-.56.2-.92s-.07-.67-.21-.91c-.14-.24-.33-.44-.58-.59-.24-.15-.54-.26-.88-.32-.34-.06-.71-.09-1.11-.09h-1.82v3.89Z" fill="#617792"></path><path d="M107.09,76.6h-1.87l5.22-12.04h1.53l5.17,12.04h-1.9l-1.22-2.96h-5.71l-1.21,2.96ZM108.89,72.16h4.5l-2.24-5.64-2.26,5.64Z" fill="#617792"></path><path d="M121.09,76.6h-1.68v-12.04h3.86c.58,0,1.13.06,1.65.18s.98.31,1.37.57c.39.26.7.6.93,1.03.23.42.34.94.34,1.56,0,.88-.27,1.6-.82,2.14s-1.25.89-2.11,1.04l3.37,5.52h-2.04l-3.06-5.35h-1.8v5.35ZM121.09,69.83h1.94c.4,0,.76-.03,1.11-.1.34-.07.64-.18.89-.33.26-.15.46-.35.6-.59s.22-.55.22-.91-.07-.67-.22-.91-.34-.44-.59-.59c-.24-.15-.53-.25-.86-.31-.33-.06-.67-.09-1.04-.09h-2.06v3.84Z" fill="#617792"></path><path d="M134.59,76.6h-1.68v-10.56h-3.86v-1.48h9.4v1.48h-3.86v10.56Z" fill="#617792"></path><path d="M149.26,74.18h.03v-9.62h1.68v12.04h-2.12l-6.36-9.83h-.03v9.83h-1.68v-12.04h2.19l6.29,9.62Z" fill="#617792"></path><path d="M156.32,75.1h6.29v1.5h-7.97v-12.04h7.72v1.48h-6.04v3.6h5.68v1.45h-5.68v4.01Z" fill="#617792"></path><path d="M167.26,76.6h-1.68v-12.04h3.86c.58,0,1.13.06,1.65.18s.98.31,1.37.57c.39.26.7.6.93,1.03.23.42.34.94.34,1.56,0,.88-.27,1.6-.82,2.14s-1.25.89-2.11,1.04l3.37,5.52h-2.04l-3.06-5.35h-1.8v5.35ZM167.26,69.83h1.94c.4,0,.76-.03,1.11-.1.34-.07.64-.18.89-.33.26-.15.46-.35.6-.59s.22-.55.22-.91-.07-.67-.22-.91-.34-.44-.59-.59c-.24-.15-.53-.25-.86-.31-.33-.06-.67-.09-1.04-.09h-2.06v3.84Z" fill="#617792"></path></g></svg>