<svg xmlns="http://www.w3.org/2000/svg" id="a" data-name="Layer 1" viewBox="0 0 222 109"><g id="b" data-name="Group 3"><g id="c" data-name="Group 3231"><g id="d" data-name="SILVER AGENCY PARTNER"><text transform="translate(128.11 42.26)" fill="#617792" font-family="ArialMT, Arial" font-size="14.81"><tspan x="0" y="0" letter-spacing=".13em">SI</tspan><tspan x="17.85" y="0" letter-spacing=".06em">L</tspan><tspan x="26.91" y="0" letter-spacing=".13em">VER</tspan></text><text transform="translate(128.11 60.17)" fill="#617792" font-family="ArialMT, Arial" font-size="14.81"><tspan x="0" y="0" letter-spacing=".13em">AGENC</tspan><tspan x="62.31" y="0" letter-spacing=".11em">Y</tspan><tspan x="73.85" y="0" letter-spacing=".13em"> </tspan></text><text transform="translate(128.11 78.08)" fill="#617792" font-family="ArialMT, Arial" font-size="14.81"><tspan x="0" y="0" letter-spacing=".06em">P</tspan><tspan x="10.71" y="0" letter-spacing=".13em">A</tspan><tspan x="22.51" y="0" letter-spacing=".11em">R</tspan><tspan x="34.87" y="0" letter-spacing=".13em">TNER</tspan></text></g><path id="e" data-name="wordpress-simple" d="M33.28,33.16c-12.58,0-22.79,10.2-22.79,22.79s10.2,22.79,22.79,22.79,22.79-10.2,22.79-22.79c-.01-12.58-10.21-22.77-22.79-22.79ZM12.8,55.95c0-2.87.6-5.71,1.77-8.34l9.77,26.77c-7.06-3.43-11.54-10.59-11.55-18.43ZM33.28,76.43c-1.96,0-3.91-.28-5.79-.84l6.15-17.86,6.29,17.25c.04.1.09.19.15.28-2.18.77-4.48,1.16-6.8,1.16ZM36.1,46.34c1.23-.07,2.34-.19,2.34-.19.47-.04.82-.44.78-.91-.04-.47-.44-.82-.91-.78,0,0-3.32.26-5.46.26-2.01,0-5.39-.26-5.39-.26-.47-.04-.87.31-.91.78-.04.47.31.87.78.91,0,0,1.05.13,2.15.19l3.19,8.75-4.48,13.44-7.46-22.18c1.23-.07,2.34-.19,2.34-.19.47-.04.82-.44.78-.91-.04-.47-.44-.82-.91-.78h0s-3.32.26-5.46.26c-.39,0-.84,0-1.32-.03,6.21-9.45,18.92-12.08,28.37-5.87.91.6,1.78,1.27,2.58,2.01-.09-.01-.18-.02-.26-.02-1.95.06-3.49,1.69-3.44,3.64,0,1.69.97,3.11,2.01,4.81,1.08,1.69,1.66,3.64,1.69,5.65,0,1.75-.67,3.78-1.56,6.62l-2.04,6.83-7.41-22.01h0ZM43.58,73.65l6.26-18.09c.99-2.32,1.52-4.81,1.56-7.34,0-.7-.04-1.41-.14-2.1,5.32,9.74,1.92,21.95-7.68,27.53Z" fill="#617792"></path><path id="f" data-name="Path 28571" d="M64.69,45.92h-6.15l8.82,22.67h5.96l8.82-22.67h-6.21l-4.86,15.25-.68,3.18-.68-3.18-5.03-15.25Z" fill="#617792"></path><path id="g" data-name="Path 28572" d="M85.34,45.92h4.41v23h-6.14v-18.85l1.73-4.15Z" fill="#617792"></path><path id="h" data-name="Subtraction 1" d="M98.74,79.43h-5.95v-33.51h4.77l1.21,3.3s0,0,0,0c.46-.7,1.01-1.34,1.66-1.88,1.41-1.21,3.2-1.88,5.05-1.88,2.59,0,4.73,1.3,6.21,3.77,1.38,2.52,2.07,5.36,2,8.23.08,2.84-.6,5.64-1.97,8.13-.63,1.08-1.5,1.99-2.55,2.66-1.11.68-2.39,1.02-3.68,1.01-2.55.01-5.01-.94-6.89-2.67-.02-.02-.04-.04-.07-.04-.01,0-.02,0-.03.01-.08.1.1.7.1.71l.14.55v11.63h0ZM103.42,50.61c-1.43-.04-2.77.72-3.48,1.96-.82,1.52-1.21,3.23-1.13,4.95-.06,1.73.36,3.44,1.21,4.95,1.08,1.88,3.47,2.53,5.35,1.45.6-.35,1.1-.85,1.45-1.45.85-1.51,1.27-3.22,1.21-4.95.08-1.72-.32-3.43-1.13-4.95-.7-1.25-2.04-2.01-3.48-1.96h0Z" fill="#617792"></path></g></g></svg>