<svg xmlns="http://www.w3.org/2000/svg" id="a" data-name="Layer 1" viewBox="0 0 222 109"><path id="b" data-name="Path 2525" d="M90.96,85.1c.66,0,1.21-.53,1.21-1.19,0-.03,0-.05,0-.08,0-.9-.54-1.33-1.66-1.33h-1.8v4.71h.68v-2.05h.83l.02.02,1.29,2.03h.72l-1.39-2.1h.09ZM90.18,84.63h-.79v-1.59h.99c.51,0,1.1.08,1.1.76,0,.77-.59.84-1.31.84" fill="#617792"></path><path id="c" data-name="Path 2520" d="M73.3,79.19h-9.6v-15.03c0-3.58-.06-8.2-4.99-8.2s-5.77,3.91-5.77,7.94v15.29h-9.6v-30.92h9.22v4.22h.13c1.88-3.21,5.37-5.13,9.09-4.99,9.73,0,11.52,6.4,11.52,14.73v16.96ZM32.51,44.05c-3.08,0-5.57-2.49-5.57-5.57s2.49-5.57,5.57-5.57c3.08,0,5.57,2.49,5.57,5.57s-2.49,5.57-5.57,5.57h0M37.31,79.19h-9.61v-30.92h9.61v30.92ZM78.08,23.99H22.87c-2.61-.03-4.75,2.06-4.78,4.67v55.44c.03,2.61,2.17,4.7,4.78,4.68h55.21c2.62.03,4.76-2.06,4.8-4.68V28.66c-.04-2.61-2.19-4.7-4.8-4.67" fill="#617792"></path><path id="d" data-name="Path 2526" d="M90.26,80.4c-2.44.02-4.4,2.02-4.38,4.46.02,2.44,2.02,4.4,4.46,4.38,2.44-.02,4.4-2.02,4.38-4.46-.02-2.41-1.97-4.35-4.38-4.38h-.08M90.26,88.73c-2.14.04-3.9-1.67-3.94-3.81s1.67-3.9,3.81-3.94c2.14-.04,3.9,1.67,3.94,3.81v.07c.04,2.09-1.62,3.83-3.71,3.87h-.1" fill="#617792"></path><path d="M107.48,43.4h-2.18v-12.56c0-.99.06-2.21.18-3.64h-.05c-.21.84-.4,1.45-.56,1.81l-6.4,14.39h-1.07l-6.39-14.29c-.18-.42-.37-1.06-.56-1.92h-.05c.07.75.1,1.97.1,3.67v12.54h-2.12v-18.73h2.9l5.75,13.06c.44,1,.73,1.75.86,2.25h.08c.37-1.03.67-1.79.9-2.3l5.86-13.01h2.74v18.73Z" fill="#617792"></path><path d="M121.97,43.4h-2.14v-2.09h-.05c-.93,1.6-2.3,2.4-4.11,2.4-1.33,0-2.38-.35-3.13-1.06-.75-.71-1.12-1.64-1.12-2.81,0-2.5,1.47-3.95,4.41-4.36l4.01-.56c0-2.27-.92-3.41-2.76-3.41-1.61,0-3.06.55-4.36,1.65v-2.19c1.31-.84,2.83-1.25,4.54-1.25,3.14,0,4.71,1.66,4.71,4.99v8.7ZM119.83,36.63l-3.23.44c-.99.14-1.74.39-2.25.74-.5.35-.76.97-.76,1.87,0,.65.23,1.19.69,1.61.47.41,1.09.61,1.87.61,1.06,0,1.94-.37,2.62-1.11.7-.75,1.04-1.69,1.04-2.83v-1.33Z" fill="#617792"></path><path d="M133.25,32.19c-.37-.29-.91-.43-1.62-.43-.91,0-1.68.43-2.3,1.29-.61.86-.91,2.04-.91,3.53v6.82h-2.14v-13.37h2.14v2.76h.05c.3-.94.77-1.67,1.4-2.19.63-.53,1.33-.8,2.1-.8.56,0,.98.06,1.28.18v2.22Z" fill="#617792"></path><path d="M146.94,43.4h-3l-5.9-6.42h-.05v6.42h-2.14v-19.8h2.14v12.55h.05l5.62-6.12h2.81l-6.2,6.45,6.69,6.92Z" fill="#617792"></path><path d="M160.15,37.25h-9.44c.03,1.49.44,2.64,1.2,3.45.77.81,1.82,1.21,3.16,1.21,1.51,0,2.89-.5,4.15-1.49v2.01c-1.18.85-2.73,1.28-4.66,1.28s-3.37-.61-4.45-1.82c-1.08-1.22-1.62-2.93-1.62-5.13,0-2.08.59-3.77,1.76-5.08,1.18-1.31,2.65-1.97,4.4-1.97s3.1.57,4.06,1.7c.96,1.13,1.44,2.7,1.44,4.71v1.12ZM157.95,35.43c0-1.24-.31-2.2-.9-2.89-.58-.69-1.4-1.03-2.44-1.03s-1.87.36-2.57,1.08c-.71.72-1.14,1.67-1.31,2.83h7.22Z" fill="#617792"></path><path d="M169.87,43.27c-.5.28-1.17.42-2,.42-2.34,0-3.51-1.31-3.51-3.92v-7.91h-2.3v-1.83h2.3v-3.27l2.14-.69v3.96h3.37v1.83h-3.37v7.53c0,.9.15,1.54.46,1.92.3.38.81.57,1.52.57.54,0,1.01-.15,1.4-.44v1.83Z" fill="#617792"></path><path d="M174.09,26.63c-.38,0-.71-.13-.98-.39-.27-.26-.41-.59-.41-.99s.14-.73.41-.99c.27-.27.6-.4.98-.4s.72.13.99.4c.28.26.42.59.42.99s-.14.71-.42.98c-.27.27-.6.4-.99.4ZM175.14,43.4h-2.14v-13.37h2.14v13.37Z" fill="#617792"></path><path d="M190.84,43.4h-2.14v-7.63c0-2.84-1.04-4.26-3.11-4.26-1.07,0-1.96.41-2.66,1.21-.7.8-1.04,1.82-1.04,3.04v7.63h-2.14v-13.37h2.14v2.22h.05c1.01-1.69,2.47-2.53,4.39-2.53,1.46,0,2.58.47,3.36,1.42.77.94,1.16,2.3,1.16,4.09v8.17Z" fill="#617792"></path><path d="M206.57,42.33c0,4.91-2.35,7.37-7.05,7.37-1.66,0-3.1-.31-4.34-.94v-2.14c1.51.84,2.94,1.25,4.31,1.25,3.29,0,4.94-1.75,4.94-5.25v-1.46h-.05c-1.02,1.71-2.55,2.56-4.6,2.56-1.66,0-3-.59-4.02-1.78-1.01-1.19-1.51-2.79-1.51-4.79,0-2.27.54-4.08,1.63-5.42,1.1-1.34,2.59-2.01,4.49-2.01s3.14.72,4.01,2.17h.05v-1.85h2.14v12.3ZM204.43,37.35v-1.97c0-1.06-.36-1.97-1.08-2.73-.71-.76-1.61-1.14-2.68-1.14-1.32,0-2.36.48-3.11,1.45-.75.96-1.12,2.3-1.12,4.04,0,1.49.36,2.68,1.07,3.58.72.89,1.68,1.33,2.86,1.33s2.18-.43,2.92-1.28c.76-.85,1.14-1.95,1.14-3.28Z" fill="#617792"></path><path d="M90.89,61.61v7.08h-2.19v-18.73h5.14c2,0,3.55.49,4.65,1.46,1.11.97,1.66,2.35,1.66,4.13s-.61,3.23-1.84,4.36c-1.22,1.13-2.87,1.7-4.95,1.7h-2.47ZM90.89,51.95v7.68h2.3c1.51,0,2.67-.34,3.46-1.03.8-.7,1.2-1.68,1.2-2.94,0-2.47-1.46-3.71-4.39-3.71h-2.57Z" fill="#617792"></path><path d="M112.32,68.69h-2.14v-2.09h-.05c-.93,1.6-2.3,2.4-4.11,2.4-1.33,0-2.38-.35-3.13-1.06-.75-.71-1.12-1.64-1.12-2.81,0-2.5,1.47-3.95,4.41-4.36l4.01-.56c0-2.27-.92-3.41-2.75-3.41-1.61,0-3.06.55-4.36,1.65v-2.19c1.31-.84,2.83-1.25,4.54-1.25,3.14,0,4.71,1.66,4.71,4.99v8.7ZM110.18,61.92l-3.23.44c-.99.14-1.74.39-2.25.74-.5.35-.76.97-.76,1.87,0,.65.23,1.19.69,1.61.47.41,1.09.61,1.87.61,1.06,0,1.94-.37,2.62-1.11.7-.75,1.04-1.69,1.04-2.83v-1.33Z" fill="#617792"></path><path d="M123.6,57.48c-.37-.29-.91-.43-1.62-.43-.91,0-1.68.43-2.3,1.29-.61.86-.91,2.04-.91,3.53v6.82h-2.14v-13.37h2.14v2.76h.05c.31-.94.77-1.67,1.4-2.19.63-.53,1.33-.8,2.1-.8.56,0,.98.06,1.28.18v2.22Z" fill="#617792"></path><path d="M132.39,68.56c-.51.28-1.17.42-2,.42-2.34,0-3.51-1.31-3.51-3.92v-7.91h-2.3v-1.83h2.3v-3.27l2.14-.69v3.96h3.37v1.83h-3.37v7.53c0,.9.15,1.54.46,1.92.3.38.81.57,1.51.57.54,0,1.01-.15,1.4-.44v1.83Z" fill="#617792"></path><path d="M146.62,68.69h-2.14v-7.63c0-2.84-1.04-4.26-3.11-4.26-1.07,0-1.96.41-2.66,1.21-.7.8-1.04,1.82-1.04,3.04v7.63h-2.14v-13.37h2.14v2.22h.05c1.01-1.69,2.47-2.53,4.39-2.53,1.46,0,2.58.47,3.36,1.42.77.94,1.16,2.3,1.16,4.09v8.17Z" fill="#617792"></path><path d="M161.68,62.54h-9.44c.04,1.49.44,2.64,1.2,3.45.77.81,1.82,1.21,3.16,1.21,1.51,0,2.89-.5,4.15-1.49v2.01c-1.17.85-2.73,1.28-4.66,1.28s-3.37-.61-4.45-1.82c-1.08-1.22-1.62-2.93-1.62-5.13,0-2.08.59-3.77,1.76-5.08,1.18-1.31,2.65-1.97,4.4-1.97s3.1.57,4.06,1.7c.96,1.13,1.44,2.7,1.44,4.71v1.12ZM159.49,60.72c0-1.24-.31-2.2-.9-2.89-.58-.69-1.4-1.03-2.44-1.03s-1.87.36-2.57,1.08c-.71.72-1.14,1.67-1.31,2.83h7.22Z" fill="#617792"></path><path d="M172.17,57.48c-.38-.29-.91-.43-1.62-.43-.91,0-1.68.43-2.3,1.29-.61.86-.91,2.04-.91,3.53v6.82h-2.14v-13.37h2.14v2.76h.05c.31-.94.77-1.67,1.4-2.19.63-.53,1.33-.8,2.1-.8.56,0,.98.06,1.28.18v2.22Z" fill="#617792"></path><path d="M173.96,68.2v-2.3c1.17.86,2.45,1.29,3.85,1.29,1.88,0,2.82-.63,2.82-1.88,0-.36-.08-.66-.25-.9-.16-.25-.38-.47-.65-.67-.27-.19-.59-.36-.97-.51-.37-.16-.76-.32-1.19-.48-.59-.24-1.11-.47-1.57-.71-.44-.24-.82-.51-1.12-.81-.3-.3-.52-.65-.68-1.03-.15-.38-.22-.83-.22-1.35,0-.63.14-1.18.43-1.66.29-.49.67-.89,1.15-1.21.48-.33,1.02-.58,1.63-.74.62-.17,1.25-.25,1.91-.25,1.16,0,2.19.2,3.11.6v2.17c-.98-.64-2.12-.97-3.39-.97-.4,0-.76.05-1.08.14-.32.09-.6.21-.84.38-.23.17-.4.37-.53.6-.12.23-.18.48-.18.76,0,.35.06.64.18.87.13.24.32.44.56.63.24.18.54.35.89.5.35.15.74.31,1.19.48.59.23,1.12.46,1.59.71.47.23.87.5,1.2.81.33.3.58.64.76,1.03.18.39.27.86.27,1.4,0,.66-.15,1.24-.44,1.72-.29.49-.67.89-1.16,1.21-.49.32-1.05.56-1.68.72-.64.16-1.3.24-2,.24-1.37,0-2.57-.27-3.58-.8Z" fill="#617792"></path></svg>