<svg xmlns="http://www.w3.org/2000/svg" id="a" data-name="Layer 1" viewBox="0 0 222 109"><path d="M86.89,19.16h7.02l11.94,21.6,11.94-21.6h6.88v35.52h-5.74v-27.23l-10.47,18.84h-5.36l-10.49-18.84v27.23h-5.73V19.16Z" fill="#617792"></path><path d="M143.14,55.29c-2.45.05-4.86-.55-7-1.76-1.99-1.16-3.62-2.85-4.7-4.88-1.15-2.21-1.73-4.67-1.68-7.16-.05-2.51.51-4.99,1.64-7.23,1.04-2.03,2.63-3.73,4.58-4.91,2.03-1.21,4.37-1.83,6.73-1.78,4.63-.18,8.89,2.52,10.7,6.79,1.03,2.39,1.53,4.96,1.47,7.56v1.57h-19.44c.25,1.96,1.18,3.77,2.63,5.11,1.46,1.27,3.35,1.94,5.29,1.86,1.51.03,3.01-.23,4.41-.77,1.29-.54,2.47-1.33,3.47-2.31l3.04,3.73c-3.02,2.78-7.01,4.27-11.13,4.16ZM147.33,34.25c-1.25-1.25-2.98-1.92-4.75-1.84-1.77-.05-3.49.63-4.75,1.87-1.33,1.38-2.19,3.15-2.42,5.05h13.98c-.05-1.89-.78-3.7-2.05-5.1h0Z" fill="#617792"></path><path d="M161.84,32.91h-5.28v-4.69h5.28v-7.77h5.52v7.77h8.01v4.69h-8.01v11.88c0,1.97.34,3.38,1.01,4.24.67.85,1.83,1.27,3.47,1.26.62,0,1.24-.02,1.86-.09.51-.05,1.06-.14,1.67-.24v4.64c-.69.2-1.4.35-2.11.46-.82.12-1.65.18-2.47.18-5.97,0-8.95-3.26-8.94-9.79v-12.55Z" fill="#617792"></path><path d="M204.18,54.69h-5.43v-3.7c-.94,1.36-2.2,2.46-3.68,3.2-1.58.77-3.31,1.16-5.07,1.13-2.2.04-4.36-.58-6.19-1.78-1.84-1.23-3.3-2.92-4.25-4.92-1.07-2.23-1.59-4.69-1.55-7.16-.05-2.48.49-4.94,1.58-7.17.97-2,2.47-3.69,4.34-4.89,1.91-1.2,4.13-1.82,6.38-1.78,1.68-.03,3.35.33,4.87,1.05,1.41.68,2.65,1.69,3.58,2.95v-3.39h5.43v26.47h0ZM198.65,37.49c-.54-1.45-1.52-2.69-2.8-3.56-1.31-.88-2.85-1.33-4.43-1.3-2.14-.09-4.22.78-5.65,2.38-1.4,1.59-2.1,3.73-2.11,6.44,0,2.71.67,4.86,2.04,6.46,1.37,1.6,3.4,2.48,5.5,2.39,1.62.01,3.21-.46,4.56-1.36,1.32-.85,2.33-2.09,2.89-3.55v-7.89Z" fill="#617792"></path><path d="M18.33,90.94v-16.81h6.31c1.28,0,2.31.17,3.09.51s1.38.86,1.82,1.57c.44.71.66,1.45.66,2.22,0,.72-.19,1.4-.59,2.03-.39.63-.98,1.15-1.77,1.54,1.02.3,1.8.8,2.34,1.52.54.72.82,1.57.82,2.55,0,.79-.17,1.52-.5,2.2-.33.68-.74,1.2-1.23,1.57-.49.37-1.1.64-1.84.83-.74.19-1.64.28-2.71.28h-6.41ZM20.55,81.2h3.63c.98,0,1.69-.07,2.12-.19.56-.17.99-.45,1.28-.84.29-.39.43-.88.43-1.47s-.13-1.05-.4-1.47c-.27-.43-.65-.71-1.15-.87-.5-.16-1.35-.24-2.56-.24h-3.36v5.08ZM20.55,88.96h4.18c.72,0,1.22-.03,1.51-.08.51-.09.94-.25,1.28-.46.35-.21.62-.53.85-.93.22-.41.33-.88.33-1.41,0-.62-.16-1.17-.48-1.63-.32-.46-.77-.79-1.33-.97-.57-.19-1.39-.28-2.46-.28h-3.89v5.77h0Z" fill="#617792"></path><path d="M42.88,90.94v-1.79c-.95,1.38-2.23,2.06-3.87,2.06-.72,0-1.39-.14-2.01-.41-.62-.27-1.08-.62-1.39-1.04-.3-.42-.52-.93-.63-1.53-.09-.41-.13-1.05-.13-1.93v-7.54h2.06v6.75c0,1.08.04,1.8.13,2.18.13.54.41.97.82,1.28.42.31.94.46,1.56.46s1.2-.16,1.74-.48c.54-.32.93-.75,1.15-1.3.23-.55.34-1.34.34-2.38v-6.53h2.06v12.18h-1.84Z" fill="#617792"></path><path d="M47.13,87.31l2.04-.32c.11.82.44,1.44.96,1.88.53.44,1.25.65,2.2.65s1.65-.19,2.11-.58c.46-.39.69-.84.69-1.36,0-.46-.2-.83-.61-1.1-.28-.18-.98-.42-2.11-.7-1.51-.38-2.56-.71-3.15-.99-.59-.28-1.03-.67-1.33-1.16-.3-.49-.45-1.04-.45-1.63,0-.54.12-1.05.37-1.51.25-.46.59-.85,1.01-1.15.32-.24.76-.44,1.31-.6.55-.17,1.15-.25,1.78-.25.96,0,1.79.14,2.52.41.72.27,1.25.65,1.6,1.12.35.47.58,1.1.71,1.89l-2.02.27c-.09-.62-.35-1.12-.79-1.47-.44-.35-1.06-.53-1.86-.53-.95,0-1.62.16-2.03.47-.41.31-.61.68-.61,1.1,0,.27.09.51.25.72.17.22.43.41.79.55.21.08.81.25,1.82.53,1.46.39,2.48.71,3.06.96.58.25,1.03.61,1.36,1.08.33.47.49,1.06.49,1.77s-.2,1.33-.6,1.94c-.4.61-.98,1.08-1.74,1.41-.76.33-1.61.5-2.57.5-1.58,0-2.79-.33-3.62-.98-.83-.65-1.36-1.62-1.59-2.92Z" fill="#617792"></path><path d="M59.71,76.51v-2.38h2.06v2.38h-2.06ZM59.71,90.94v-12.18h2.06v12.18h-2.06Z" fill="#617792"></path><path d="M64.91,90.95v-12.18h1.86v1.73c.89-1.34,2.19-2.01,3.88-2.01.73,0,1.41.13,2.03.4.62.26,1.07.61,1.38,1.04.31.43.52.94.64,1.52.08.38.11,1.05.11,2.01v7.49h-2.06v-7.41c0-.84-.08-1.47-.24-1.89-.16-.42-.44-.75-.86-1-.41-.25-.89-.37-1.44-.37-.88,0-1.64.28-2.28.84-.64.56-.96,1.62-.96,3.18v6.65h-2.06Z" fill="#617792"></path><path d="M86.31,87.03l2.13.26c-.34,1.24-.96,2.21-1.87,2.9-.91.69-2.07,1.03-3.49,1.03-1.78,0-3.19-.55-4.24-1.65-1.05-1.1-1.57-2.64-1.57-4.61s.53-3.64,1.58-4.77c1.06-1.13,2.42-1.7,4.1-1.7s2.96.55,3.99,1.66c1.03,1.11,1.55,2.67,1.55,4.68,0,.12,0,.31,0,.55h-9.08c.08,1.34.45,2.36,1.14,3.07.68.71,1.53,1.06,2.55,1.06.76,0,1.4-.2,1.94-.6.53-.39.96-1.02,1.27-1.89ZM79.54,83.69h6.8c-.09-1.02-.35-1.79-.78-2.3-.66-.79-1.51-1.19-2.56-1.19-.95,0-1.75.32-2.39.95-.65.63-1.01,1.48-1.07,2.55Z" fill="#617792"></path><path d="M90.21,87.31l2.04-.32c.11.82.44,1.44.96,1.88.53.44,1.25.65,2.2.65s1.65-.19,2.11-.58c.46-.39.69-.84.69-1.36,0-.46-.2-.83-.61-1.1-.28-.18-.98-.42-2.11-.7-1.51-.38-2.56-.71-3.15-.99-.59-.28-1.03-.67-1.33-1.16-.3-.49-.45-1.04-.45-1.63,0-.54.12-1.05.37-1.51s.59-.85,1.01-1.15c.32-.24.76-.44,1.31-.6.55-.17,1.15-.25,1.78-.25.96,0,1.79.14,2.52.41.72.27,1.25.65,1.6,1.12.35.47.58,1.1.71,1.89l-2.02.27c-.09-.62-.35-1.12-.79-1.47-.44-.35-1.06-.53-1.86-.53-.95,0-1.62.16-2.03.47-.41.31-.61.68-.61,1.1,0,.27.09.51.25.72.17.22.43.41.79.55.21.08.81.25,1.82.53,1.46.39,2.48.71,3.06.96.58.25,1.03.61,1.36,1.08.33.47.49,1.06.49,1.77s-.2,1.33-.6,1.94c-.4.61-.98,1.08-1.74,1.41-.76.33-1.61.5-2.57.5-1.58,0-2.79-.33-3.62-.98-.82-.65-1.35-1.62-1.59-2.92Z" fill="#617792"></path><path d="M101.95,87.31l2.04-.32c.11.82.44,1.44.96,1.88.53.44,1.25.65,2.2.65s1.65-.19,2.11-.58c.46-.39.69-.84.69-1.36,0-.46-.2-.83-.61-1.1-.28-.18-.98-.42-2.11-.7-1.51-.38-2.56-.71-3.15-.99-.59-.28-1.03-.67-1.33-1.16-.3-.49-.45-1.04-.45-1.63,0-.54.12-1.05.37-1.51.25-.46.59-.85,1.01-1.15.32-.24.76-.44,1.31-.6.55-.17,1.15-.25,1.78-.25.96,0,1.79.14,2.52.41.72.27,1.25.65,1.6,1.12.35.47.58,1.1.71,1.89l-2.02.27c-.09-.62-.35-1.12-.79-1.47-.44-.35-1.06-.53-1.86-.53-.95,0-1.62.16-2.03.47-.41.31-.61.68-.61,1.1,0,.27.09.51.25.72.17.22.43.41.79.55.21.08.81.25,1.82.53,1.46.39,2.48.71,3.06.96.58.25,1.03.61,1.36,1.08.33.47.49,1.06.49,1.77s-.2,1.33-.6,1.94c-.4.61-.98,1.08-1.74,1.41-.76.33-1.61.5-2.57.5-1.58,0-2.79-.33-3.62-.98-.82-.65-1.35-1.62-1.59-2.92Z" fill="#617792"></path><path d="M122.62,90.94v-16.81h6.34c1.12,0,1.97.05,2.56.16.83.14,1.52.4,2.08.79s1.01.93,1.35,1.62c.34.7.51,1.46.51,2.3,0,1.43-.45,2.64-1.36,3.63s-2.56,1.49-4.93,1.49h-4.31v6.83h-2.23ZM124.85,82.13h4.34c1.44,0,2.46-.27,3.06-.8.61-.53.9-1.29.9-2.26,0-.71-.18-1.31-.53-1.81-.36-.5-.82-.83-1.41-.99-.37-.1-1.07-.15-2.08-.15h-4.3v6.01h0Z" fill="#617792"></path><path d="M146.23,89.44c-.76.65-1.5,1.11-2.2,1.38-.71.26-1.47.4-2.28.4-1.34,0-2.37-.33-3.09-.98-.72-.65-1.08-1.49-1.08-2.5,0-.6.14-1.14.41-1.63.27-.49.62-.89,1.06-1.19.44-.3.93-.53,1.49-.68.41-.11,1.02-.21,1.84-.31,1.67-.2,2.89-.44,3.68-.71,0-.28,0-.46,0-.54,0-.84-.19-1.43-.59-1.78-.53-.46-1.31-.7-2.35-.7-.97,0-1.69.17-2.15.51-.46.34-.8.94-1.03,1.81l-2.02-.27c.18-.86.49-1.56.9-2.09.42-.53,1.03-.94,1.82-1.23.8-.29,1.72-.43,2.76-.43s1.88.12,2.53.37c.65.25,1.13.55,1.43.92.31.37.52.84.64,1.41.07.35.1.98.1,1.9v2.75c0,1.92.04,3.13.13,3.64.09.51.26.99.52,1.46h-2.15c-.21-.43-.35-.93-.41-1.5ZM146.06,84.84c-.75.31-1.87.57-3.37.78-.85.12-1.45.26-1.8.41s-.62.38-.81.67c-.19.29-.29.62-.29.98,0,.55.21,1.01.63,1.38.42.36,1.03.55,1.83.55s1.5-.18,2.12-.52c.62-.35,1.07-.82,1.36-1.43.22-.46.33-1.15.33-2.06v-.76Z" fill="#617792"></path><path d="M151.15,90.94v-12.18h1.86v1.85c.47-.86.91-1.43,1.31-1.71.4-.27.84-.41,1.33-.41.7,0,1.4.22,2.12.67l-.71,1.92c-.51-.3-1.01-.45-1.51-.45-.45,0-.86.14-1.22.41-.36.27-.62.65-.77,1.13-.23.73-.35,1.54-.35,2.41v6.37h-2.06Z" fill="#617792"></path><path d="M164.9,89.1l.3,1.82c-.58.12-1.1.18-1.56.18-.75,0-1.33-.12-1.74-.35-.41-.24-.7-.55-.87-.93-.17-.39-.25-1.2-.25-2.44v-7h-1.51v-1.6h1.51v-3.01l2.05-1.24v4.25h2.08v1.6h-2.08v7.12c0,.59.04.97.11,1.14.07.17.19.3.35.4.17.1.4.15.71.15.23,0,.53-.03.9-.09Z" fill="#617792"></path><path d="M166.92,90.95v-12.18h1.86v1.73c.89-1.34,2.19-2.01,3.88-2.01.73,0,1.41.13,2.02.4.62.26,1.08.61,1.38,1.04.31.43.52.94.64,1.52.08.38.11,1.05.11,2.01v7.49h-2.06v-7.41c0-.84-.08-1.47-.24-1.89-.16-.42-.45-.75-.86-1-.41-.25-.89-.37-1.44-.37-.88,0-1.64.28-2.28.84-.64.56-.96,1.62-.96,3.18v6.65h-2.06Z" fill="#617792"></path><path d="M188.32,87.03l2.13.26c-.34,1.24-.96,2.21-1.87,2.9-.91.69-2.07,1.03-3.49,1.03-1.78,0-3.19-.55-4.24-1.65-1.04-1.1-1.57-2.64-1.57-4.61s.53-3.64,1.58-4.77c1.06-1.13,2.42-1.7,4.1-1.7s2.96.55,3.99,1.66c1.03,1.11,1.55,2.67,1.55,4.68,0,.12,0,.31,0,.55h-9.08c.08,1.34.45,2.36,1.14,3.07.68.71,1.53,1.06,2.55,1.06.76,0,1.4-.2,1.94-.6.54-.39.96-1.02,1.27-1.89ZM181.54,83.69h6.8c-.09-1.02-.35-1.79-.78-2.3-.66-.8-1.51-1.19-2.56-1.19-.95,0-1.75.32-2.39.95-.65.63-1.01,1.48-1.07,2.55Z" fill="#617792"></path><path d="M193.02,90.95v-12.18h1.85v1.85c.47-.86.91-1.43,1.31-1.71.4-.27.84-.41,1.33-.41.7,0,1.4.22,2.12.67l-.71,1.92c-.51-.3-1.01-.45-1.52-.45-.45,0-.86.14-1.22.41-.36.27-.62.65-.77,1.13-.23.73-.35,1.54-.35,2.41v6.37h-2.06Z" fill="#617792"></path><path d="M23.76,42.97c0,2.27.5,4.01,1.15,5.06.85,1.38,2.12,1.96,3.42,1.96,1.67,0,3.2-.41,6.15-4.49,2.36-3.27,5.14-7.85,7.01-10.73l3.17-4.87c2.2-3.38,4.75-7.14,7.67-9.69,2.39-2.08,4.96-3.24,7.55-3.24,4.35,0,8.49,2.52,11.66,7.25,3.47,5.18,5.15,11.7,5.15,18.42,0,4-.79,6.94-2.13,9.26-1.3,2.25-3.82,4.49-8.07,4.49v-6.4c3.64,0,4.55-3.34,4.55-7.17,0-5.45-1.27-11.5-4.07-15.83-1.99-3.07-4.56-4.94-7.4-4.94-3.06,0-5.53,2.31-8.3,6.43-1.47,2.19-2.99,4.86-4.68,7.87l-1.87,3.31c-3.76,6.66-4.71,8.18-6.59,10.68-3.29,4.38-6.1,6.04-9.8,6.04-4.39,0-7.17-1.9-8.88-4.77-1.4-2.33-2.09-5.4-2.09-8.89l6.41.23Z" fill="#617792"></path><path d="M22.4,24.67c2.94-4.53,7.18-7.7,12.04-7.7,2.82,0,5.62.83,8.54,3.22,3.2,2.61,6.61,6.91,10.86,13.99l1.53,2.54c3.68,6.13,5.78,9.29,7,10.78,1.58,1.91,2.68,2.48,4.12,2.48,3.64,0,4.55-3.34,4.55-7.17l5.65-.18c0,4-.79,6.94-2.13,9.26-1.3,2.25-3.82,4.49-8.07,4.49-2.64,0-4.98-.57-7.57-3.02-1.99-1.87-4.32-5.2-6.1-8.2l-5.32-8.89c-2.67-4.46-5.12-7.79-6.54-9.29-1.53-1.62-3.49-3.58-6.61-3.58-2.53,0-4.68,1.78-6.48,4.49l-5.46-3.24Z" fill="#617792"></path><path d="M34.35,23.42c-2.53,0-4.68,1.78-6.48,4.49-2.54,3.84-4.1,9.56-4.1,15.05,0,2.27.5,4.01,1.15,5.06l-5.46,3.6c-1.4-2.33-2.09-5.4-2.09-8.89,0-6.35,1.74-12.96,5.05-18.07,2.94-4.53,7.18-7.7,12.04-7.7l-.1,6.44Z" fill="#617792"></path></svg>