<svg xmlns="http://www.w3.org/2000/svg" id="a" data-name="Layer 1" viewBox="0 0 222 109"><g><path d="M20.23,58.15h0l3.73-9.69h1.73v11.62h-1.14v-10.05h0l-4.03,10.13h-.6l-4.03-10.13h0v10.13h-1.2v-11.62h1.73l3.81,9.61Z" fill="#617792"></path><path d="M29.78,60.17h-1.13v-11.62h1.13v11.62Z" fill="#617792"></path><path d="M42.12,58.3c-.19.31-.42.59-.68.84-.29.27-.62.5-.97.7-.37.2-.77.37-1.17.47-.46.12-.92.17-1.39.17-.79,0-1.59-.15-2.32-.46-.7-.3-1.32-.73-1.84-1.28-.52-.56-.94-1.22-1.21-1.94-.59-1.58-.59-3.32,0-4.9.27-.72.69-1.38,1.22-1.94,1.08-1.13,2.59-1.76,4.15-1.73.41,0,.81.04,1.21.13.38.1.76.22,1.11.38.34.15.67.35.97.58.27.22.51.48.71.77l-.97.72c-.14-.2-.29-.39-.46-.55-.2-.2-.44-.37-.69-.49-.27-.15-.56-.26-.86-.35-.32-.09-.64-.14-.97-.14-.67,0-1.33.14-1.94.42-.56.26-1.06.64-1.45,1.1-.41.47-.72,1.03-.91,1.62-.43,1.26-.43,2.62,0,3.87.22.59.55,1.14.97,1.62.85.98,2.09,1.54,3.39,1.52.63,0,1.26-.15,1.83-.42.59-.29,1.09-.76,1.44-1.32,0,0,.84.59.84.59Z" fill="#617792"></path><path d="M45.21,60.17h-1.13v-11.62h3.27c.51,0,1.02.05,1.52.16.44.1.84.28,1.21.53.35.25.62.58.79.97.2.46.3.95.29,1.44,0,.4-.07.8-.22,1.17-.28.69-.82,1.23-1.5,1.53-.36.15-.75.26-1.13.3l3.26,5.55h-1.39l-3.09-5.45h-1.89s0,5.41,0,5.41ZM45.21,53.7h1.94c.74.05,1.48-.14,2.11-.52.5-.36.78-.95.75-1.56,0-.34-.06-.67-.21-.97-.13-.26-.32-.47-.56-.64-.27-.17-.57-.3-.88-.37-.38-.08-.77-.11-1.15-.11h-1.99v4.17h0Z" fill="#617792"></path><path d="M64.53,54.34c0,.83-.14,1.67-.44,2.45-.28.72-.7,1.38-1.22,1.94-.52.54-1.15.98-1.85,1.28-1.47.61-3.14.61-4.61,0-.7-.3-1.32-.74-1.84-1.28-.53-.56-.95-1.22-1.22-1.94-.59-1.58-.59-3.32,0-4.9.27-.72.69-1.38,1.22-1.94.52-.54,1.14-.98,1.84-1.28,2.2-.94,4.76-.44,6.43,1.28.52.56.94,1.22,1.22,1.94.31.78.46,1.61.46,2.45ZM63.34,54.34c0-.66-.11-1.32-.32-1.94-.2-.59-.51-1.14-.91-1.62-.41-.46-.9-.84-1.46-1.1-1.23-.56-2.64-.56-3.87,0-.56.26-1.06.64-1.45,1.1-.43.47-.76,1.02-.97,1.62-.2.63-.31,1.28-.31,1.94s.11,1.31.31,1.94c.21.59.54,1.14.97,1.61.4.46.89.84,1.45,1.1,1.23.56,2.64.56,3.87,0,.56-.26,1.06-.64,1.46-1.1.41-.47.72-1.02.91-1.61.21-.62.32-1.27.32-1.93h0Z" fill="#617792"></path><path d="M72.3,50.38c-.25-.36-.58-.65-.97-.85-.43-.22-.9-.34-1.38-.32-.28,0-.56.05-.83.14-.28.09-.53.22-.77.4-.5.4-.79,1.02-.77,1.66-.02.34.05.67.2.97.14.24.32.45.54.61.23.17.49.32.77.43l.91.33c.39.13.77.27,1.16.43.39.15.75.35,1.07.6.32.26.58.59.77.97.22.45.32.95.3,1.44,0,.52-.1,1.04-.32,1.5-.19.41-.47.77-.82,1.05-.35.27-.74.48-1.16.61-.43.14-.87.19-1.32.19-.33,0-.65-.04-.97-.11-.34-.07-.66-.17-.97-.32s-.59-.32-.85-.54c-.26-.22-.49-.47-.69-.76l.97-.76c.23.42.57.77.97,1.05.46.28,1,.43,1.54.42.32-.03.63-.11.92-.24.29-.09.56-.23.79-.43.24-.19.45-.43.58-.71.29-.61.29-1.33,0-1.94-.15-.27-.35-.5-.6-.68-.27-.19-.56-.34-.87-.46-.32-.12-.66-.24-1.02-.36s-.74-.26-1.08-.42c-.35-.15-.68-.35-.97-.6s-.51-.56-.68-.91c-.37-.9-.35-1.91.06-2.79.2-.38.49-.71.84-.97s.74-.46,1.15-.58c.41-.12.82-.17,1.24-.17.67-.02,1.34.13,1.94.42.47.22.89.55,1.21.97l-.89.74h0Z" fill="#617792"></path><path d="M86.8,54.34c0,.83-.14,1.67-.44,2.45-.28.72-.7,1.38-1.22,1.94-.52.54-1.15.98-1.84,1.28-1.48.61-3.14.61-4.62,0-.69-.3-1.32-.74-1.84-1.28-.53-.56-.95-1.22-1.22-1.94-.59-1.58-.59-3.32,0-4.9.27-.72.69-1.38,1.22-1.94,2.25-2.3,5.93-2.32,8.21-.09l.09.09c.52.56.94,1.22,1.22,1.94.3.78.45,1.62.44,2.45ZM85.61,54.34c0-.66-.11-1.32-.32-1.94-.19-.59-.5-1.14-.91-1.62-.4-.46-.89-.84-1.45-1.1-1.23-.56-2.64-.56-3.87,0-.56.26-1.06.64-1.45,1.1-.41.47-.72,1.03-.92,1.62-.2.63-.31,1.28-.31,1.94s.11,1.31.31,1.94c.2.59.51,1.13.92,1.61.4.46.89.84,1.45,1.1,1.23.56,2.64.56,3.87,0,.56-.26,1.06-.64,1.45-1.1.41-.47.72-1.02.91-1.61.21-.62.32-1.27.32-1.93h0Z" fill="#617792"></path><path d="M90.3,60.17h-1.13v-11.62h6.78v1.04h-5.6v4.03h5.2v1.06h-5.2l-.05,5.5Z" fill="#617792"></path><path d="M101.59,60.17h-1.13v-10.59h-3.71v-1.06h8.59v1.06h-3.75s0,10.59,0,10.59Z" fill="#617792"></path><path d="M110.19,60.17h-1.24l4.84-11.62h1.1l4.78,11.62h-1.26l-1.23-3.06h-5.81l-1.19,3.06ZM111.83,56.01h4.91l-2.45-6.19-2.46,6.19h0Z" fill="#617792"></path><path d="M121.29,48.51h3.7c.72,0,1.42.13,2.09.37.72.23,1.38.6,1.94,1.09.58.5,1.05,1.12,1.37,1.82.36.8.53,1.68.51,2.55.02.88-.15,1.74-.51,2.55-.32.7-.78,1.32-1.37,1.82-.56.49-1.22.86-1.94,1.09-.67.24-1.38.37-2.09.37h-3.7v-11.66h0ZM122.43,59.16h2.26c.76.02,1.5-.13,2.2-.42.59-.24,1.11-.61,1.55-1.08.41-.44.72-.96.92-1.52.42-1.14.42-2.38,0-3.53-.2-.56-.51-1.08-.92-1.52-.44-.46-.97-.83-1.55-1.08-.7-.28-1.44-.43-2.2-.41h-2.26v9.55Z" fill="#617792"></path><path d="M136.46,58.64h0l3.62-10.13h1.22l-4.27,11.62h-1.19l-4.25-11.62h1.23l3.64,10.13Z" fill="#617792"></path><path d="M143.98,59.11h5.97v1.06h-7.1v-11.62h6.91v1.04h-5.81v4h5.4v1.06h-5.4s.04,4.47.04,4.47Z" fill="#617792"></path><path d="M153.3,60.17h-1.13v-11.62h3.27c.51,0,1.02.05,1.52.16.44.1.84.28,1.21.53.35.25.62.58.8.97.19.46.29.95.28,1.44,0,.4-.07.8-.22,1.17-.14.34-.34.65-.6.91-.25.26-.56.47-.89.62-.37.15-.75.26-1.14.3l3.26,5.55h-1.39l-3.09-5.45h-1.94l.05,5.41h0ZM153.3,53.7h1.94c.74.05,1.48-.14,2.11-.52.5-.36.78-.95.75-1.56,0-.34-.06-.67-.2-.97-.14-.25-.33-.47-.57-.64-.27-.17-.57-.3-.88-.37-.38-.08-.77-.11-1.15-.11h-2.01l.03,4.17h0Z" fill="#617792"></path><path d="M164.99,60.17h-1.13v-10.59h-3.74v-1.06h8.6v1.06h-3.73v10.59Z" fill="#617792"></path><path d="M171.52,60.17h-1.15v-11.62h1.13l.02,11.62Z" fill="#617792"></path><path d="M179.89,50.38c-.25-.36-.58-.65-.97-.85-.42-.22-.89-.33-1.37-.32-.29,0-.57.05-.84.14-.28.09-.53.22-.77.4-.23.18-.43.43-.56.69-.15.3-.22.63-.21.97-.02.34.05.67.2.97.14.24.32.45.54.61.23.17.49.32.77.43l.91.33c.39.13.77.27,1.16.43.39.15.75.35,1.07.6.32.26.58.59.77.97.22.45.32.95.3,1.44,0,.52-.1,1.04-.32,1.5-.19.41-.47.77-.82,1.05-.35.27-.74.48-1.16.61-.43.14-.87.19-1.32.19-.33,0-.65-.04-.97-.11-.67-.14-1.29-.43-1.81-.86-.26-.22-.49-.47-.69-.76l.97-.76c.25.43.6.78,1.02,1.05.46.28,1,.43,1.54.42.29,0,.58-.05.86-.15.29-.09.56-.23.79-.43.24-.19.45-.44.59-.71.28-.61.28-1.33,0-1.94-.15-.27-.36-.5-.61-.68-.27-.18-.55-.34-.86-.46l-1.03-.36c-.37-.13-.73-.26-1.08-.42-.35-.15-.68-.35-.97-.6s-.51-.56-.68-.91c-.37-.9-.35-1.91.06-2.79.2-.38.49-.71.84-.97s.74-.46,1.15-.58c.41-.12.82-.17,1.24-.17.67-.02,1.34.13,1.94.42.47.22.89.55,1.22.97l-.9.64Z" fill="#617792"></path><path d="M184.5,60.17h-1.13v-11.62h1.13v11.62Z" fill="#617792"></path><path d="M195.36,58.43h0v-9.93h1.15v11.62h-1.42l-6.49-10.03h0v10.03h-1.13v-11.62h1.41l6.48,9.93h0Z" fill="#617792"></path><path d="M207.95,50.62c-.39-.42-.86-.75-1.39-.97-.58-.24-1.21-.37-1.84-.36-.67,0-1.33.14-1.94.42-.56.26-1.06.64-1.45,1.1-.43.47-.75,1.03-.97,1.62-.21.62-.32,1.28-.32,1.94s.11,1.32.32,1.94c.21.59.54,1.14.97,1.61.4.46.89.84,1.45,1.1.61.28,1.27.43,1.94.42.58,0,1.17-.07,1.73-.22.46-.11.88-.29,1.28-.54v-3.54h-2.61v-1.06h3.74v5.27c-.6.38-1.25.67-1.94.85-.72.19-1.45.29-2.2.28-.79,0-1.59-.15-2.32-.46-.7-.3-1.32-.73-1.84-1.28-.52-.56-.94-1.22-1.21-1.94-.57-1.58-.57-3.32,0-4.9.27-.72.69-1.38,1.22-1.94,1.08-1.13,2.59-1.76,4.15-1.73.79-.02,1.59.13,2.33.42.64.27,1.22.66,1.7,1.16l-.81.8h0Z" fill="#617792"></path></g><g><path d="M120.65,29.31v-1.86h-2.32v-2.9h-.08l-2.18.66h0v2.2h-3.44v-1.19c-.03-.47.1-.92.38-1.3.27-.3.66-.46,1.06-.43.35,0,.68.08.99.23h.09v-1.98h0c-.42-.13-.85-.2-1.29-.18-.63,0-1.27.14-1.83.45-.53.28-.96.71-1.25,1.24-.31.55-.46,1.18-.45,1.81v1.35h-1.62v1.86h1.62v7.87h2.32v-7.83h3.44v4.95c0,2.05.99,3.1,2.88,3.1.34,0,.66-.04.99-.11.25-.05.5-.12.72-.23h0v-1.88l-.1.06c-.15.09-.3.16-.47.21-.15.04-.3.07-.46.07-.37.03-.73-.1-.99-.36-.24-.37-.35-.81-.31-1.25v-4.57s2.28,0,2.28,0ZM103.49,35.52c-.75.04-1.49-.27-1.98-.83-.51-.67-.75-1.5-.7-2.34-.05-.86.2-1.7.7-2.4.5-.57,1.23-.89,1.98-.84.72-.04,1.43.26,1.9.8.51.68.75,1.53.69,2.38.06.85-.17,1.7-.65,2.41-.48.56-1.19.87-1.92.82M103.61,27.21c-1.4-.07-2.76.44-3.79,1.4-.94,1.04-1.44,2.41-1.37,3.81-.07,1.35.42,2.67,1.34,3.65.96.92,2.26,1.41,3.59,1.35,1.38.07,2.72-.45,3.71-1.42.94-1.02,1.44-2.39,1.38-3.78.07-1.35-.39-2.67-1.29-3.68-.95-.93-2.26-1.42-3.59-1.34M94.67,27.21c-.96-.04-1.91.26-2.69.83-.65.53-1.02,1.33-.99,2.16,0,.42.07.82.22,1.21.16.35.4.65.69.9.44.33.91.59,1.42.79.41.16.79.34,1.17.54.2.1.38.25.52.42.1.17.15.36.14.55,0,.65-.49.99-1.5.99-.44,0-.86-.09-1.27-.23-.47-.16-.9-.38-1.3-.66l-.09-.07v2.17h0c.4.17.8.3,1.23.38.44.1.87.16,1.32.16,1.01.05,2.01-.25,2.83-.83.68-.54,1.07-1.36,1.05-2.22.02-.6-.19-1.2-.56-1.66-.54-.56-1.23-.99-1.98-1.23-.49-.17-.95-.41-1.37-.71-.2-.2-.3-.48-.28-.75,0-.28.13-.54.35-.69.29-.2.64-.3.99-.28.4,0,.79.06,1.17.18.36.11.68.27.99.48l.1.07v-2.06h0c-.32-.14-.65-.24-.99-.3-.39-.08-.77-.12-1.17-.13M84.9,35.52c-.75.04-1.49-.27-1.98-.83-.51-.67-.75-1.5-.7-2.34-.05-.86.2-1.7.7-2.4.5-.57,1.23-.89,1.98-.84.72-.04,1.43.26,1.9.8.51.68.75,1.53.69,2.38.06.85-.17,1.7-.65,2.41-.48.56-1.19.87-1.92.82M85.03,27.21c-1.41-.08-2.77.43-3.8,1.4-.94,1.04-1.44,2.41-1.37,3.81-.07,1.35.42,2.67,1.34,3.65.95.91,2.24,1.4,3.56,1.35,1.38.07,2.72-.45,3.72-1.42.94-1.03,1.43-2.39,1.37-3.78.07-1.35-.39-2.67-1.29-3.68-.95-.92-2.24-1.41-3.56-1.34M76.32,29.13v-1.68h-2.25v9.73h2.29v-4.95c-.03-.73.17-1.46.57-2.07.33-.5.88-.78,1.48-.78.24,0,.47.04.69.1.19.04.37.12.54.22l.09.07v-2.33h0c-.29-.1-.58-.15-.89-.14-.55,0-1.1.19-1.53.54-.4.36-.7.8-.88,1.31h-.11,0ZM69.98,27.2c-.97-.02-1.93.21-2.78.67-.78.44-1.43,1.09-1.84,1.88-.43.87-.64,1.83-.62,2.8,0,.87.2,1.73.61,2.51.39.73.98,1.35,1.71,1.74.76.42,1.63.62,2.5.61.96.03,1.92-.2,2.76-.65h0v-2.13l-.1.07c-.34.25-.72.45-1.12.58-.36.13-.72.21-1.1.22-.78.02-1.54-.29-2.08-.84-.55-.63-.84-1.47-.79-2.31-.04-.87.26-1.72.82-2.38.55-.59,1.34-.91,2.15-.88.79,0,1.56.28,2.18.75l.1.07v-2.21h0c-.34-.17-.69-.29-1.06-.36-.42-.09-.85-.14-1.28-.14M63.21,27.46h-2.35v9.73h2.29v-9.75s.06.02.06.02ZM62.09,23.31c-.37,0-.72.13-.99.38-.28.26-.43.61-.41.99,0,.36.14.69.41.93.27.25.62.39.99.38.37,0,.72-.13.99-.38.27-.24.42-.57.41-.93.02-.38-.13-.73-.4-.99-.27-.26-.62-.4-.99-.39M56.39,26.73v10.43h2.34v-13.57h-3.3l-4.11,10.09-3.96-10.09h-3.37v13.57h2.14v-10.44h.07l4.21,10.44h1.66l4.15-10.44h.17Z" fill="#617792"></path><path d="M25.31,29.88h-10.8v-10.82h10.8v10.82Z" fill="#617792"></path><path d="M37.2,29.88h-10.8v-10.82h10.8v10.82Z" fill="#617792"></path><path d="M25.31,41.77h-10.8v-10.82h10.8v10.82Z" fill="#617792"></path><path d="M37.2,41.77h-10.8v-10.82h10.8v10.82Z" fill="#617792"></path></g><path d="M17.39,81.65v9.46h-3.16v-23.34h8.18c.99-.03,1.98.14,2.91.49.93.35,1.77.88,2.49,1.55.7.63,1.25,1.4,1.63,2.25.38.85.58,1.77.58,2.7s-.2,1.85-.58,2.7c-.38.85-.94,1.62-1.63,2.25-1.43,1.32-3.34,2.03-5.3,1.98l-5.11-.03ZM17.39,70.64v8.14h5.16c.56.01,1.12-.08,1.64-.28.52-.2,1-.5,1.4-.87.4-.38.72-.83.94-1.33.22-.5.33-1.04.33-1.58-.02-1.09-.48-2.13-1.28-2.89-.8-.76-1.88-1.19-3-1.18h-5.19Z" fill="#617792"></path><path d="M38.26,74.62c1.97-.11,3.9.52,5.4,1.77.67.63,1.19,1.39,1.53,2.23.34.84.49,1.75.44,2.65v9.84h-2.98v-2.23h-.13c-.53.85-1.28,1.55-2.17,2.03-.89.48-1.9.73-2.92.72-1.65.06-3.27-.49-4.53-1.54-.59-.48-1.06-1.08-1.37-1.75-.32-.68-.47-1.42-.46-2.16-.03-.76.13-1.51.47-2.2.34-.69.83-1.29,1.46-1.74,1.5-1.03,3.31-1.55,5.15-1.46,1.57-.06,3.12.27,4.51.97v-.68c0-.51-.1-1.01-.32-1.47-.22-.46-.54-.87-.94-1.19-.82-.72-1.88-1.11-2.98-1.09-.81-.02-1.61.17-2.33.54-.72.37-1.32.91-1.76,1.58l-2.71-1.7c.74-1.03,1.75-1.86,2.91-2.4,1.17-.55,2.46-.79,3.75-.71ZM34.28,86.21c-.01.39.07.78.25,1.14.18.35.44.66.76.89.68.52,1.53.8,2.4.78,1.3,0,2.55-.51,3.47-1.41.49-.41.88-.91,1.16-1.48.27-.57.42-1.18.42-1.81-1.17-.8-2.58-1.19-4.01-1.11-1.12-.04-2.23.26-3.16.88-.38.22-.69.53-.92.9-.23.37-.35.79-.37,1.22Z" fill="#617792"></path><path d="M49.12,75.14h3v2.59h.13c.92-2.04,2.81-3.07,5.67-3.07h.65v3.07l-1.39-.14c-1.31-.04-2.58.42-3.54,1.29-.46.42-.81.93-1.05,1.5-.24.57-.35,1.17-.34,1.79v8.8h-3.13v-15.83ZM68.36,91.31c-1.24.04-2.44-.4-3.35-1.21-.45-.44-.8-.96-1.03-1.54-.23-.58-.34-1.19-.31-1.81v-8.88h-2.89v-2.73h2.89v-4.9h3.16v4.9h4.03v2.73h-4.1v7.95c-.05.38-.02.77.09,1.14.11.37.29.72.54,1.02.38.36.9.57,1.44.57.24,0,.49-.03.73-.08.23-.05.45-.13.66-.22l.96,2.67c-.91.28-1.86.41-2.81.37Z" fill="#617792"></path><path d="M73.88,75.14h2.95v2.21h.13c.53-.83,1.27-1.51,2.16-1.97.93-.5,1.97-.76,3.03-.77.86-.06,1.72.05,2.53.34.81.29,1.54.74,2.16,1.33,1.15,1.33,1.71,3.04,1.58,4.78v10.04h-3.16v-9.84c.06-.53,0-1.07-.18-1.58-.18-.51-.48-.96-.87-1.34-.39-.38-.86-.66-1.39-.84-.52-.17-1.08-.23-1.62-.16-.59,0-1.18.12-1.71.37-.53.25-1,.62-1.36,1.08-.83.98-1.27,2.21-1.25,3.47v8.84h-3.16l.16-15.97Z" fill="#617792"></path><path d="M99.47,91.63c-1.11.03-2.22-.17-3.25-.58-1.03-.42-1.95-1.04-2.72-1.83-.79-.82-1.4-1.79-1.81-2.84-.4-1.05-.59-2.18-.55-3.3-.1-2.26.73-4.47,2.29-6.14.75-.76,1.65-1.36,2.64-1.78.99-.42,2.06-.64,3.14-.65,1.08-.01,2.15.18,3.16.58,1,.39,1.92.98,2.69,1.71,1.54,1.8,2.31,4.11,2.16,6.45v.32h-12.97c-.01.7.12,1.4.39,2.05.27.65.67,1.24,1.19,1.73.58.58,1.3,1.01,2.09,1.26.79.25,1.63.31,2.45.19.82-.13,1.59-.45,2.26-.93.67-.48,1.21-1.11,1.57-1.84l2.75,1.31c-.7,1.31-1.76,2.4-3.06,3.16-1.34.76-2.87,1.16-4.42,1.14ZM94.54,81.19h9.47c-.03-.53-.17-1.04-.41-1.51-.24-.47-.57-.89-.98-1.24-.94-.76-2.14-1.15-3.36-1.09-1.1-.02-2.16.35-3,1.04-.9.71-1.52,1.7-1.77,2.79h.05Z" fill="#617792"></path><path d="M113.09,91.11h-3.08v-15.97h2.95v2.59h.13c.37-.91,1.05-1.67,1.92-2.17.85-.56,1.85-.87,2.87-.89.78-.02,1.55.11,2.27.38l-.93,2.9c-.59-.18-1.2-.26-1.82-.23-.58,0-1.15.12-1.67.36-.52.24-.99.59-1.36,1.02-.85.86-1.31,2-1.29,3.19v8.8Z" fill="#617792"></path></svg>