<svg xmlns="http://www.w3.org/2000/svg" xmlns:xlink="http://www.w3.org/1999/xlink" id="a" data-name="Layer 1" viewBox="0 0 222 109"><defs><clipPath id="b"><rect x="20.88" y="15.67" width="179.99" height="77.89" fill="none"></rect></clipPath></defs><g clip-path="url(#b)"><g><path d="M63.18,70.62v12.67h-4.23v-31.27h10.95c1.33-.04,2.66.18,3.9.65,1.24.47,2.38,1.18,3.33,2.08.93.85,1.68,1.87,2.19,3.01.51,1.14.77,2.37.77,3.61s-.26,2.47-.77,3.61c-.51,1.14-1.26,2.17-2.19,3.01-1.91,1.76-4.47,2.72-7.11,2.65l-6.85-.04ZM63.18,55.87v10.9h6.92c.75.02,1.49-.11,2.19-.37.7-.27,1.34-.66,1.87-1.17.54-.51.97-1.12,1.26-1.79.29-.67.45-1.39.45-2.12-.03-1.46-.64-2.85-1.72-3.87-1.07-1.02-2.51-1.59-4.01-1.58h-6.96Z" fill="#617792"></path><path d="M91.13,61.2c2.63-.15,5.22.7,7.23,2.37.9.84,1.59,1.86,2.05,2.99.46,1.13.66,2.34.59,3.55v13.19h-4v-2.98h-.17c-.71,1.14-1.72,2.08-2.91,2.72-1.2.65-2.55.98-3.92.96-2.22.08-4.38-.66-6.07-2.06-.79-.64-1.42-1.44-1.84-2.35-.42-.91-.63-1.9-.61-2.9-.04-1.02.18-2.03.63-2.95.45-.92,1.12-1.72,1.95-2.34,2.01-1.39,4.44-2.07,6.89-1.95,2.1-.08,4.18.37,6.05,1.3v-.91c.01-.68-.14-1.35-.43-1.97-.29-.62-.72-1.16-1.26-1.59-1.09-.96-2.52-1.48-4-1.46-1.09-.02-2.16.23-3.12.72-.96.5-1.77,1.23-2.36,2.12l-3.64-2.28c1-1.38,2.34-2.49,3.9-3.22,1.56-.73,3.29-1.06,5.02-.95ZM85.8,76.73c-.02.53.09,1.05.33,1.52.24.47.59.88,1.02,1.19.91.7,2.05,1.07,3.21,1.05,1.75,0,3.42-.69,4.65-1.89.66-.54,1.18-1.22,1.55-1.98.36-.76.56-1.59.57-2.42-1.57-1.07-3.46-1.59-5.37-1.48-1.5-.06-2.99.35-4.23,1.17-.51.3-.93.71-1.23,1.21-.3.5-.47,1.06-.5,1.63Z" fill="#617792"></path><path d="M105.68,61.9h4.02v3.48h.17c1.23-2.74,3.76-4.11,7.59-4.11h.87v4.11l-1.86-.19c-1.75-.06-3.46.56-4.74,1.73-.61.57-1.09,1.25-1.41,2.01-.32.76-.47,1.57-.45,2.39v11.79h-4.19v-21.21ZM131.46,83.56c-1.66.05-3.26-.54-4.48-1.63-.6-.59-1.07-1.29-1.38-2.06-.31-.77-.45-1.6-.42-2.43v-11.89h-3.87v-3.66h3.87v-6.56h4.23v6.56h5.39v3.66h-5.5v10.66c-.06.51-.02,1.03.12,1.53.15.5.39.96.72,1.37.52.49,1.21.76,1.92.76.33,0,.65-.04.97-.1.3-.07.6-.17.89-.29l1.29,3.58c-1.21.38-2.49.55-3.76.49Z" fill="#617792"></path><path d="M138.86,61.9h3.95v2.96h.17c.71-1.11,1.71-2.02,2.9-2.63,1.24-.67,2.64-1.02,4.06-1.03,1.15-.08,2.31.07,3.39.46,1.08.39,2.07,1,2.89,1.78,1.53,1.78,2.29,4.08,2.11,6.4v13.45h-4.23v-13.19c.09-.71,0-1.44-.24-2.11-.24-.68-.64-1.29-1.17-1.8-.52-.51-1.16-.89-1.86-1.12-.7-.23-1.44-.31-2.17-.22-.8-.01-1.58.16-2.3.49-.72.34-1.34.83-1.83,1.44-1.11,1.31-1.7,2.96-1.67,4.65v11.85h-4.23l.21-21.4Z" fill="#617792"></path><path d="M173.14,83.99c-1.49.04-2.98-.23-4.35-.78-1.38-.56-2.62-1.39-3.64-2.45-1.06-1.1-1.88-2.4-2.42-3.81-.54-1.41-.79-2.91-.73-4.42-.13-3.03.97-5.98,3.07-8.23,1.01-1.01,2.21-1.82,3.54-2.38,1.33-.56,2.76-.85,4.21-.87,1.45-.02,2.89.24,4.23.77,1.34.53,2.57,1.31,3.6,2.3,2.06,2.42,3.1,5.51,2.9,8.64v.43h-17.38c-.01.94.16,1.87.53,2.74.36.87.9,1.66,1.59,2.32.78.77,1.74,1.35,2.8,1.69,1.06.34,2.18.42,3.28.25,1.1-.17,2.14-.6,3.03-1.24.89-.64,1.61-1.49,2.1-2.46l3.68,1.75c-.94,1.75-2.36,3.22-4.1,4.24-1.8,1.02-3.84,1.55-5.92,1.52ZM166.55,70h12.69c-.04-.7-.22-1.39-.54-2.03-.32-.63-.77-1.2-1.32-1.66-1.26-1.02-2.87-1.54-4.51-1.46-1.47-.03-2.9.47-4.02,1.4-1.2.95-2.04,2.27-2.37,3.74h.06Z" fill="#617792"></path><path d="M191.4,83.29h-4.12v-21.4h3.95v3.48h.17c.5-1.22,1.41-2.24,2.58-2.9,1.14-.75,2.48-1.16,3.85-1.19,1.04-.03,2.08.15,3.05.51l-1.25,3.89c-.79-.24-1.61-.35-2.43-.31-.77,0-1.54.17-2.24.49-.7.32-1.32.79-1.82,1.37-1.13,1.15-1.76,2.69-1.73,4.28v11.79Z" fill="#617792"></path><path d="M68.44,33.73v2.74h6.7c-.04.79-.25,1.56-.61,2.27-.36.71-.88,1.34-1.5,1.84-1.47,1.05-3.27,1.54-5.08,1.39-1.81-.15-3.51-.93-4.77-2.2-.69-.67-1.24-1.48-1.6-2.36-.36-.88-.54-1.83-.52-2.78-.02-.95.15-1.9.52-2.78.36-.88.91-1.69,1.6-2.36.68-.67,1.5-1.2,2.4-1.56.9-.35,1.87-.52,2.84-.5,1.88-.02,3.7.69,5.05,1.95l1.99-1.93c-.93-.88-2.03-1.58-3.24-2.05-1.21-.47-2.5-.7-3.8-.69-1.83-.05-3.64.38-5.24,1.23-1.6.87-2.93,2.14-3.85,3.68-.69,1.13-1.14,2.39-1.32,3.7s-.09,2.64.27,3.91c.36,1.27.98,2.46,1.82,3.49.84,1.03,1.89,1.89,3.08,2.52,1.57.91,3.37,1.38,5.2,1.38,1.26.04,2.52-.16,3.7-.6,1.18-.44,2.26-1.1,3.17-1.95.91-.86,1.63-1.89,2.1-3.04.47-1.15.68-2.38.63-3.61.06-.57.06-1.14,0-1.71h-9.54Z" fill="#617792"></path><path d="M85.66,31.76c-.88-.02-1.76.14-2.58.46-.82.32-1.56.81-2.18,1.42-.62.61-1.1,1.34-1.42,2.14-.32.8-.47,1.66-.44,2.52-.05.88.08,1.76.39,2.58.31.83.79,1.58,1.41,2.22.62.64,1.37,1.15,2.2,1.5.83.35,1.72.53,2.63.53s1.8-.18,2.63-.53c.83-.35,1.58-.86,2.2-1.5.62-.64,1.1-1.39,1.41-2.22.31-.83.44-1.7.39-2.58.01-.85-.15-1.69-.48-2.48s-.82-1.5-1.44-2.1c-.62-.6-1.36-1.07-2.17-1.39-.81-.32-1.68-.48-2.55-.46v-.1ZM88.3,40.97c-.34.35-.75.63-1.2.82-.45.19-.94.29-1.44.29s-.98-.1-1.44-.29c-.45-.19-.86-.47-1.2-.82-.7-.72-1.08-1.68-1.08-2.67-.02-.51.07-1.02.25-1.49.19-.48.47-.91.83-1.28.34-.35.75-.63,1.21-.82.46-.19.95-.29,1.44-.29s.99.1,1.44.29c.46.19.87.47,1.21.82.36.37.64.81.83,1.28.19.48.27.99.25,1.49,0,.99-.4,1.95-1.1,2.67Z" fill="#617792"></path><path d="M125.54,25.34h-2.9v18.91h2.9v-18.91Z" fill="#617792"></path><path d="M100.14,31.76c-.89-.02-1.76.14-2.59.46-.82.32-1.56.81-2.19,1.42-.62.61-1.11,1.34-1.43,2.15-.32.8-.47,1.66-.44,2.52,0,1.71.7,3.36,1.94,4.57,1.25,1.21,2.93,1.89,4.7,1.89s3.45-.68,4.7-1.89c1.25-1.21,1.94-2.85,1.94-4.57,0-.85-.16-1.69-.49-2.48-.33-.79-.82-1.5-1.44-2.1-.62-.6-1.35-1.07-2.16-1.39-.81-.32-1.67-.48-2.55-.47v-.1ZM102.76,40.97c-.33.36-.74.64-1.19.83-.45.19-.94.29-1.43.28-.5.01-1-.08-1.46-.28-.46-.19-.87-.48-1.21-.84-.7-.72-1.08-1.68-1.08-2.67-.02-.51.07-1.02.25-1.49.19-.48.47-.91.83-1.28.34-.36.75-.64,1.21-.84.46-.19.96-.29,1.46-.28.5,0,.99.08,1.45.28.46.19.86.48,1.2.83.36.37.64.81.83,1.28.19.48.27.99.25,1.49,0,1-.39,1.95-1.1,2.67Z" fill="#617792"></path><path d="M133.51,42.08c-.67.02-1.33-.15-1.9-.49-.57-.34-1.02-.85-1.29-1.44l8.84-3.56-.32-.74c-.22-.59-.53-1.14-.91-1.65-.36-.5-.8-.94-1.29-1.32-.48-.33-1.01-.59-1.57-.76-.59-.21-1.21-.31-1.84-.31-.84-.03-1.67.11-2.45.42-.78.3-1.48.77-2.06,1.35-.6.63-1.07,1.37-1.37,2.18-.3.81-.44,1.67-.4,2.53-.02.85.14,1.69.46,2.48.32.79.81,1.51,1.42,2.11.7.67,1.54,1.18,2.46,1.49.92.31,1.9.43,2.88.33.97-.1,1.91-.4,2.75-.89.84-.49,1.56-1.15,2.1-1.94l-2.26-1.52c-.34.54-.82.98-1.39,1.28-.57.3-1.21.46-1.86.44ZM130.85,35.32c.31-.34.68-.62,1.11-.81.42-.19.88-.3,1.35-.32.53,0,1.06.13,1.52.39.41.22.74.57.93.99l-5.92,2.39c-.03-.48.05-.97.23-1.42.17-.45.44-.87.79-1.21Z" fill="#617792"></path><path d="M117.88,33.2c-.43-.48-.97-.86-1.58-1.1-.6-.25-1.26-.36-1.91-.34-.84,0-1.67.17-2.44.5-.77.33-1.46.81-2.02,1.41-1.21,1.22-1.88,2.84-1.88,4.54s.67,3.32,1.88,4.54c.57.6,1.26,1.07,2.03,1.4.77.33,1.6.49,2.43.5.66.03,1.31-.09,1.92-.34.6-.25,1.14-.64,1.57-1.12v.66c0,2.7-1.16,4.11-3.53,4.11-.72.01-1.42-.21-1.99-.64-.59-.42-1.05-.99-1.33-1.65l-2.54,1.03c.25.55.57,1.07.95,1.54.39.46.84.86,1.35,1.19.51.33,1.07.6,1.65.78.62.18,1.26.27,1.9.27.87.03,1.73-.13,2.53-.46.8-.33,1.52-.82,2.1-1.44,1.18-1.39,1.78-3.16,1.67-4.96v-11.5h-2.77v1.07ZM117.06,40.99c-.31.35-.69.63-1.12.82-.43.19-.9.28-1.37.27-.49,0-.98-.08-1.44-.28-.45-.19-.86-.48-1.19-.83-.71-.75-1.09-1.74-1.06-2.76-.03-1.03.36-2.02,1.08-2.78.32-.36.73-.65,1.17-.84.45-.2.94-.29,1.43-.29.48,0,.95.09,1.38.28.43.19.81.48,1.12.83.74.79,1.13,1.82,1.1,2.88-.02,1-.41,1.96-1.1,2.7Z" fill="#617792"></path><path d="M41.94,15.67h-21.06v77.89h21.06V15.67Z" fill="#617792"></path></g></g></svg>