<svg xmlns="http://www.w3.org/2000/svg" width="141" height="38" viewBox="0 0 141 38" fill="none"><path d="M15.5622 4.3175C18.1423 4.80606 20.3947 6.23103 21.9509 8.22599C23.4252 10.0988 24.3262 12.5009 24.3262 15.0658C24.3262 16.7351 23.3843 19.3 21.6642 22.435C22.1966 23.3307 22.77 24.3078 23.4252 25.3663C25.5957 21.6207 27.2339 17.8344 27.2339 15.0658C27.2339 11.9309 26.251 9.04026 24.5719 6.71959C22.9747 4.52107 20.8042 2.77039 18.2242 1.83399C16.8318 1.264 15.2755 0.979004 13.6374 0.979004C6.10202 0.979004 0 7.28958 0 15.0658C0 20.725 6.83918 30.5369 10.8935 35.8704C11.5488 36.7661 12.5726 37.2547 13.6374 37.2547C14.7022 37.2547 15.726 36.7661 16.3813 35.8704C17.2413 34.7711 18.1832 33.4683 19.207 32.0433C18.5927 31.1476 18.0194 30.2519 17.4461 29.3563C16.4222 30.8219 15.3165 32.3283 14.1288 33.9162C13.9241 34.2011 13.4326 34.2011 13.1869 33.9162C6.75727 25.4885 2.94863 18.4451 2.94863 15.0658C2.94863 9.04026 7.74015 4.11394 13.6374 4.11394C14.2927 4.11394 14.907 4.19536 15.5622 4.3175Z" fill="white"></path><path d="M21.7874 32.0433C22.7703 33.4683 23.7531 34.7711 24.6131 35.8704C25.2684 36.7661 26.2922 37.2547 27.357 37.2547C28.4218 37.2547 29.4456 36.7661 30.1009 35.8704C34.1143 30.5369 40.9535 20.6843 40.9535 15.0658C40.9535 7.28958 34.8514 0.979004 27.3161 0.979004C25.6779 0.979004 24.1217 1.264 22.6883 1.83399C23.6712 2.56683 24.6131 3.3811 25.3913 4.3175C26.0056 4.19536 26.6608 4.11394 27.3161 4.11394C33.2133 4.11394 38.0048 8.99955 38.0048 15.0658C38.0048 18.4451 34.1962 25.4885 27.7665 33.9162C27.5618 34.2011 27.0703 34.2011 26.8246 33.9162C25.637 32.3283 24.5312 30.8219 23.5074 29.3563C21.7874 26.832 20.3131 24.5114 19.2073 22.435C17.4873 19.2593 16.5863 16.6944 16.5863 15.0658C16.5863 12.4602 17.4873 10.0988 18.9616 8.22599C18.1835 7.57458 17.2825 7.08602 16.2997 6.71959C14.6206 9.04026 13.6377 11.9309 13.6377 15.0658C13.6377 17.8344 15.2758 21.6207 17.4463 25.3663C18.7978 27.687 20.3131 29.967 21.7874 32.0433Z" fill="white"></path><path d="M62.9447 12.2566V23.7378C62.9447 29.0306 60.119 31.7991 54.6722 31.7991C49.1845 31.7991 46.5635 29.0713 46.5635 23.6971V12.0938C46.5635 11.3609 47.1368 10.7095 47.9968 10.7095C48.8978 10.7095 49.5121 11.3609 49.5121 12.0938V23.6157C49.5121 27.5649 51.1502 29.1934 54.6722 29.1934C58.1532 29.1934 59.9961 27.6463 59.9961 23.6971V12.2566C59.9961 11.4017 60.6104 10.7095 61.4295 10.7095C62.3304 10.7095 62.9447 11.4017 62.9447 12.2566Z" fill="white"></path><path d="M79.7765 24.3485C79.7765 29.1934 77.1146 31.799 72.364 31.799C71.1354 31.799 70.1116 31.5955 69.2925 31.3105V35.5854C69.2925 36.3182 68.7601 36.9289 67.8591 36.9289C66.9991 36.9289 66.4258 36.3182 66.4258 35.5854V18.5672C66.4258 17.8343 66.9582 17.3458 67.6544 17.3458C68.4325 17.3458 68.8011 17.8343 68.883 18.5672L68.9649 19.6665C69.8249 18.3229 71.2992 17.3458 73.5107 17.3458C77.4012 17.3458 79.7765 19.585 79.7765 24.3485ZM76.9098 24.5113C76.9098 21.2136 75.4355 19.7886 73.0192 19.7886C70.8487 19.7886 69.2925 21.295 69.2925 23.2492H69.2516V28.7863C70.0297 29.112 70.9716 29.4377 72.2002 29.4377C75.1079 29.397 76.9098 27.972 76.9098 24.5113Z" fill="white"></path><path d="M100.048 16.2058C100.048 16.9794 99.4749 17.3865 98.8196 17.3865C98.0825 17.3865 97.7549 17.1422 97.5501 16.4908C97.0996 15.473 96.1986 13.2745 92.6357 13.2745C88.6223 13.2745 86.0013 15.7987 86.0013 21.01C86.0013 26.4656 88.8271 29.1527 93.4138 29.1527C95.7482 29.1527 97.2225 28.4606 97.9187 28.2163C98.2053 28.1349 98.4511 28.0534 98.7787 28.0534C99.4749 28.0534 99.9254 28.5827 99.9254 29.2341C99.9254 29.9263 99.6387 30.252 99.1063 30.5777C97.7958 31.3105 95.3386 31.7991 93.0862 31.7991C86.8613 31.7991 83.0117 28.1349 83.0117 21.2136C83.0117 14.4144 86.7794 10.7095 92.5538 10.7095C97.7549 10.7095 100.048 13.763 100.048 16.2058Z" fill="white"></path><path d="M103.12 13.0302C103.12 11.9309 103.898 11.1167 104.963 11.1167C106.069 11.1167 106.806 11.9309 106.806 13.0302C106.806 14.1295 106.069 14.9437 104.963 14.9437C103.898 14.9437 103.12 14.1295 103.12 13.0302ZM106.314 18.6079V30.4148C106.314 31.1477 105.782 31.7584 104.881 31.7584C104.021 31.7584 103.448 31.1477 103.448 30.4148V18.6079C103.448 17.8751 104.021 17.2644 104.881 17.2644C105.741 17.3051 106.314 17.8751 106.314 18.6079Z" fill="white"></path><path d="M114.341 19.9107V27.4834C114.341 28.9084 114.997 29.2748 115.98 29.2748C116.225 29.2748 116.471 29.2341 116.962 29.1934C117.781 29.0712 118.191 29.6819 118.191 30.2926C118.191 30.8626 117.863 31.4326 117.167 31.5548C116.594 31.6362 115.939 31.7176 115.283 31.7176C112.785 31.7176 111.557 30.8219 111.557 27.687V19.9107H110.123C109.509 19.9107 108.977 19.4222 108.977 18.73C108.977 17.9972 109.509 17.5493 110.123 17.5493H111.557V14.8215C111.557 14.0887 112.13 13.478 112.99 13.478C113.85 13.478 114.382 14.0887 114.382 14.8215V17.5493H117.085C117.741 17.5493 118.232 17.9972 118.232 18.73C118.232 19.4222 117.741 19.9107 117.085 19.9107H114.341Z" fill="white"></path><path d="M133.139 18.4858C133.139 18.73 133.057 19.015 132.934 19.2593L126.873 33.6311C125.849 36.0332 124.334 36.8475 122.122 36.8475C121.631 36.8475 121.385 36.8068 121.18 36.8068C120.443 36.7254 119.993 36.2775 119.993 35.5854C119.993 34.934 120.402 34.364 121.14 34.4047C121.344 34.4047 121.549 34.4454 122 34.4454C123.392 34.4454 124.211 33.9976 124.621 32.8983L125.235 31.3512L119.993 19.3C119.87 19.0557 119.788 18.7708 119.788 18.5265C119.788 17.7122 120.443 17.2644 121.14 17.2644C121.672 17.2644 122.245 17.5901 122.491 18.2008L126.586 28.0127L130.518 18.1601C130.764 17.5494 131.255 17.3051 131.869 17.3051C132.443 17.2644 133.139 17.6715 133.139 18.4858Z" fill="white"></path><path d="M140.797 19.0965C140.797 19.3001 140.674 19.4222 140.47 19.4222C140.265 19.4222 140.142 19.3001 140.142 19.0965L140.101 17.2644L139.364 18.8929C139.282 19.0558 139.159 19.1372 139.036 19.1372C138.913 19.1372 138.79 19.0558 138.709 18.9336L137.93 17.2237L137.889 19.0965C137.889 19.3001 137.767 19.4222 137.562 19.4222C137.357 19.4222 137.234 19.3001 137.234 19.0965L137.275 17.0201H136.251V19.0965C136.251 19.3001 136.128 19.4222 135.924 19.4222C135.719 19.4222 135.596 19.3001 135.596 19.0965V17.0201H134.859C134.695 17.0201 134.572 16.898 134.572 16.7351C134.572 16.5723 134.695 16.4908 134.859 16.4908H137.603C137.93 16.4908 138.176 16.6537 138.34 16.898L138.995 18.3636L139.691 16.8573C139.814 16.613 140.019 16.4908 140.224 16.4908C140.51 16.4908 140.715 16.6944 140.715 17.0201L140.797 19.0965Z" fill="white"></path></svg>