<svg xmlns="http://www.w3.org/2000/svg" id="a" data-name="Layer 1" viewBox="0 0 95 95"><rect x="7.34" y="7.39" width="79.75" height="79.97" rx="11" ry="11" fill="#fff" stroke-width="0"></rect><g id="b" data-name="01. Facebook"><path id="c" data-name="Icon" d="M39.92,48.91c-.26,0-5.81,0-8.37,0-1.32,0-1.79-.47-1.79-1.8,0-3.41,0-6.81,0-10.22,0-1.31.5-1.81,1.8-1.81,2.56,0,8.08,0,8.36,0,0-.23,0-5.15,0-7.41,0-3.35.6-6.55,2.3-9.48,1.74-3,4.27-5.06,7.52-6.25,2.08-.76,4.24-1.07,6.45-1.07,2.76,0,5.52,0,8.28,0,1.19,0,1.71.53,1.72,1.72,0,3.2,0,6.41,0,9.61,0,1.21-.51,1.69-1.72,1.71-2.26.02-4.53,0-6.79.1-2.28,0-3.48,1.12-3.48,3.48-.05,2.5-.02,5-.02,7.59.21,0,6.71,0,9.75,0,1.38,0,1.85.47,1.85,1.86,0,3.39,0,6.77,0,10.16,0,1.37-.44,1.8-1.83,1.8-3.04,0-9.51,0-9.79,0v27.41c0,1.46-.46,1.93-1.9,1.93-3.52,0-7.03,0-10.55,0-1.27,0-1.77-.5-1.77-1.77,0-8.93,0-27.26,0-27.57h0Z" fill="#3d6ad6" stroke-width="0"></path></g></svg>