<svg xmlns="http://www.w3.org/2000/svg" id="a" data-name="Layer 1" viewBox="0 0 95 95"><rect x="8.11" y="8.46" width="79.75" height="79.97" rx="11" ry="11" fill="#fff" stroke-width="0"></rect><g><g><path d="M38.45,48.88c-5.49,0-9.92,4.43-9.84,9.87.05,3.49,1.97,6.51,4.8,8.2-.96-1.47-1.53-3.22-1.55-5.1-.08-5.43,4.35-9.87,9.84-9.87,1.08,0,2.12.18,3.1.49v-10.88c-1.01-.15-2.05-.23-3.1-.23h-.15v8c-.97-.31-2.01-.49-3.1-.49Z" fill="#f00044" stroke-width="0"></path><path d="M62.17,16.25h-2.89c.81,4.07,3.1,7.61,6.28,10.02-2.09-2.77-3.37-6.23-3.39-10.02Z" fill="#f00044" stroke-width="0"></path><path d="M78.72,32.81c-1.07,0-2.09-.11-3.11-.3v7.8c-3.68,0-7.24-.72-10.6-2.15-2.16-.92-4.18-2.09-6.03-3.51l.05,24.04c-.03,5.41-2.16,10.47-6.03,14.3-3.15,3.11-7.14,5.1-11.46,5.73-1.01.15-2.05.23-3.1.23-4.62,0-9.03-1.5-12.61-4.27.41.49.84.96,1.31,1.42,3.89,3.84,9.06,5.96,14.56,5.96,1.04,0,2.08-.08,3.1-.23,4.33-.64,8.31-2.62,11.46-5.73,3.87-3.82,6-8.89,6.03-14.3l-.2-24.04c1.84,1.42,3.85,2.61,6.03,3.51,3.37,1.42,6.93,2.15,10.6,2.15" fill="#f00044" stroke-width="0"></path></g><path d="M27.11,47.35c3.85-3.82,8.97-5.95,14.43-5.99v-2.88c-1.01-.15-2.05-.23-3.1-.23-5.51,0-10.69,2.12-14.58,5.99-3.82,3.8-6.01,8.99-6,14.38,0,5.43,2.15,10.53,6.03,14.38.62.61,1.26,1.18,1.93,1.69-3.05-3.64-4.72-8.18-4.73-12.96.01-5.39,2.19-10.58,6.01-14.38Z" fill="#08fff9" stroke-width="0"></path><path d="M75.61,32.51v-2.89h-.03c-3.76,0-7.22-1.24-10-3.35,2.42,3.19,5.96,5.46,10.03,6.24Z" fill="#08fff9" stroke-width="0"></path><path d="M41.14,71.42c1.28.07,2.51-.11,3.65-.47,3.92-1.28,6.74-4.93,6.74-9.23v-16.08s.01-29.38.01-29.38h7.73c-.2-1.01-.31-2.04-.32-3.11h-10.65v45.45c-.01,4.3-2.84,7.95-6.76,9.23-1.14.38-2.37.55-3.65.47-1.64-.09-3.16-.58-4.49-1.37,1.66,2.57,4.5,4.31,7.73,4.49h0Z" fill="#08fff9" stroke-width="0"></path><path d="M41.55,78.72c4.33-.64,8.31-2.62,11.46-5.73,3.87-3.82,6-8.89,6.03-14.3l-.05-24.04c1.84,1.42,3.85,2.61,6.03,3.51,3.37,1.42,6.93,2.15,10.6,2.15v-7.8c-4.07-.78-7.61-3.05-10.03-6.24-3.19-2.41-5.49-5.95-6.28-10.02h-7.74v45.45c-.01,4.3-2.84,7.95-6.76,9.23-1.14.38-2.37.55-3.65.47-3.24-.18-6.07-1.92-7.73-4.47-2.82-1.68-4.74-4.72-4.8-8.2-.08-5.43,4.35-9.87,9.84-9.87,1.08,0,2.12.18,3.1.49v-8c-5.46.04-10.58,2.16-14.43,5.99-3.82,3.8-6.01,8.99-6,14.37,0,4.78,1.66,9.33,4.73,12.96,3.6,2.77,7.99,4.27,12.61,4.27,1.04.01,2.08-.07,3.1-.22h0Z" fill="#000" stroke-width="0"></path></g></svg>