<svg xmlns="http://www.w3.org/2000/svg" xmlns:xlink="http://www.w3.org/1999/xlink" id="a" data-name="Layer 1" viewBox="0 0 95 95"><defs><clipPath id="b"><rect x="15.28" y="12.98" width="64.67" height="64.67" fill="none" stroke-width="0"></rect></clipPath><clipPath id="c"><rect x="15.28" y="12.98" width="64.67" height="64.67" fill="none" stroke-width="0"></rect></clipPath></defs><rect x="7.39" y="7.85" width="79.75" height="79.97" rx="11" ry="11" fill="#fff" stroke-width="0"></rect><g clip-path="url(#b)"><g clip-path="url(#c)"><path d="M16.72,59.2l21.58-38.49c2.97-5.3,9.55-7.11,14.69-4.05,5.14,3.06,6.9,9.83,3.94,15.12l-21.58,38.49c-2.97,5.3-9.55,7.11-14.69,4.05-5.14-3.06-6.9-9.83-3.94-15.12Z" fill="#fbbc05" fill-rule="evenodd" stroke-width="0"></path><path d="M78.5,59.03c2.97,5.3,1.21,12.07-3.94,15.12-5.14,3.06-11.72,1.24-14.69-4.05l-21.58-38.49c-2.97-5.3-1.21-12.07,3.94-15.12,5.14-3.06,11.72-1.24,14.69,4.05l21.58,38.49Z" fill="#4285f4" fill-rule="evenodd" stroke-width="0"></path><ellipse cx="26.1" cy="64.85" rx="10.75" ry="11.07" fill="#34a853" stroke-width="0"></ellipse></g></g></svg>