<svg xmlns="http://www.w3.org/2000/svg" id="a" data-name="Layer 1" viewBox="0 0 136.51 40"><path d="m133.41,7.22c0,.63-.5,1.13-1.15,1.13s-1.15-.5-1.15-1.13.51-1.12,1.15-1.12,1.15.5,1.15,1.12m-2.01,0c0,.5.37.89.87.89s.85-.4.85-.89-.36-.9-.86-.9-.87.4-.87.89m.69.59h-.26v-1.12c.1-.02.25-.03.43-.03.21,0,.31.03.39.08.06.05.11.14.11.25,0,.12-.1.22-.23.26h0c.11.05.17.14.2.29.03.17.05.24.08.28h-.28s-.05-.14-.09-.27c-.02-.12-.09-.18-.23-.18h-.12v.45Zm0-.63h.12c.14,0,.26-.05.26-.16,0-.1-.08-.17-.24-.17-.07,0-.12,0-.14.01v.32Z" fill="#142035"></path><path d="m124.85,6.3h-4.42l-6.1,15.11-6.11-15.11h-16.53v18.23l-5.15-7.03c3.14-1.56,4.71-3.54,4.71-5.92,0-3.52-2.01-5.29-6.04-5.29h-8.97v19.7h3.72V9.51h5.01c1.64,0,2.46.73,2.46,2.18,0,2.12-1.75,3.47-5.24,4.07v1.67l6,8.6h17.21v-3.17h-10.11v-5.17h9.45v-3.27h-9.41v-4.97h9.88l6.96,16.58h4.15l2.81-6.89,3.83-8.74,2.97,7.08h-3.97l-1.25,3.17h6.55l2.25,5.38h3.93l-8.55-19.73Z" fill="#142035"></path><path d="m76.9,35.36c-.5,0-.51,0-.51-.4v-5.87h2.29v.46h-1.75l.04.22v1.73l-.04.22h1.63v.5h-1.63l.04.22v2.92h-.07Z" fill="#142035"></path><path d="m79.57,28.99c.51,0,.51,0,.51.4v6.01q-.51,0-.51-.4v-6.01Z" fill="#142035"></path><path d="m80.79,36.7c.57,0,.87-.45.87-.99,0-.19,0-.22-.92-5.01q.5,0,.58.4l.61,3.66h.11l.64-4.07c.39,0,.46,0,.46.17,0,.12-.05.7-.84,4.5-.18.89-.19,1.74-1.51,1.74v-.41Z" fill="#142035"></path><path d="m88.27,35.36c-.5,0-.51,0-.51-.4v-2.52l.04-.22h-1.66l.03.22v2.52c0,.4,0,.4-.5.4h-.04v-6.27h.04c.5,0,.5,0,.5.4v2.01l-.03.22h1.66l-.04-.22v-2.41h.04c.5,0,.5,0,.5.4v5.87h-.03Z" fill="#142035"></path><path d="m91.25,33.21c0-1.53.04-2.12-.67-2.12-.67,0-.68.5-.68,1.82,0,1.46-.03,2.05.68,2.05.65,0,.67-.51.67-1.76m-1.86-.2c0-1.73,0-2.38,1.19-2.38s1.18.65,1.18,2.38,0,2.42-1.18,2.42-1.19-.69-1.19-2.42" fill="#142035"></path><path d="m96.46,33.04c0-1.7,0-1.95-.58-1.95l-.81.27.03.22v3.79q-.5,0-.5-.4v-1.92c-.02-1.25.06-1.95-.57-1.95l-.82.3.04.22v3.75q-.51,0-.51-.4v-4.27q.51,0,.51.26l.78-.32c.43,0,.77.17.92.37l.93-.37c1.09,0,1.1.26,1.1,2.42v2.32q-.52,0-.52-.4v-1.92Z" fill="#142035"></path><path d="m99.61,32.38c0-.84-.05-1.29-.5-1.29-.66,0-.66.45-.65,1.3l-.04.22h1.24l-.04-.23Zm.51,2.9c-.36.08-.65.15-1.02.15-1.21,0-1.21-.63-1.21-2.35s0-2.45,1.21-2.45c1,0,1,.69,1,1.93l.03.47-1.78.04.03.22c0,1.22,0,1.65.71,1.65.37,0,.68-.04,1.02-.11v.44Z" fill="#142035"></path><path d="m100.9,34.96c0-.22.18-.39.4-.39s.4.17.4.39-.18.4-.4.4-.4-.18-.4-.4" fill="#142035"></path><path d="m104.88,35.36c-.5,0-.51,0-.51-.4v-5.87h2.29v.46h-1.75l.03.22v1.73l-.03.22h1.63v.5h-1.63l.03.22v2.92h-.07Z" fill="#142035"></path><path d="m109.01,32.38c0-.84-.05-1.29-.5-1.29-.66,0-.66.45-.65,1.3l-.03.22h1.24l-.04-.23Zm.51,2.9c-.36.08-.65.15-1.02.15-1.21,0-1.21-.63-1.21-2.35s0-2.45,1.21-2.45c1,0,1,.69,1,1.93l.03.47-1.78.04.03.22c0,1.22,0,1.65.71,1.65.37,0,.68-.04,1.02-.11v.44Z" fill="#142035"></path><path d="m112.08,32.38c0-.84-.05-1.29-.51-1.29-.66,0-.66.45-.65,1.3l-.03.22h1.24l-.04-.23Zm.51,2.9c-.36.08-.65.15-1.02.15-1.21,0-1.21-.63-1.21-2.35s0-2.45,1.21-2.45c1,0,1,.69,1,1.93l.03.47-1.78.04.04.22c0,1.22,0,1.65.71,1.65.37,0,.68-.04,1.02-.11v.44Z" fill="#142035"></path><path d="m113.57,28.99c.51,0,.51,0,.51.4v6.01q-.51,0-.51-.4v-6.01Z" fill="#142035"></path><path d="m117.95,34.93c1.04,0,1.04-.39,1.04-1.25,0-1.05.02-1.46-.96-1.46h-.65l.03.22v2.28l-.03.22h.57Zm-.26-3.21c1.04,0,1.04-.17,1.04-1.03s0-1.2-1.04-1.2h-.3l.03.22v1.79l-.03.22h.3Zm-.82,3.65v-6.28l.91-.09c1.52,0,1.52.66,1.52,1.7,0,.63,0,.99-.27,1.24.53.29.53,1.04.53,1.75,0,1.04-.02,1.75-1.61,1.75l-1.08-.06Z" fill="#142035"></path><path d="m122.03,32.38c0-.84-.05-1.29-.5-1.29-.66,0-.66.45-.65,1.3l-.03.22h1.24l-.04-.23Zm.51,2.9c-.36.08-.65.15-1.02.15-1.21,0-1.21-.63-1.21-2.35s0-2.45,1.21-2.45c1,0,1,.69,1,1.93l.04.47-1.78.04.03.22c0,1.22,0,1.65.71,1.65.37,0,.68-.04,1.02-.11v.44Z" fill="#142035"></path><path d="m124.3,35.41c-.85,0-.85-.46-.85-2.03v-2l.04-.22h-.37v-.47h.37l-.04-.3v-.38q.51,0,.51.4l-.04.29h.8c0,.41,0,.47-.42.47h-.38l.04.22v2c0,1.18,0,1.58.35,1.58h.59v.4l-.6.04Z" fill="#142035"></path><path d="m126.29,35.41c-.85,0-.85-.46-.85-2.03v-2l.04-.22h-.37v-.47h.37l-.04-.3v-.38q.51,0,.51.4l-.04.29h.8c0,.41,0,.47-.42.47h-.38l.04.22v2c0,1.18,0,1.58.35,1.58h.59v.4l-.6.04Z" fill="#142035"></path><path d="m129.09,32.38c0-.84-.05-1.29-.5-1.29-.66,0-.66.45-.65,1.3l-.03.22h1.24l-.04-.23Zm.51,2.9c-.36.08-.65.15-1.02.15-1.21,0-1.21-.63-1.21-2.35s0-2.45,1.21-2.45c1,0,1,.69,1,1.93l.04.47-1.78.04.03.22c0,1.22,0,1.65.71,1.65.37,0,.68-.04,1.02-.11v.44Z" fill="#142035"></path><path d="m130.53,30.69q.51,0,.51.26v.1l.7-.42c.16,0,.31.04.43.06q0,.4-.43.4l-.74.41.04.22v3.65q-.51,0-.51-.4v-4.27Z" fill="#142035"></path><path d="m132.72,34.96c0-.22.18-.39.4-.39s.4.17.4.39-.18.4-.4.4-.4-.18-.4-.4" fill="#142035"></path><path d="m68.72,6.06c-.15,0-62.96,0-62.96,0l4.61,4.64h38.7l1.52,1.31H13.92l2.9,2.98h39.13l1.18,1.12H20.33l3.35,3.54s39.36,0,39.41,0c-.68.95-1.62,1.71-3.04,2.24-.89.34-1.75.71-2.65,1.04-.97.36-1.85,1.11-2.61,1.82-1.16,1.09-2,2.61-3.02,3.83-3.39,4.05-9.33,4.22-14.2,4.72-2.5.26-18.42.44-20.94.49,0-.57.22-1.56-.36-1.91-.87-.53-1.69.56-2.34.93-1.14.64-2.52.58-3.66,1.19-.65.35-1.23.86-1.65,1.47h21.03c6.06,0,17.63.29,23.4-1.89,3.63-1.37,6.88-3.61,9.4-6.55,2.12-2.48,3.57-5.46,6.02-7.66,1.19-1.07,3.79-2.92,2.67-4.81-.44-.74-1.64-1.27-2.94-1.69.07-.1.12-.18.19-.28,1.77-.19,3.39-.06,3.39-.06h.91v-.82h.73c-.91-1.27.63-3.17.63-3.17,1.47-2.07-.65-2.47-5.35-2.47" fill="#142035"></path></svg>