<svg xmlns="http://www.w3.org/2000/svg" id="a" data-name="Layer 1" viewBox="0 0 123.14 40"><g><path d="m47.42,24.42h-1.68v1.61h1.68c.46,0,.9-.3.9-.81s-.44-.8-.9-.8Z" fill="#142035"></path><path d="m29.47,24.42h-1.82v1.61h1.82c.48,0,.87-.32.87-.8s-.38-.81-.87-.81Z" fill="#142035"></path><polygon points="56.34 14.08 58.35 14.08 57.34 10.84 56.34 14.08" fill="#142035"></polygon><path d="m2.67,2.81v34.55h90.26L120.71,2.89l-118.04-.08Zm46.19,5.59h2.76v9.19h-2.76v-9.19Zm-25.27,0h7.15v2.31h-4.3v1.07h4.2v2.31h-4.2v1.17l4.94.03v2.31s-7.79-.03-7.79-.03v-9.19Zm-10.38,0h2.63v3.25h3.11v-3.25h2.63v9.19h-2.63v-3.51h-3.11v3.51h-2.63v-9.19Zm-8.26,0h7.63v2.42h-2.43v6.76h-2.76v-6.76h-2.44v-2.42Zm8.38,22.81l-7.58.09v-9.19h7.09v2.31h-4.26v1.07h4.16v2.31h-4.16v1.17l4.75.08v2.15Zm7.07.09l-1.67-2.81-1.67,2.81-3.58-.07,3.37-4.64-2.84-4.48h3.23l1.47,2.62,1.45-2.62h3.26l-2.84,4.46,3.6,4.77-3.8-.05Zm9.43-2.95h-2.19v2.95h-2.88v-9.19h5.07c2.22,0,3.42,1.43,3.42,3.15s-1.2,3.09-3.42,3.09Zm4.1,2.95v-9.19h6.91v2.31h-4.15v1.07h4.05v2.31h-4.05v1.17l4.77.03.04,2.23-7.57.05Zm6.36-13.75l-1.57-5.76v5.8h-2.76v-9.19h3.81l1.6,4.68,1.6-4.68h3.81v9.19h-2.76v-5.8l-1.48,5.73-2.25.03Zm7.69,13.75l-1.26-2.95h-1v2.95h-2.76v-9.19h4.86c2.13,0,3.28,1.43,3.28,3.15,0,1.58-.67,2.5-1.39,2.86l1.97,3.08-3.7.09Zm7.65,0h-2.76v-9.19h2.76v9.19Zm-.34-13.71h-2.89l3.25-9.19h3.36l3.25,9.19h-2.89l-.34-1.18h-3.38l-.34,1.18Zm2.24,13.71v-9.19h7.12v2.31h-4.28v1.07h4.18v2.31h-4.18v1.17l4.91.03.04,2.23-7.8.05Zm8.21-13.71h-2.76v-9.19h3.81l1.6,4.68,1.6-4.68h3.81v9.19h-2.76v-5.8l-1.48,5.73-2.25.03-1.57-5.76v5.8Zm9.62,13.71h-2.64l-3.35-4.93v4.93h-2.75v-9.19h2.83l3.16,4.63v-4.63h2.75v9.19Zm.78-22.9h2.76v9.19h-2.76v-9.19Zm5.29,20.76c.89,0,1.6-.62,1.83-1.34l2.37,1.1c-.53,1.23-1.75,2.69-4.2,2.69-2.78,0-4.94-1.93-4.94-4.75s2.16-4.75,4.94-4.75c2.46,0,3.66,1.41,4.2,2.67l-2.37,1.12c-.23-.72-.94-1.34-1.83-1.34-1.26,0-2.14,1.02-2.14,2.3s.89,2.3,2.14,2.3Zm5.28,2.14v-9.19h6.91v2.31h-4.15v1.07h4.05v2.31h-4.05v1.17l4.77.03.04,2.23-7.57.05Z" fill="#142035"></path></g><g opacity=".08"><polygon points="37.87 30.49 37.87 30.03 37.87 30.03 37.87 30.49" fill="#d0d2d3"></polygon><polygon points="33.94 31.29 33.94 30.04 34.88 30.03 27.65 30.03 27.65 31.31 24.77 31.31 24.77 30.04 26.19 30.03 23.23 30.03 24.22 31.34 20.41 31.29 19.66 30.03 20.38 30.03 17.82 30.03 17.08 31.29 13.49 31.22 14.37 30.03 13.34 30.03 13.34 31.2 5.76 31.29 5.76 30.03 2.67 30.03 2.67 37.46 37.87 37.46 37.87 31.26 33.94 31.29" fill="#d0d2d3"></polygon></g><path d="m2.67,2.81v7.12c.41,0,2.28,0,2.28,0,0,0,.01-1.08.01-1.55h7.63v1.54h.61s0-1.53,0-1.53h2.63v1.54h-2.63s5.75,0,5.75,0v-1.54h2.63v1.53h-2.63s4.64,0,4.64,0v-1.53h7.15v1.52h-7.15s12.38,0,12.38,0v-1.54h1.87v1.53s-1.87,0-1.87,0h1.88V2.81H2.67Z" fill="#d0d2d3" opacity=".08"></path><g opacity=".08"><path d="m29.84,22.1c1.45,0,2.33.52,2.91,1.38h1.2v-1.38h3.83v-4.52h-1.8v-1.53h-4.57l-.02,1.55-7.8-.03v-1.53h-7.75v1.54h-2.63v-1.54H2.67v7.43h3.09v-1.38h7.09v1.38h3.1-1.05s-.87-1.38-.87-1.38h3.23l.79,1.38h1.37l.76-1.39h3.26l-.87,1.39h2.19v-1.38s5.07,0,5.07,0Zm-19.68-6.05v1.53h-2.76v-1.53h1.01m13.17,1.54h-2.63v-1.54h2.63v1.54Z" fill="#d0d2d3"></path></g></svg>