<svg xmlns="http://www.w3.org/2000/svg" id="a" data-name="Layer 1" viewBox="0 0 145.62 40"><g><rect x="4.89" y="3.99" width="32.53" height="32.53" fill="none" stroke="#142035" stroke-miterlimit="10" stroke-width="1.18"></rect><line x1="8.81" y1="3.98" x2="8.88" y2="36.5" fill="none" stroke="#142035" stroke-miterlimit="10" stroke-width="1.18"></line><line x1="12.9" y1="3.98" x2="12.96" y2="36.5" fill="none" stroke="#142035" stroke-miterlimit="10" stroke-width="1.18"></line><line x1="16.98" y1="3.98" x2="17.04" y2="36.5" fill="none" stroke="#142035" stroke-miterlimit="10" stroke-width="1.18"></line><line x1="21.07" y1="3.98" x2="21.13" y2="36.5" fill="none" stroke="#142035" stroke-miterlimit="10" stroke-width="1.18"></line><line x1="25.15" y1="3.98" x2="25.21" y2="36.5" fill="none" stroke="#142035" stroke-miterlimit="10" stroke-width="1.18"></line><line x1="29.24" y1="3.98" x2="29.3" y2="36.5" fill="none" stroke="#142035" stroke-miterlimit="10" stroke-width="1.18"></line><line x1="33.32" y1="3.98" x2="33.38" y2="36.5" fill="none" stroke="#142035" stroke-miterlimit="10" stroke-width="1.18"></line><line x1="4.89" y1="15.96" x2="8.85" y2="15.96" fill="none" stroke="#142035" stroke-miterlimit="10" stroke-width="1.18"></line><line x1="8.85" y1="32.35" x2="12.8" y2="32.35" fill="none" stroke="#142035" stroke-miterlimit="10" stroke-width="1.18"></line><line x1="17.19" y1="25.57" x2="21.15" y2="25.57" fill="none" stroke="#142035" stroke-miterlimit="10" stroke-width="1.18"></line><line x1="25.13" y1="10.8" x2="29.09" y2="10.8" fill="none" stroke="#142035" stroke-miterlimit="10" stroke-width="1.18"></line><line x1="33.35" y1="19.52" x2="37.31" y2="19.52" fill="none" stroke="#142035" stroke-miterlimit="10" stroke-width="1.18"></line></g><g><path d="m47.42,27.85c-.12,0-.18-.07-.18-.21v-14.7c0-.14.06-.21.18-.21h7.79c.14,0,.21.07.21.21v2.45c0,.14-.07.21-.21.21h-4.95v3.11h3.85c.12,0,.18.07.18.21v2.5c0,.14-.06.21-.18.21h-3.85v3.37h4.95c.14,0,.21.07.21.21v2.45c0,.14-.07.21-.21.21h-7.79Zm1.15-1.49c0,.12.06.18.18.18h5.27c.11,0,.15-.05.14-.14-.02-.09-.06-.14-.14-.14h-5.15v-5.98h4.21c.08,0,.11-.05.11-.16s-.04-.16-.11-.16h-4.21v-5.68h5.15c.08,0,.12-.05.14-.15.01-.1-.03-.15-.14-.15h-5.27c-.12,0-.18.06-.18.18v12.18Z" fill="#142035"></path><path d="m66.57,12.94c0-.14.07-.21.21-.21h2.61c.14,0,.21.07.21.21v10.35c0,1.66-.44,2.88-1.33,3.64-.89.76-2.18,1.15-3.89,1.15-.81,0-1.54-.08-2.19-.25-.65-.17-1.2-.44-1.65-.82-.45-.38-.8-.88-1.04-1.49-.24-.61-.37-1.35-.37-2.22v-10.35c0-.14.07-.21.21-.21h2.63c.14,0,.21.07.21.21v9.62c0,.5.06.91.19,1.23.13.31.29.56.49.73.2.18.42.3.66.37.24.07.48.1.71.1h.27c.72,0,1.24-.22,1.57-.66.33-.44.49-1.03.49-1.76v-9.62Zm-6.02,10.17c0,1.04.32,1.89.96,2.55.64.66,1.51,1,2.61,1h.57c.55,0,1.05-.09,1.49-.27.44-.18.82-.44,1.13-.76.31-.32.55-.69.72-1.12.17-.43.25-.89.25-1.4v-8.91c0-.11-.05-.16-.14-.17-.09,0-.14.05-.14.17v8.91c0,.47-.08.91-.24,1.31-.16.4-.39.74-.68,1.03s-.64.52-1.05.68c-.41.16-.86.24-1.35.24h-.57c-.96,0-1.75-.29-2.37-.87-.62-.58-.93-1.37-.93-2.38v-8.91c0-.11-.05-.16-.14-.16s-.14.05-.14.16v8.91Z" fill="#142035"></path><path d="m82.3,21.87c-.34.69-.81,1.18-1.42,1.47l1.92,4.24c.03.08.03.14,0,.19-.03.05-.08.08-.16.08h-2.82c-.08,0-.13-.04-.16-.11l-1.79-3.89h-1.17v3.8c0,.14-.07.21-.21.21h-2.63c-.11,0-.16-.07-.16-.21v-14.7c0-.14.05-.21.16-.21h4.76c1.28,0,2.28.35,3,1.05.72.7,1.08,1.73,1.08,3.07v2.89c0,.4-.03.78-.1,1.14-.07.37-.17.7-.31.98Zm-6.92.66h3.3l1.92,3.96c.03.06.09.08.17.06.08-.02.11-.09.08-.19l-1.92-3.89c.9-.12,1.53-.42,1.88-.89.35-.47.53-1.14.53-1.99v-2.86c0-.63-.12-1.12-.37-1.49-.24-.37-.53-.64-.87-.82-.34-.18-.67-.3-1-.34-.33-.05-.58-.07-.77-.07h-3.09s-.06.02-.09.05-.05.06-.05.09v12.32c0,.08.05.11.14.11s.14-.04.14-.11v-3.92Zm5.68-2.95c0,.58-.08,1.05-.25,1.4-.17.35-.39.62-.66.8-.27.18-.59.31-.94.37-.35.06-.71.09-1.08.09h-2.75v-7.95h2.95c.61,0,1.1.09,1.47.27.37.18.64.4.82.65.18.25.3.52.35.8.05.28.08.52.08.7v2.86Zm-1.35-2.04c0-.4-.04-.71-.13-.95-.08-.24-.22-.42-.4-.54-.18-.12-.42-.2-.72-.23-.3-.03-.66-.05-1.09-.05h-.66v5.06h.66c.37,0,.69-.01.97-.03.28-.02.52-.09.72-.21.2-.11.35-.29.46-.54.11-.24.17-.59.18-1.03v-1.49Z" fill="#142035"></path><path d="m91.73,12.53c1.95,0,3.36.46,4.21,1.37.67.73,1.01,1.85,1.01,3.37v6.02c0,1.56-.34,2.69-1.01,3.41-.44.46-1.01.8-1.69,1.03-.69.23-1.53.34-2.52.34s-1.87-.11-2.55-.34c-.68-.23-1.24-.57-1.68-1.03-.34-.37-.59-.83-.77-1.39-.18-.56-.26-1.23-.26-2.03v-6.02c0-.78.09-1.44.26-1.98.18-.54.43-1.01.77-1.41.44-.46,1.01-.8,1.69-1.02.69-.22,1.53-.33,2.54-.33Zm-3.82,10.58c0,.53.07,1.02.22,1.47.14.44.38.83.7,1.17.61.61,1.49.92,2.63.92h.6c1.08,0,1.95-.32,2.59-.95.64-.63.96-1.5.96-2.6v-5.68c0-1.18-.3-2.07-.9-2.68-.6-.61-1.49-.92-2.65-.92h-.6c-1.18,0-2.06.31-2.66.92-.6.61-.89,1.5-.89,2.68v5.68Zm3.55,3.25c-1.07,0-1.89-.28-2.45-.85-.58-.58-.87-1.38-.87-2.4v-5.68c0-1.1.28-1.93.85-2.48.56-.56,1.39-.84,2.47-.84h.6c2.17,0,3.25,1.11,3.25,3.32v5.68c0,.49-.08.94-.23,1.35-.15.41-.38.77-.69,1.08-.31.26-.65.46-1.04.61-.39.15-.82.22-1.29.22h-.6Zm2.45-8.34c0-.5-.06-.91-.18-1.23-.12-.31-.28-.56-.48-.74-.2-.18-.42-.31-.66-.37-.24-.06-.49-.09-.73-.09h-.27c-.73,0-1.26.22-1.57.65-.31.44-.47,1.03-.47,1.77v4.58c0,.5.06.92.18,1.24.12.32.28.57.47.74.19.18.41.3.65.37.24.07.49.1.73.1h.27c.73,0,1.26-.23,1.57-.68.31-.45.48-1.04.49-1.77v-4.58Z" fill="#142035"></path><path d="m105.89,12.73c1.28,0,2.28.35,3,1.05.72.7,1.08,1.73,1.08,3.07v2.89c0,1.24-.35,2.23-1.06,2.98-.71.75-1.71,1.12-3.01,1.12h-1.92v3.8c0,.14-.07.21-.21.21h-2.63c-.11,0-.16-.07-.16-.21v-14.7c0-.14.05-.21.16-.21h4.76Zm2.7,3.98c0-.63-.11-1.12-.32-1.49-.21-.37-.48-.64-.79-.82-.31-.18-.64-.3-.98-.34-.34-.05-.65-.07-.9-.07h-3.09s-.06.02-.09.05-.05.06-.05.09v12.32c0,.08.05.11.14.11s.14-.04.14-.11v-3.89h2.75c1.01,0,1.79-.21,2.36-.64.56-.43.85-1.21.85-2.34v-2.86Zm-3-2.43c.64,0,1.14.09,1.5.27.36.18.63.4.8.65.18.25.29.52.33.8.05.28.07.52.07.7v2.86c0,.58-.08,1.05-.25,1.4-.17.35-.39.62-.66.8-.27.18-.58.31-.93.37-.34.06-.7.09-1.06.09h-2.75v-7.95h2.95Zm1.37,3.25c0-.4-.05-.71-.14-.94-.09-.23-.23-.4-.42-.53-.19-.12-.44-.2-.73-.23-.3-.03-.65-.05-1.04-.05h-.66v5.04h.66c.32,0,.62-.02.9-.06.28-.04.53-.12.74-.25.21-.13.38-.31.5-.54.12-.23.18-.54.18-.94v-1.51Z" fill="#142035"></path><path d="m113.37,27.85c-.12,0-.18-.07-.18-.21v-14.7c0-.14.06-.21.18-.21h2.61c.14,0,.21.07.21.21v14.7c0,.14-.07.21-.21.21h-2.61Zm1.19-1.4c0,.11.04.16.13.16s.13-.05.13-.16v-12.34c0-.08-.04-.11-.13-.11s-.13.04-.13.11v12.34Z" fill="#142035"></path><path d="m126.66,12.94c0-.14.07-.21.21-.21h2.63c.14,0,.21.07.21.21v14.7c0,.14-.07.21-.21.21h-2.54c-.11,0-.18-.04-.21-.11l-3.34-7.53v7.44c0,.14-.07.21-.21.21h-2.61c-.12,0-.18-.07-.18-.21v-14.7c0-.14.06-.21.18-.21h2.7c.06,0,.11.04.16.11l3.21,7.4v-7.31Zm1.65,1.17c0-.08-.05-.12-.15-.14-.1-.01-.15.03-.15.14v11.77l-5.98-11.82s-.08-.07-.15-.07-.1.04-.1.11v12.34c0,.11.05.16.14.16s.14-.05.14-.16v-11.75l5.95,11.79c.05.08.11.11.18.1.08,0,.11-.05.11-.13v-12.37Z" fill="#142035"></path><path d="m134.19,27.85c-.12,0-.18-.07-.18-.21v-14.7c0-.14.06-.21.18-.21h7.79c.14,0,.21.07.21.21v2.45c0,.14-.07.21-.21.21h-4.95v3.11h3.85c.12,0,.18.07.18.21v2.5c0,.14-.06.21-.18.21h-3.85v3.37h4.95c.14,0,.21.07.21.21v2.45c0,.14-.07.21-.21.21h-7.79Zm1.15-1.49c0,.12.06.18.18.18h5.27c.11,0,.15-.05.14-.14-.02-.09-.06-.14-.14-.14h-5.15v-5.98h4.21c.08,0,.11-.05.11-.16s-.04-.16-.11-.16h-4.21v-5.68h5.15c.08,0,.12-.05.14-.15.01-.1-.03-.15-.14-.15h-5.27c-.12,0-.18.06-.18.18v12.18Z" fill="#142035"></path></g><g><path d="m48.59,14.18c0-.12.06-.18.18-.18h5.27c.11,0,.15.05.14.15-.02.1-.06.15-.14.15h-5.15v5.68h4.21c.08,0,.11.05.11.16s-.04.16-.11.16h-4.21v5.98h5.15c.08,0,.12.05.14.14.01.09-.03.14-.14.14h-5.27c-.12,0-.18-.06-.18-.18v-12.18Z" fill="#fff"></path><path d="m60.59,14.2c0-.11.05-.16.14-.16s.14.05.14.16v8.91c0,1.01.31,1.8.93,2.38.62.58,1.41.87,2.37.87h.57c.49,0,.94-.08,1.35-.24s.76-.39,1.05-.68.52-.63.68-1.03c.16-.4.24-.83.24-1.31v-8.91c0-.12.05-.18.14-.17.09,0,.14.07.14.17v8.91c0,.5-.08.97-.25,1.4-.17.43-.41.8-.72,1.12-.31.32-.69.57-1.13.76-.44.18-.94.27-1.49.27h-.57c-1.1,0-1.97-.33-2.61-1-.64-.66-.96-1.51-.96-2.55v-8.91Z" fill="#fff"></path><path d="m75.45,26.45c0,.08-.05.11-.14.11s-.14-.04-.14-.11v-12.32s.01-.06.05-.09.06-.05.09-.05h3.09c.18,0,.44.02.77.07.33.05.66.16,1,.34.34.18.63.46.87.82.24.37.37.86.37,1.49v2.86c0,.86-.18,1.52-.53,1.99-.35.47-.98.77-1.88.89l1.92,3.89c.03.11,0,.17-.08.19-.08.02-.14,0-.17-.06l-1.92-3.96h-3.3v3.92Zm5.68-9.73c0-.18-.03-.42-.08-.7-.05-.28-.17-.55-.35-.8-.18-.25-.46-.47-.82-.65-.37-.18-.86-.27-1.47-.27h-2.95v7.95h2.75c.37,0,.73-.03,1.08-.09.35-.06.66-.18.94-.37.27-.18.5-.45.66-.8.17-.35.25-.82.25-1.4v-2.86Z" fill="#fff"></path><path d="m88,17.43c0-1.18.3-2.07.89-2.68.6-.61,1.48-.92,2.66-.92h.6c1.16,0,2.04.31,2.65.92.6.61.9,1.5.9,2.68v5.68c0,1.1-.32,1.97-.96,2.6-.64.63-1.5.95-2.59.95h-.6c-1.15,0-2.02-.31-2.63-.92-.32-.34-.55-.72-.7-1.17-.15-.44-.22-.93-.22-1.47v-5.68Zm4.14,8.93c.47,0,.9-.07,1.29-.22.39-.14.74-.35,1.04-.61.31-.31.53-.66.69-1.08.15-.41.23-.86.23-1.35v-5.68c0-2.21-1.08-3.32-3.25-3.32h-.6c-1.08,0-1.91.28-2.47.84-.56.56-.85,1.39-.85,2.48v5.68c0,1.02.29,1.82.87,2.4.56.56,1.38.85,2.45.85h.6Z" fill="#fff"></path><path d="m108.7,19.58c0,1.13-.28,1.91-.85,2.34-.56.43-1.35.64-2.36.64h-2.75v3.89c0,.08-.05.11-.14.11s-.14-.04-.14-.11v-12.32s.01-.06.05-.09.06-.05.09-.05h3.09c.26,0,.56.02.9.07.34.05.67.16.98.34.31.18.58.46.79.82.21.37.32.86.32,1.49v2.86Zm-5.95-5.29v7.95h2.75c.37,0,.72-.03,1.06-.09.34-.06.65-.18.93-.37.27-.18.5-.45.66-.8.17-.35.25-.82.25-1.4v-2.86c0-.18-.02-.42-.07-.7-.05-.28-.16-.55-.33-.8-.18-.25-.44-.47-.8-.65-.36-.18-.86-.27-1.5-.27h-2.95Z" fill="#fff"></path><path d="m114.56,14.13c0-.08.04-.11.13-.11s.13.04.13.11v12.34c0,.11-.04.16-.13.16s-.13-.05-.13-.16v-12.34Z" fill="#fff"></path><path d="m128.3,26.47c0,.08-.04.12-.11.13-.08,0-.14-.03-.18-.1l-5.95-11.79v11.75c0,.11-.05.16-.14.16s-.14-.05-.14-.16v-12.34c0-.08.03-.11.1-.11s.12.02.15.07l5.98,11.82v-11.77c0-.11.05-.15.15-.14.1.02.15.06.15.14v12.37Z" fill="#fff"></path><path d="m135.33,14.14c0-.12.06-.18.18-.18h5.27c.11,0,.15.05.14.15-.02.1-.06.15-.14.15h-5.15v5.68h4.21c.08,0,.11.05.11.16s-.04.16-.11.16h-4.21v5.98h5.15c.08,0,.12.05.14.14.01.09-.03.14-.14.14h-5.27c-.12,0-.18-.06-.18-.18v-12.18Z" fill="#fff"></path></g></svg>