<svg xmlns="http://www.w3.org/2000/svg" id="a" data-name="Layer_1" viewBox="0 0 118.73 40"><path d="M18.38,1.39c-1.79,0-3.5.42-5.08,1.19,0,0,0-.02,0-.02-.21.11-.42.23-.62.35-1.08.6-2.1,1.38-3.03,2.29-1.87,1.78-3.32,4.01-4.18,6.5-.98,2.52-1.53,5.36-1.53,8.36,0,10.29,6.48,18.67,14.46,18.67s14.46-8.38,14.46-18.67S26.36,1.39,18.38,1.39ZM29.73,29.99c-1.34-.38-2.75-.58-4.21-.58-3.25,0-6.26,1-8.76,2.7-1.41-.39-2.74-.98-3.95-1.73,3.38-2.9,7.77-4.65,12.57-4.65,2,0,3.93.31,5.75.88-.36,1.19-.81,2.31-1.34,3.36-.02.01-.03.02-.05.03ZM28.62,30.67c-2.26,1.28-4.87,2.01-7.65,2.01-1.01,0-1.99-.1-2.95-.28,2.2-1.31,4.76-2.06,7.49-2.06,1.06,0,2.1.12,3.1.33ZM25.37,24.78c-5.12,0-9.81,1.91-13.38,5.06-.99-.7-1.9-1.51-2.7-2.41,3.94-3.87,9.33-6.26,15.27-6.26,2.59,0,5.07.45,7.38,1.29-.11,1.11-.31,2.2-.57,3.24-1.9-.59-3.91-.91-6-.91ZM32.06,20.06c0,.48-.02.96-.04,1.43-2.34-.81-4.85-1.26-7.46-1.26-1.44,0-2.84.14-4.21.39,1.65-3.29,5.06-5.55,8.98-5.55.77,0,1.52.09,2.24.25.32,1.51.49,3.1.49,4.74ZM6.22,11.89c.9-2.27,2.16-4.27,3.68-5.85.97-.97,2.07-1.82,3.26-2.51,1.61-.87,3.37-1.36,5.22-1.36,6.05,0,11.2,5.17,13,12.32-.66-.13-1.35-.2-2.05-.2-4.44,0-8.27,2.69-9.93,6.53-3.83.89-7.29,2.76-10.11,5.32-.11-.72-.17-1.46-.17-2.22,0-5.49,3.02-10.29,7.48-12.83-.1.44-.16.9-.16,1.37,0,1.78.77,3.38,1.99,4.49l.76.59.35-.89c.17-.56.26-1.15.26-1.77,0-1.67-.67-3.18-1.76-4.28.42-.05.85-.15,1.27-.3,1.67-.6,2.92-1.86,3.56-3.38l.3-.91-.96-.03c-.58.03-1.17.14-1.75.35-1.51.54-2.67,1.62-3.35,2.94-.25-.42-.56-.83-.92-1.19-1.26-1.26-2.93-1.85-4.58-1.77l-.95.12.38.88c.28.52.63,1,1.06,1.43,1.03,1.03,2.34,1.61,3.68,1.75-4.55,2.75-7.6,7.74-7.6,13.44,0,.8.07,1.59.18,2.36-1.9-2.59-3.02-5.78-3.02-9.23,0-1.81.31-3.55.88-5.17ZM17.38,12.46c0-.37.04-.73.11-1.07.85.92,1.37,2.15,1.37,3.49,0,.37-.04.73-.11,1.07-.85-.92-1.37-2.15-1.37-3.49ZM17.94,9.68c.58-1.11,1.56-2.02,2.83-2.47.35-.12.7-.21,1.05-.25-.58,1.11-1.56,2.02-2.83,2.47-.35.12-.7.21-1.05.25ZM16.2,9.58c-1.25-.05-2.49-.55-3.44-1.5-.26-.26-.49-.54-.68-.84,1.25.05,2.49.55,3.44,1.5.26.26.49.54.68.84ZM18.38,37.95c-6.53,0-12.01-6.02-13.36-14.04.23.77.52,1.57.89,2.39,1.69,3.77,5.36,8.51,13.25,9.68l.14-.93c-5.98-.89-10.19-3.95-12.52-9.11-.37-.83-.67-1.65-.89-2.42,2.51,5.84,8.32,9.94,15.07,9.94,2.91,0,5.64-.76,8.01-2.1-2.51,4.02-6.32,6.58-10.59,6.58Z" fill="#142035"></path><g><path d="M40.62,10.22c.57,0,1.62.05,2.38.65.33.25.93.89.93,2.14,0,.51-.11,1.41-1.03,2.04,1.44.36,1.97,1.62,1.97,2.61s-.5,1.8-1.06,2.24c-.82.65-1.77.68-2.49.68h-2.58v-10.36h1.86ZM39.91,14.77h.87c.61,0,2.04-.12,2.04-1.72,0-1.71-1.68-1.74-2-1.74h-.9v3.46ZM39.91,19.49h1.32c.67,0,1.32-.05,1.82-.44.4-.3.68-.81.68-1.43,0-.82-.48-1.31-.89-1.52-.39-.22-.93-.31-1.76-.31h-1.18v3.7Z" fill="#142035"></path><path d="M49.57,10.22v10.36h-1.15v-10.36h1.15Z" fill="#142035"></path><path d="M58.31,12.27c-.14-.28-.37-.59-.61-.78-.2-.16-.57-.36-1.17-.36-1.03,0-1.74.64-1.74,1.6,0,.4.11.64.39.9.31.31.7.48,1.09.65l.99.44c.61.26,1.17.54,1.6.98.53.53.75,1.13.75,1.88,0,1.91-1.41,3.19-3.28,3.19-.68,0-1.54-.14-2.25-.84-.51-.5-.82-1.21-.96-1.83l1.12-.31c.08.54.33,1.01.62,1.32.45.45.96.57,1.49.57,1.41,0,2.08-1.01,2.08-2.05,0-.47-.14-.87-.51-1.21-.3-.28-.7-.47-1.24-.71l-.93-.44c-.4-.19-.92-.4-1.38-.85-.45-.44-.71-.92-.71-1.69,0-1.6,1.23-2.67,2.91-2.67.64,0,1.15.12,1.66.47.42.28.78.7,1.01,1.15l-.92.61Z" fill="#142035"></path><path d="M71.08,12.5c-.33-.33-.82-.71-1.35-.96-.54-.25-1.18-.4-1.79-.4-2.39,0-4.16,1.93-4.16,4.32,0,2.81,2.28,4.23,4.18,4.23.7,0,1.38-.2,1.93-.48.59-.3,1.01-.68,1.2-.87v1.43c-1.15.82-2.35,1.01-3.12,1.01-3.08,0-5.36-2.33-5.36-5.33s2.32-5.39,5.42-5.39c.62,0,1.82.08,3.06,1.03v1.43Z" fill="#142035"></path><path d="M80.34,17.66h-4.41l-1.24,2.92h-1.27l4.77-10.86,4.65,10.86h-1.27l-1.21-2.92ZM79.89,16.57l-1.74-4.15-1.77,4.15h3.51Z" fill="#142035"></path><path d="M86.93,16.12l-3.4-5.9h1.34l2.64,4.63,2.67-4.63h1.34l-3.43,5.9v4.46h-1.15v-4.46Z" fill="#142035"></path><path d="M94.4,20.58v-10.8l8.08,8.47v-8.03h1.15v10.83l-8.08-8.47v8h-1.15Z" fill="#142035"></path><path d="M113.11,11.3h-4.23v3.08h4.1v1.09h-4.1v4.02h4.23v1.09h-5.38v-10.36h5.38v1.09Z" fill="#142035"></path></g><g><path d="M40.23,27.98v1.72h-1.34v-5.18h2.14c.45,0,.92.09,1.31.47.4.39.48.82.48,1.26,0,.41-.05.89-.46,1.29-.4.4-.89.45-1.29.45h-.85ZM40.23,26.89h.45c.14,0,.4-.02.57-.16.16-.14.17-.35.17-.47,0-.14-.02-.33-.16-.47-.16-.16-.4-.19-.57-.19h-.46v1.29Z" fill="#142035"></path><path d="M49,28.83h-1.88l-.35.87h-1.42l1.99-5.18h1.47l1.95,5.18h-1.44l-.32-.87ZM48.64,27.8l-.58-1.68-.57,1.68h1.15Z" fill="#142035"></path><path d="M56.33,24.51c.39,0,.89.06,1.27.46.3.3.44.75.44,1.17,0,.44-.16.83-.41,1.08-.2.19-.47.31-.71.36l1.62,2.12h-1.67l-1.29-1.99v1.99h-1.34v-5.18h2.1ZM55.58,26.84h.26c.2,0,.49-.05.65-.21.1-.1.17-.27.17-.44s-.06-.33-.18-.44c-.12-.12-.35-.2-.64-.2h-.26v1.28Z" fill="#142035"></path><path d="M63.33,26.65l1.65-2.14h1.66l-2.06,2.45,2.25,2.73h-1.74l-1.76-2.25v2.25h-1.34v-5.18h1.34v2.14Z" fill="#142035"></path><path d="M75.92,24.51l1.24,3.15,1.26-3.15h1.46l-2.21,5.18h-1.05l-2.18-5.18h1.47Z" fill="#142035"></path><path d="M84.65,24.51v5.18h-1.34v-5.18h1.34Z" fill="#142035"></path><path d="M89.97,24.51v4.04h1.62v1.14h-2.96v-5.18h1.34Z" fill="#142035"></path><path d="M96.5,24.51v4.04h1.62v1.14h-2.96v-5.18h1.34Z" fill="#142035"></path><path d="M104.85,28.83h-1.88l-.35.87h-1.42l1.99-5.18h1.47l1.95,5.18h-1.44l-.32-.87ZM104.5,27.8l-.58-1.68-.57,1.68h1.15Z" fill="#142035"></path><path d="M110.24,28.14c.29.27.72.53,1.19.53.27,0,.43-.09.52-.18.08-.08.13-.19.13-.33,0-.1-.04-.22-.15-.31-.13-.12-.33-.17-.67-.27l-.35-.11c-.22-.07-.54-.19-.75-.42-.26-.29-.3-.65-.3-.92,0-.64.25-1.03.47-1.25.26-.26.7-.49,1.33-.49.51,0,1.11.16,1.6.42l-.54,1.05c-.4-.32-.71-.35-.89-.35-.13,0-.31.03-.44.16-.08.08-.13.16-.13.28,0,.09.02.16.07.23.04.05.13.14.45.23l.41.12c.33.1.67.22.94.51.26.28.33.57.33.92,0,.47-.12.93-.49,1.31-.44.44-.98.53-1.53.53-.33,0-.64-.03-1.02-.17-.09-.03-.41-.16-.78-.41l.57-1.09Z" fill="#142035"></path></g></svg>