<svg xmlns="http://www.w3.org/2000/svg" id="a" data-name="Layer 1" viewBox="0 0 105.29 38.18"><path d="M16.24,2.87c-1.61,0-3.16.38-4.59,1.08,0,0,0-.01,0-.02-.19.1-.38.21-.56.32-.98.55-1.9,1.24-2.73,2.07-1.69,1.61-2.99,3.62-3.77,5.86-.89,2.27-1.38,4.84-1.38,7.55,0,9.29,5.85,16.85,13.05,16.85s13.05-7.56,13.05-16.85S23.43,2.87,16.24,2.87ZM26.47,28.68c-1.21-.34-2.49-.52-3.8-.52-2.93,0-5.65.9-7.91,2.44-1.27-.36-2.47-.89-3.57-1.56,3.05-2.62,7.02-4.2,11.35-4.2,1.81,0,3.55.28,5.19.79-.32,1.07-.73,2.09-1.21,3.03-.01,0-.03.02-.04.03ZM25.47,29.3c-2.04,1.15-4.4,1.81-6.91,1.81-.91,0-1.8-.09-2.66-.25,1.98-1.18,4.29-1.86,6.76-1.86.96,0,1.9.1,2.8.3ZM22.54,23.99c-4.62,0-8.85,1.73-12.08,4.56-.89-.63-1.71-1.36-2.44-2.18,3.55-3.49,8.42-5.65,13.78-5.65,2.34,0,4.58.41,6.66,1.16-.1,1.01-.28,1.98-.52,2.92-1.71-.53-3.53-.82-5.41-.82ZM28.58,19.72c0,.43-.01.86-.04,1.29-2.11-.73-4.37-1.13-6.73-1.13-1.3,0-2.57.12-3.8.35,1.49-2.97,4.56-5.01,8.11-5.01.7,0,1.37.08,2.02.23.29,1.36.44,2.79.44,4.27ZM5.26,12.35c.81-2.05,1.95-3.85,3.32-5.28.88-.88,1.87-1.64,2.95-2.27,1.45-.79,3.04-1.22,4.71-1.22,5.47,0,10.11,4.67,11.73,11.12-.6-.12-1.22-.18-1.85-.18-4.01,0-7.46,2.43-8.97,5.89-3.46.81-6.58,2.49-9.13,4.8-.1-.65-.15-1.32-.15-2,0-4.96,2.72-9.29,6.75-11.58-.09.4-.14.81-.14,1.24,0,1.6.69,3.05,1.79,4.05l.68.53.32-.81c.15-.5.24-1.04.24-1.59,0-1.5-.61-2.87-1.59-3.86.38-.05.77-.14,1.15-.27,1.51-.54,2.64-1.68,3.21-3.05l.27-.82-.87-.03c-.53.03-1.06.13-1.58.31-1.36.49-2.41,1.46-3.02,2.65-.23-.38-.5-.75-.83-1.08-1.13-1.13-2.65-1.67-4.13-1.6l-.86.11.35.79c.25.47.57.9.96,1.29.93.93,2.11,1.45,3.33,1.58-4.11,2.48-6.86,6.99-6.86,12.13,0,.73.06,1.44.17,2.13-1.71-2.34-2.73-5.22-2.73-8.33,0-1.64.28-3.21.8-4.67ZM15.33,12.87c0-.33.04-.66.1-.97.77.83,1.24,1.94,1.24,3.15,0,.33-.04.66-.1.97-.77-.83-1.24-1.94-1.24-3.15ZM15.84,10.35c.52-1,1.41-1.82,2.55-2.23.31-.11.63-.19.95-.23-.52,1-1.41,1.82-2.55,2.23-.31.11-.63.19-.95.23ZM14.26,10.26c-1.13-.04-2.25-.49-3.11-1.35-.23-.23-.44-.49-.61-.76,1.13.04,2.25.49,3.11,1.35.23.23.44.49.61.76ZM16.24,35.87c-5.89,0-10.84-5.43-12.06-12.67.21.69.47,1.42.8,2.16,1.53,3.4,4.84,7.68,11.96,8.74l.12-.84c-5.4-.8-9.2-3.57-11.3-8.22-.34-.75-.6-1.49-.81-2.19,2.27,5.27,7.51,8.97,13.6,8.97,2.62,0,5.09-.69,7.23-1.89-2.27,3.62-5.71,5.94-9.56,5.94Z" fill="#142035" stroke-width="0"></path><g><path d="M36.31,10.84c.52,0,1.46.04,2.15.59.29.22.84.8.84,1.94,0,.46-.1,1.28-.93,1.84,1.3.32,1.78,1.46,1.78,2.36s-.45,1.63-.95,2.02c-.74.59-1.6.62-2.24.62h-2.33v-9.35h1.68ZM35.66,14.95h.79c.55,0,1.84-.11,1.84-1.56,0-1.54-1.51-1.57-1.81-1.57h-.81v3.13ZM35.66,19.21h1.19c.6,0,1.19-.04,1.64-.39.36-.27.62-.73.62-1.29,0-.74-.43-1.18-.8-1.37-.35-.2-.84-.28-1.58-.28h-1.07v3.34Z" fill="#142035" stroke-width="0"></path><path d="M44.39,10.84v9.35h-1.04v-9.35h1.04Z" fill="#142035" stroke-width="0"></path><path d="M52.27,12.69c-.13-.25-.34-.53-.55-.7-.18-.14-.52-.32-1.05-.32-.93,0-1.57.57-1.57,1.44,0,.36.1.57.35.81.28.28.63.43.98.59l.9.39c.55.24,1.05.49,1.44.88.48.48.67,1.02.67,1.7,0,1.72-1.28,2.87-2.96,2.87-.62,0-1.39-.13-2.03-.76-.46-.45-.74-1.09-.87-1.65l1.01-.28c.07.49.29.91.56,1.19.41.41.87.52,1.35.52,1.28,0,1.88-.91,1.88-1.85,0-.42-.13-.79-.46-1.09-.27-.25-.63-.42-1.12-.65l-.84-.39c-.36-.17-.83-.36-1.25-.77-.41-.39-.65-.83-.65-1.53,0-1.44,1.11-2.41,2.62-2.41.57,0,1.04.11,1.5.42.38.25.7.63.91,1.04l-.83.55Z" fill="#142035" stroke-width="0"></path><path d="M63.8,12.9c-.29-.29-.74-.65-1.22-.87-.49-.22-1.07-.36-1.61-.36-2.16,0-3.76,1.74-3.76,3.9,0,2.54,2.06,3.81,3.77,3.81.63,0,1.25-.18,1.74-.43.53-.27.91-.62,1.08-.79v1.29c-1.04.74-2.12.91-2.82.91-2.78,0-4.84-2.1-4.84-4.81s2.09-4.87,4.89-4.87c.56,0,1.64.07,2.76.93v1.29Z" fill="#142035" stroke-width="0"></path><path d="M72.15,17.56h-3.98l-1.12,2.64h-1.15l4.31-9.8,4.19,9.8h-1.15l-1.09-2.64ZM71.75,16.57l-1.57-3.74-1.6,3.74h3.17Z" fill="#142035" stroke-width="0"></path><path d="M78.1,16.17l-3.07-5.33h1.21l2.38,4.18,2.41-4.18h1.21l-3.1,5.33v4.02h-1.04v-4.02Z" fill="#142035" stroke-width="0"></path><path d="M84.85,20.19v-9.75l7.29,7.64v-7.25h1.04v9.77l-7.29-7.64v7.22h-1.04Z" fill="#142035" stroke-width="0"></path><path d="M101.73,11.82h-3.81v2.78h3.7v.98h-3.7v3.63h3.81v.98h-4.85v-9.35h4.85v.98Z" fill="#142035" stroke-width="0"></path></g><g><path d="M35.95,26.87v1.55h-1.21v-4.68h1.94c.41,0,.83.08,1.19.42.36.35.43.74.43,1.14,0,.37-.05.81-.41,1.16-.36.36-.8.41-1.16.41h-.76ZM35.95,25.89h.41c.13,0,.36-.01.51-.15.15-.13.15-.32.15-.43,0-.13-.01-.29-.14-.42-.14-.15-.36-.17-.52-.17h-.41v1.16Z" fill="#142035" stroke-width="0"></path><path d="M43.87,27.64h-1.7l-.32.79h-1.28l1.8-4.68h1.33l1.76,4.68h-1.3l-.29-.79ZM43.54,26.71l-.53-1.51-.51,1.51h1.04Z" fill="#142035" stroke-width="0"></path><path d="M50.49,23.74c.35,0,.8.06,1.14.41.27.27.4.68.4,1.05,0,.4-.14.75-.37.97-.18.18-.43.28-.65.32l1.47,1.91h-1.51l-1.16-1.8v1.8h-1.21v-4.68h1.89ZM49.81,25.84h.23c.18,0,.44-.05.59-.19.09-.09.15-.25.15-.39s-.06-.29-.16-.39c-.11-.11-.32-.18-.58-.18h-.23v1.16Z" fill="#142035" stroke-width="0"></path><path d="M56.8,25.67l1.49-1.93h1.5l-1.86,2.22,2.03,2.46h-1.57l-1.58-2.03v2.03h-1.21v-4.68h1.21v1.93Z" fill="#142035" stroke-width="0"></path><path d="M68.17,23.74l1.12,2.85,1.14-2.85h1.32l-1.99,4.68h-.95l-1.96-4.68h1.33Z" fill="#142035" stroke-width="0"></path><path d="M76.05,23.74v4.68h-1.21v-4.68h1.21Z" fill="#142035" stroke-width="0"></path><path d="M80.85,23.74v3.65h1.46v1.03h-2.67v-4.68h1.21Z" fill="#142035" stroke-width="0"></path><path d="M86.74,23.74v3.65h1.46v1.03h-2.67v-4.68h1.21Z" fill="#142035" stroke-width="0"></path><path d="M94.28,27.64h-1.7l-.32.79h-1.28l1.8-4.68h1.33l1.76,4.68h-1.3l-.29-.79ZM93.96,26.71l-.53-1.51-.51,1.51h1.04Z" fill="#142035" stroke-width="0"></path><path d="M99.14,27.02c.26.25.65.48,1.07.48.25,0,.39-.08.47-.16.07-.07.12-.18.12-.29,0-.09-.04-.2-.13-.28-.12-.11-.3-.15-.6-.25l-.32-.1c-.2-.06-.48-.17-.67-.38-.24-.26-.27-.59-.27-.83,0-.57.22-.93.43-1.13.24-.24.63-.44,1.2-.44.46,0,1,.15,1.44.38l-.48.95c-.36-.29-.64-.32-.8-.32-.12,0-.28.03-.4.14-.07.07-.12.15-.12.25,0,.08.01.15.06.21.04.04.12.13.41.21l.37.11c.29.09.6.2.85.46.24.25.3.51.3.83,0,.43-.11.84-.44,1.18-.4.4-.88.48-1.38.48-.29,0-.57-.03-.92-.15-.08-.03-.37-.14-.71-.37l.52-.98Z" fill="#142035" stroke-width="0"></path></g></svg>