<svg xmlns="http://www.w3.org/2000/svg" width="135" height="18" viewBox="0 0 135 18" fill="none"><g clip-path="url(#clip0_574_34)"><path d="M83.505 6.41845H78.0185L76.3175 1.0997L74.6165 6.41845H69.13L73.5623 9.70074L71.8852 14.9955L76.3175 11.7132L80.7498 14.9955L79.0488 9.67678L83.505 6.41845Z" fill="#FFBA40"></path></g><g clip-path="url(#clip1_574_34)"><path d="M66.505 6.41845H61.0185L59.3175 1.0997L57.6165 6.41845H52.13L56.5623 9.70074L54.8852 14.9955L59.3175 11.7132L63.7498 14.9955L62.0488 9.67678L66.505 6.41845Z" fill="#FFBA40"></path></g><g clip-path="url(#clip2_574_34)"><path d="M100.394 6.41845H94.9073L93.2063 1.0997L91.5053 6.41845H86.0188L90.4511 9.70074L88.774 14.9955L93.2063 11.7132L97.6386 14.9955L95.9375 9.67678L100.394 6.41845Z" fill="#FFBA40"></path></g><g clip-path="url(#clip3_574_34)"><path d="M117.283 6.41845H111.796L110.095 1.0997L108.394 6.41845H102.908L107.34 9.70074L105.663 14.9955L110.095 11.7132L114.528 14.9955L112.826 9.67678L117.283 6.41845Z" fill="#FFBA40"></path></g><g clip-path="url(#clip4_574_34)"><path d="M134.172 6.41845H128.685L126.984 1.0997L125.283 6.41845H119.797L124.229 9.70074L122.552 14.9955L126.984 11.7132L131.416 14.9955L129.715 9.67678L134.172 6.41845Z" fill="#FFBA40"></path></g><path d="M44.9329 11.2817L46.2214 12.1407C45.8032 12.7567 44.803 13.8135 43.0737 13.8135C40.9262 13.8135 39.3269 12.152 39.3269 10.0385C39.3269 7.78926 40.9432 6.26343 42.8928 6.26343C44.8538 6.26343 45.8145 7.82317 46.1253 8.6652L46.2949 9.0947L41.2427 11.1857C41.627 11.9429 42.226 12.3272 43.0737 12.3272C43.9214 12.3272 44.5091 11.909 44.9329 11.2817ZM40.9714 9.91978L44.3452 8.51827C44.1587 8.04922 43.6049 7.7158 42.9437 7.7158C42.1017 7.7158 40.9319 8.46176 40.9714 9.91978Z" fill="#FF302F"></path><path d="M36.8912 2.41498H38.5188V13.4688H36.8912V2.41498Z" fill="#20B15A"></path><path d="M34.3256 6.5573H35.8967V13.271C35.8967 16.057 34.2522 17.2042 32.3081 17.2042C30.4771 17.2042 29.3751 15.9723 28.9626 14.972L30.4037 14.373C30.6636 14.9889 31.2909 15.718 32.3081 15.718C33.5571 15.718 34.3256 14.9437 34.3256 13.497V12.9545H34.2691C33.8961 13.4066 33.1841 13.8135 32.2799 13.8135C30.3924 13.8135 28.6631 12.169 28.6631 10.0498C28.6631 7.91925 30.3924 6.25778 32.2799 6.25778C33.1784 6.25778 33.8961 6.65902 34.2691 7.09982H34.3256V6.5573ZM34.4387 10.0498C34.4387 8.71607 33.5514 7.74406 32.4212 7.74406C31.2796 7.74406 30.3189 8.71607 30.3189 10.0498C30.3189 11.3665 31.2796 12.3216 32.4212 12.3216C33.5514 12.3272 34.4387 11.3665 34.4387 10.0498Z" fill="#3686F7"></path><path d="M19.7284 10.0215C19.7284 12.1973 18.033 13.7966 15.9534 13.7966C13.8737 13.7966 12.1783 12.1916 12.1783 10.0215C12.1783 7.83449 13.8737 6.24084 15.9534 6.24084C18.033 6.24084 19.7284 7.83449 19.7284 10.0215ZM18.0782 10.0215C18.0782 8.66523 17.0949 7.73277 15.9534 7.73277C14.8118 7.73277 13.8285 8.66523 13.8285 10.0215C13.8285 11.3665 14.8118 12.3103 15.9534 12.3103C17.0949 12.3103 18.0782 11.3665 18.0782 10.0215Z" fill="#FF302F"></path><path d="M27.9733 10.0385C27.9733 12.2142 26.2779 13.8135 24.1982 13.8135C22.1186 13.8135 20.4232 12.2142 20.4232 10.0385C20.4232 7.85143 22.1186 6.26343 24.1982 6.26343C26.2779 6.26343 27.9733 7.84577 27.9733 10.0385ZM26.3175 10.0385C26.3175 8.68216 25.3341 7.7497 24.1926 7.7497C23.051 7.7497 22.0677 8.68216 22.0677 10.0385C22.0677 11.3834 23.051 12.3272 24.1926 12.3272C25.3398 12.3272 26.3175 11.3778 26.3175 10.0385Z" fill="#FFBA40"></path><path d="M5.97336 12.1577C3.60549 12.1577 1.75188 10.2476 1.75188 7.87971C1.75188 5.51184 3.60549 3.60172 5.97336 3.60172C7.25054 3.60172 8.18299 4.10468 8.87245 4.74892L10.0083 3.61303C9.04763 2.69187 7.7648 1.99112 5.97336 1.99112C2.72955 1.99112 0 4.6359 0 7.87971C0 11.1235 2.72955 13.7683 5.97336 13.7683C7.72524 13.7683 9.04763 13.1919 10.0818 12.1181C11.1442 11.0557 11.472 9.56378 11.472 8.35442C11.472 7.97578 11.4268 7.58585 11.3759 7.29763H5.97336V8.86868H9.82185C9.70883 9.85199 9.39801 10.5245 8.94026 10.9822C8.38644 11.5417 7.5105 12.1577 5.97336 12.1577Z" fill="#3686F7"></path><defs><clipPath id="clip0_574_34"><rect width="15.3333" height="15.3333" fill="white" transform="translate(68.6508 0.380951)"></rect></clipPath><clipPath id="clip1_574_34"><rect width="15.3333" height="15.3333" fill="white" transform="translate(51.6508 0.380951)"></rect></clipPath><clipPath id="clip2_574_34"><rect width="15.3333" height="15.3333" fill="white" transform="translate(85.5396 0.380951)"></rect></clipPath><clipPath id="clip3_574_34"><rect width="15.3333" height="15.3333" fill="white" transform="translate(102.429 0.380951)"></rect></clipPath><clipPath id="clip4_574_34"><rect width="15.3333" height="15.3333" fill="white" transform="translate(119.318 0.380951)"></rect></clipPath></defs></svg>