<svg xmlns="http://www.w3.org/2000/svg" id="a" data-name="Layer 1" viewBox="0 0 95 95"><rect x="7.44" y="8.48" width="79.75" height="79.97" rx="11" ry="11" fill="#fff" stroke-width="0"></rect><path d="M54.16,29.71c-.83-.63-2.01-.47-2.64.36-.63.83-.47,2.01.36,2.64l1.85,1.41c-5.5,1.52-10.62,4.68-14.76,8.62-5.06,4.82-8.8,10.98-9.95,17.11-.19,1.02.48,2.01,1.51,2.2,1.02.19,2.01-.48,2.2-1.51.97-5.18,4.22-10.66,8.84-15.07,3.85-3.68,8.55-6.5,13.47-7.8l-.74,2.11c-.34.98.18,2.06,1.16,2.4.98.34,2.06-.18,2.4-1.16l1.66-4.77c.4-1.15.02-2.44-.96-3.18l-4.4-3.36Z" fill="#ff7a00" fill-rule="evenodd" stroke-width="0"></path><path d="M69.98,32.39c0,3.77-3.06,6.83-6.83,6.83-.88,0-1.73-.17-2.5-.47l.66-1.88c.67-1.92.03-4.06-1.59-5.3l-2.74-2.09c1.09-2.32,3.45-3.92,6.18-3.92,3.77,0,6.83,3.06,6.83,6.83Z" fill="#ffaa5b" stroke-width="0"></path><path d="M27.17,59.5h0c-.38,2.05.96,4.02,3.01,4.4,2,.37,3.92-.9,4.37-2.86,1.22,1.23,1.98,2.93,1.98,4.81,0,3.77-3.06,6.83-6.83,6.83s-6.83-3.06-6.83-6.83c0-2.88,1.78-5.34,4.31-6.35h0Z" fill="#ffaa5b" stroke-width="0"></path><g><path d="M30.43,50.67c.57-1.03,1.2-2.05,1.88-3.03-.42-.09-.87-.03-1.27.19-1.12.6-1.15,1.85-.61,2.84Z" fill="#ff7a00" stroke-width="0"></path><path d="M35.74,57c.42-1.03.93-2.06,1.51-3.08.66.8.55,1.98-.24,2.64-.37.31-.82.45-1.27.44Z" fill="#ff7a00" stroke-width="0"></path><path d="M26.28,26.31c-.74-.74-1.93-.74-2.67,0s-.74,1.93,0,2.67l2.17,2.17-2.17,2.17c-.74.74-.74,1.93,0,2.67.74.74,1.93.74,2.67,0l2.17-2.17,2.17,2.17c.74.74,1.93.74,2.67,0,.74-.74.74-1.93,0-2.67l-2.17-2.17,2.17-2.17c.74-.74.74-1.93,0-2.67s-1.93-.74-2.67,0l-2.17,2.17-2.17-2.17Z" fill="#ff7a00" stroke-width="0"></path><path d="M49.84,46.1c-.74-.74-1.93-.74-2.67,0s-.74,1.93,0,2.67l2.17,2.17-2.17,2.17c-.74.74-.74,1.93,0,2.67s1.93.74,2.67,0l2.17-2.17,2.17,2.17c.74.74,1.93.74,2.67,0s.74-1.93,0-2.67l-2.17-2.17,2.17-2.17c.74-.74.74-1.93,0-2.67s-1.93-.74-2.67,0l-2.17,2.17-2.17-2.17Z" fill="#ff7a00" stroke-width="0"></path><path d="M59.42,62.12c.74-.74,1.93-.74,2.67,0l2.17,2.17,2.17-2.17c.74-.74,1.93-.74,2.67,0s.74,1.93,0,2.67l-2.17,2.17,2.17,2.17c.74.74.74,1.93,0,2.67s-1.93.74-2.67,0l-2.17-2.17-2.17,2.17c-.74.74-1.93.74-2.67,0s-.74-1.93,0-2.67l2.17-2.17-2.17-2.17c-.74-.74-.74-1.93,0-2.67Z" fill="#ff7a00" stroke-width="0"></path><path d="M29.22,37.81c-1.04,0-1.88.84-1.88,1.88,0,1.27.13,2.53.38,3.76.2,1.02,1.19,1.68,2.22,1.48,1.02-.2,1.68-1.19,1.48-2.22-.2-1.01-.31-2.03-.31-3.03s-.84-1.88-1.88-1.88Z" fill="#ff7a00" stroke-width="0"></path><path d="M39.19,58.74c-.68.79-.59,1.98.2,2.66,1.86,1.6,3.82,3.02,5.76,4.22.89.54,2.05.27,2.59-.62.54-.89.27-2.05-.62-2.59-1.77-1.09-3.56-2.39-5.27-3.86-.79-.68-1.98-.59-2.66.2Z" fill="#ff7a00" stroke-width="0"></path><path d="M50.5,66.37c-.33.99.2,2.05,1.19,2.39,1.28.43,2.54.72,3.73.85,1.04.11,1.96-.65,2.07-1.68.11-1.04-.65-1.96-1.68-2.07-.85-.09-1.83-.31-2.92-.67-.99-.33-2.06.2-2.39,1.19Z" fill="#ff7a00" stroke-width="0"></path></g></svg>