<svg xmlns="http://www.w3.org/2000/svg" xmlns:xlink="http://www.w3.org/1999/xlink" id="a" data-name="Layer 1" viewBox="0 0 95 95"><defs><linearGradient id="e" x1="27.8" y1="-48.88" x2="67.12" y2="-88.2" gradientTransform="translate(0 -18) scale(1 -1)" gradientUnits="userSpaceOnUse"><stop offset="0" stop-color="#67ce87"></stop><stop offset="1" stop-color="#49b766"></stop></linearGradient></defs><rect x="7.17" y="8.48" width="79.75" height="79.97" rx="11" ry="11" fill="#fff" stroke-width="0"></rect><g id="b" data-name="Layer 2"><g id="c" data-name="Layer 1 copy 11"><g id="d" data-name=" 104"><circle id="f" data-name="background" cx="47.46" cy="50.54" r="27.8" fill="url(#e)" stroke-width="0"></circle><g><path d="M52.36,50.24c-1.74-1.92-3.91-3.29-6.32-3.89-1.77.69-3.74.69-5.51,0-4.87,1.21-8.75,5.57-10.09,11.21-.1.41,0,.85.25,1.18,4.1,5.33,11.1,7.5,17.5,5.43-2.74-4.86-1.02-11.02,3.85-13.76.1-.06.21-.12.32-.17h0Z" fill="#fff" stroke-width="0"></path><circle cx="43.28" cy="39.31" r="6.69" fill="#fff" stroke-width="0"></circle><path d="M57,49.98c-5.1,0-9.24,4.14-9.24,9.24s4.14,9.24,9.24,9.24,9.24-4.14,9.24-9.24h0c0-5.1-4.14-9.24-9.24-9.24h0ZM62.41,58.92l-1.99,1.94.47,2.74c.09.53-.26,1.04-.8,1.13-.21.04-.43,0-.62-.1l-2.46-1.29-2.46,1.29c-.48.25-1.07.07-1.32-.41-.1-.19-.14-.41-.1-.63l.47-2.74-1.99-1.94c-.39-.38-.4-.99-.02-1.38.15-.16.35-.26.56-.29l2.75-.4,1.23-2.5c.24-.48.82-.68,1.31-.45.19.1.35.25.45.45l1.23,2.5,2.75.4c.53.08.91.57.83,1.11-.03.21-.13.41-.29.56h0Z" fill="#fff" stroke-width="0"></path></g></g></g></g></svg>