<svg xmlns="http://www.w3.org/2000/svg" id="a" data-name="Layer 1" viewBox="0 0 95 95"><rect x="7.63" y="7.51" width="79.75" height="79.97" rx="11" ry="11" fill="#fff" stroke-width="0"></rect><g><circle cx="47.05" cy="51.27" r="29.77" fill="#3b3868" stroke-width="0"></circle><circle cx="47.05" cy="56.73" r="21.87" fill="#47477f" stroke-width="0"></circle><path d="M62.84,18.83h-31.59c-5.37,0-9.72,4.35-9.72,9.72v23.23c0,5.37,4.35,9.72,9.72,9.72h5.17c1.67,0,3.23.86,4.12,2.28l2.39,3.81c1.9,3.04,6.33,3.04,8.23,0l2.39-3.81c.89-1.42,2.44-2.28,4.12-2.28h5.17c5.37,0,9.72-4.35,9.72-9.72v-23.23c0-5.37-4.35-9.72-9.72-9.72Z" fill="#42c3fc" stroke-width="0"></path><path d="M41.03,51.77v-23.23c0-5.37,4.35-9.72,9.72-9.72h-19.42c-5.37,0-9.72,4.35-9.72,9.72v23.23c0,5.37,4.35,9.72,9.72,9.72h5.17c1.67,0,3.23.86,4.12,2.28l2.39,3.81c1.9,3.04,6.33,3.04,8.23,0l2.39-3.81c.89-1.42,2.44-2.28,4.12-2.28h-6.99c-5.37,0-9.72-4.35-9.72-9.72h0Z" fill="#1aa9e8" stroke-width="0"></path><g><g><path d="M40.42,40.58c-4.42,0-8.01,3.59-8.01,8.01,0,.71.58,1.29,1.29,1.29h13.43c.71,0,1.29-.58,1.29-1.29,0-4.42-3.59-8.01-8.01-8.01Z" fill="#e9efff" stroke-width="0"></path><circle cx="40.42" cy="35.23" r="6.01" fill="#fff" stroke-width="0"></circle><path d="M38.6,35.23c0-2.58,1.63-4.78,3.92-5.63-.65-.24-1.36-.37-2.09-.37-3.32,0-6.01,2.69-6.01,6.01s2.69,6.01,6.01,6.01c.74,0,1.44-.13,2.09-.37-2.29-.85-3.92-3.05-3.92-5.63Z" fill="#e9efff" stroke-width="0"></path></g><path d="M59.26,49.88c-1.34,0-2.43-1.09-2.43-2.43v-12.15h-1.11c-1.34,0-2.43-1.09-2.43-2.43s1.09-2.43,2.43-2.43h3.54c1.34,0,2.43,1.09,2.43,2.43v14.58c0,1.34-1.09,2.43-2.43,2.43Z" fill="#fff" stroke-width="0"></path><path d="M59.26,45.02c-1.34,0-2.43-1.09-2.43-2.43v4.86c0,1.34,1.09,2.43,2.43,2.43s2.43-1.09,2.43-2.43v-4.86c0,1.34-1.09,2.43-2.43,2.43Z" fill="#e9efff" stroke-width="0"></path></g></g></svg>