<svg xmlns="http://www.w3.org/2000/svg" id="a" data-name="Layer 1" viewBox="0 0 95 95"><rect x="8.02" y="7.59" width="79.75" height="79.97" rx="11" ry="11" fill="#fff" stroke-width="0"></rect><g><path d="M76.26,39.5c0-6.79-5.5-12.29-12.29-12.29h-31.44c-6.79,0-12.29,5.5-12.29,12.29v14.63c0,6.79,5.5,12.29,12.29,12.29h31.44c6.79,0,12.29-5.5,12.29-12.29v-14.63Z" fill="red" stroke-width="0"></path><path d="M41.21,38.93v15.78c0,.62.65,1.01,1.2.73,5.15-2.68,10.3-5.37,15.46-8.05.59-.31.59-1.16-.01-1.46l-15.46-7.73c-.54-.27-1.19.12-1.19.73Z" fill="#fff" stroke-width="0"></path></g></svg>