<svg xmlns="http://www.w3.org/2000/svg" id="a" data-name="Layer 1" viewBox="0 0 95 95"><rect x="7.73" y="8.48" width="79.75" height="79.97" rx="11" ry="11" fill="#fff" stroke-width="0"></rect><g id="b" data-name="Image"><rect x="22.06" y="22.04" width="52.54" height="56.3" rx="7.51" ry="7.51" fill="#ddebfd" stroke-width="0"></rect><path d="M62.4,47.29c-.74-.69-1.9-.68-2.61.04l-8.09,8.09c-.73.73-.73,1.92,0,2.65l19.18,19.19c2.29-1.34,3.71-3.79,3.72-6.44v-12.07l-12.2-11.46Z" fill="#4071f7" stroke-width="0"></path><g><circle cx="53.96" cy="40.8" r="5.63" fill="#5392f9" stroke-width="0"></circle><path d="M44.03,45.11c-.74-.7-1.91-.7-2.65,0l-19.32,19.32v6.41c0,4.15,3.36,7.51,7.51,7.51h37.53c2.66,0,5.11-1.42,6.44-3.72l-29.51-29.51Z" fill="#5392f9" stroke-width="0"></path></g></g></svg>