<svg xmlns="http://www.w3.org/2000/svg" id="a" data-name="Layer 1" viewBox="0 0 95 95"><rect x="7.54" y="7.59" width="79.75" height="79.97" rx="11" ry="11" fill="#fff" stroke-width="0"></rect><path d="M64.04,36.54v-8.03c0-1.84-1.5-3.35-3.35-3.35h-26.78c-1.84,0-3.35,1.5-3.35,3.35v37.49c0,1.84,1.5,3.35,3.35,3.35h26.78c1.84,0,3.35-1.5,3.35-3.35v-2.68c0-1.11.9-2.01,2.01-2.01s2.01.9,2.01,2.01v2.68c0,4.06-3.3,7.36-7.36,7.36h-26.78c-4.06,0-7.36-3.3-7.36-7.36V28.51c0-4.06,3.3-7.36,7.36-7.36h26.78c4.06,0,7.36,3.3,7.36,7.36v8.03c0,1.11-.9,2.01-2.01,2.01s-2.01-.9-2.01-2.01ZM51.99,33.86c0-1.11-.9-2.01-2.01-2.01h-13.39c-1.11,0-2.01.9-2.01,2.01s.9,2.01,2.01,2.01h13.39c1.11,0,2.01-.9,2.01-2.01ZM43.95,41.9c0-1.11-.9-2.01-2.01-2.01h-5.36c-1.11,0-2.01.9-2.01,2.01s.9,2.01,2.01,2.01h5.36c1.11,0,2.01-.9,2.01-2.01ZM36.59,47.92c-1.11,0-2.01.9-2.01,2.01s.9,2.01,2.01,2.01h2.68c1.11,0,2.01-.9,2.01-2.01s-.9-2.01-2.01-2.01h-2.68Z" fill="#112d55" stroke-width="0"></path><path d="M78.18,61.9l-4.21-4.21c1.34-2.28,2.12-4.93,2.12-7.76,0-8.49-6.91-15.4-15.4-15.4s-15.4,6.91-15.4,15.4,6.91,15.4,15.4,15.4c4.2,0,8.02-1.7,10.8-4.44l3.85,3.85c.39.39.91.59,1.42.59s1.03-.2,1.42-.59c.78-.78.78-2.06,0-2.84h0ZM60.69,61.31c-6.27,0-11.38-5.1-11.38-11.38s5.11-11.38,11.38-11.38,11.38,5.11,11.38,11.38-5.11,11.38-11.38,11.38ZM67.65,46.04c.67.89.49,2.14-.39,2.81l-7.14,5.38c-.36.27-.78.4-1.21.4s-.85-.14-1.21-.41l-3.57-2.7c-.89-.67-1.06-1.93-.39-2.81.67-.88,1.93-1.06,2.81-.39l2.36,1.79,5.93-4.47c.89-.67,2.14-.49,2.81.39h0Z" fill="#549bff" stroke-width="0"></path></svg>